<svg xmlns="http://www.w3.org/2000/svg" xmlns:xlink="http://www.w3.org/1999/xlink" width="299.17" height="225.103" viewBox="0 0 299.17 225.103">
  <defs>
    <clipPath id="clip-path">
      <rect id="Rectángulo_461264" data-name="Rectángulo 461264" width="124.63" height="122.088" fill="none"/>
    </clipPath>
  </defs>
  <g id="Grupo_1205170" data-name="Grupo 1205170" transform="translate(-911.712 -907.727)">
    <g id="Grupo_1099952" data-name="Grupo 1099952" transform="translate(13610.099 13516.742)">
      <path id="Trazado_145968" data-name="Trazado 145968" d="M49.9,0a49.895,49.895,0,1,0,49.9,49.895A49.895,49.895,0,0,0,49.9,0Z" transform="translate(-12690.719 -12487.975)" fill="#445130"/>
      <path id="Trazado_145969" data-name="Trazado 145969" d="M34.094,0A34.094,34.094,0,1,0,68.187,34.094,34.094,34.094,0,0,0,34.094,0Z" transform="translate(-12495.28 -12595.998)" fill="#445130"/>
      <rect id="Rectángulo_34812" data-name="Rectángulo 34812" width="299.17" height="224.377" transform="translate(-12698.387 -12608.653)" fill="none"/>
      <path id="Trazado_145967" data-name="Trazado 145967" d="M112.552,0A112.552,112.552,0,1,0,225.1,112.552,112.552,112.552,0,0,0,112.552,0Z" transform="translate(-12661.354 -12609.016)" fill="#aaca79"/>
      <path id="Trazado_145971" data-name="Trazado 145971" d="M9.374,0a9.374,9.374,0,1,0,9.374,9.374A9.374,9.374,0,0,0,9.374,0Z" transform="translate(-12454.998 -12421.599)" fill="#0a4666"/>
      <path id="Elipse_4044" data-name="Elipse 4044" d="M12.712,3.436a9.277,9.277,0,1,1-9.277,9.277,9.287,9.287,0,0,1,9.277-9.277m0-3.436A12.712,12.712,0,1,0,25.425,12.712,12.712,12.712,0,0,0,12.712,0Z" transform="translate(-12480.423 -12528.729)" fill="#fff"/>
    </g>
    <g id="Grupo_1205081" data-name="Grupo 1205081" transform="translate(999 959.235)">
      <g id="Grupo_1205080" data-name="Grupo 1205080" transform="translate(0 0)" clip-path="url(#clip-path)">
        <path id="Trazado_1269376" data-name="Trazado 1269376" d="M74.143,85.174a2.285,2.285,0,0,1,1.878,4.167A53.668,53.668,0,0,1,35.741,90.9l.875,1.861a2.28,2.28,0,1,1-4.131,1.931l-3.415-7.271a2.28,2.28,0,0,1,1.1-3.031,2.346,2.346,0,0,1,.28-.108V84.27L38.1,81.847a2.288,2.288,0,0,1,1.377,4.364l-1.752.554a49.072,49.072,0,0,0,36.414-1.591Z" transform="translate(9.208 26.085)" fill="#12263f" fill-rule="evenodd"/>
        <path id="Trazado_1269377" data-name="Trazado 1269377" d="M8.236,52.377a2.282,2.282,0,0,1-4.543-.447A53.611,53.611,0,0,1,22.469,16.27L20.443,16.1a2.288,2.288,0,0,1,.376-4.561l8,.678a2.287,2.287,0,0,1,2.091,2.468,2.154,2.154,0,0,1-.094.491l-1.69,7.657a2.28,2.28,0,1,1-4.453-.984l.4-1.8A49.11,49.11,0,0,0,8.236,52.377Z" transform="translate(1.175 3.679)" fill="#12263f" fill-rule="evenodd"/>
        <path id="Trazado_1269378" data-name="Trazado 1269378" d="M71.63,15.875a2.28,2.28,0,0,1,2.665-3.7A53.616,53.616,0,0,1,95.789,46.259l1.162-1.67a2.287,2.287,0,1,1,3.756,2.611l-4.589,6.594a2.286,2.286,0,0,1-3.183.571,2.2,2.2,0,0,1-.381-.332l-5.779-5.284a2.278,2.278,0,0,1,3.075-3.362l1.359,1.243A49.12,49.12,0,0,0,71.63,15.875Z" transform="translate(22.556 3.748)" fill="#12263f" fill-rule="evenodd"/>
        <path id="Trazado_1269379" data-name="Trazado 1269379" d="M53.086,0,77.249,9.395V37.3L53.086,46.691,28.922,37.3V9.395Z" transform="translate(9.229 0)" fill="#353332" fill-rule="evenodd"/>
        <path id="Trazado_1269380" data-name="Trazado 1269380" d="M47.24,0,71.4,9.395V37.3L47.24,46.691Z" transform="translate(15.075 0)" fill="#353332" fill-rule="evenodd"/>
        <path id="Trazado_1269381" data-name="Trazado 1269381" d="M53.086,0,77.249,9.395l-24.164,9.4-24.164-9.4Z" transform="translate(9.229 0)" fill="#21201f" fill-rule="evenodd"/>
        <path id="Trazado_1269382" data-name="Trazado 1269382" d="M43.151,14.928V22.01l-8.165-2.786V11.753L59.148,2.358l8.165,3.175Z" transform="translate(11.164 0.753)" fill="#b8d28e" fill-rule="evenodd"/>
        <path id="Trazado_1269383" data-name="Trazado 1269383" d="M82.008,46.584l24.164,9.395v27.9L82.008,93.275,57.845,83.88v-27.9Z" transform="translate(18.459 14.866)" fill="#353332" fill-rule="evenodd"/>
        <path id="Trazado_1269384" data-name="Trazado 1269384" d="M76.163,46.584l24.164,9.395v27.9L76.163,93.275Z" transform="translate(24.305 14.866)" fill="#353332" fill-rule="evenodd"/>
        <path id="Trazado_1269385" data-name="Trazado 1269385" d="M82.008,46.584l24.164,9.395-24.164,9.4-24.164-9.4Z" transform="translate(18.459 14.866)" fill="#21201f" fill-rule="evenodd"/>
        <path id="Trazado_1269386" data-name="Trazado 1269386" d="M72.074,61.512v7.082l-8.165-2.786V58.337l24.162-9.395,8.165,3.175L72.074,61.512" transform="translate(20.394 15.618)" fill="#b8d28e" fill-rule="evenodd"/>
        <path id="Trazado_1269387" data-name="Trazado 1269387" d="M24.163,46.584l24.164,9.395v27.9L24.163,93.275,0,83.88v-27.9Z" transform="translate(0 14.866)" fill="#353332" fill-rule="evenodd"/>
        <path id="Trazado_1269388" data-name="Trazado 1269388" d="M18.318,46.584l24.164,9.395v27.9L18.318,93.275Z" transform="translate(5.845 14.866)" fill="#353332" fill-rule="evenodd"/>
        <path id="Trazado_1269389" data-name="Trazado 1269389" d="M24.163,46.584l24.164,9.395-24.164,9.4L0,55.979Z" transform="translate(0 14.866)" fill="#21201f" fill-rule="evenodd"/>
        <path id="Trazado_1269390" data-name="Trazado 1269390" d="M14.229,61.512v7.082L6.064,65.808V58.337l24.162-9.395,8.165,3.175L14.229,61.512" transform="translate(1.935 15.618)" fill="#b8d28e" fill-rule="evenodd"/>
      </g>
    </g>
  </g>
</svg>
