<svg xmlns="http://www.w3.org/2000/svg" xmlns:xlink="http://www.w3.org/1999/xlink" width="295" height="221.965" viewBox="0 0 295 221.965">
  <defs>
    <clipPath id="clip-path">
      <rect id="Rectángulo_460998" data-name="Rectángulo 460998" width="152.854" height="95.961" fill="none"/>
    </clipPath>
  </defs>
  <g id="Grupo_1205165" data-name="Grupo 1205165" transform="translate(-285.265 -2383.726)">
    <g id="Grupo_1102750" data-name="Grupo 1102750" transform="translate(54.85 -2236.274)">
      <g id="Grupo_1099952" data-name="Grupo 1099952" transform="translate(230.415 4620)">
        <path id="Trazado_145968" data-name="Trazado 145968" d="M49.2,0A49.2,49.2,0,1,0,98.4,49.2,49.2,49.2,0,0,0,49.2,0Z" transform="translate(7.561 119.354)" fill="#a6cdec"/>
        <path id="Trazado_145969" data-name="Trazado 145969" d="M33.618,0A33.618,33.618,0,1,0,67.237,33.618,33.618,33.618,0,0,0,33.618,0Z" transform="translate(200.275 12.836)" fill="#a6cdec"/>
        <rect id="Rectángulo_34812" data-name="Rectángulo 34812" width="295" height="221.25" transform="translate(0 0.357)" fill="none"/>
        <path id="Trazado_145967" data-name="Trazado 145967" d="M110.983,0A110.983,110.983,0,1,0,221.966,110.983,110.983,110.983,0,0,0,110.983,0Z" transform="translate(36.517 0)" fill="#88a160"/>
        <path id="Trazado_145971" data-name="Trazado 145971" d="M9.243,0a9.243,9.243,0,1,0,9.243,9.243A9.243,9.243,0,0,0,9.243,0Z" transform="translate(239.996 184.805)" fill="#0a4666"/>
        <path id="Elipse_4044" data-name="Elipse 4044" d="M12.535,3.388a9.147,9.147,0,1,1-9.147,9.147,9.158,9.158,0,0,1,9.147-9.147m0-3.388A12.535,12.535,0,1,0,25.071,12.535,12.535,12.535,0,0,0,12.535,0Z" transform="translate(214.926 79.167)" fill="#fff"/>
      </g>
    </g>
    <g id="Grupo_1204442" data-name="Grupo 1204442" transform="translate(354.91 2446.729)">
      <g id="Grupo_1204441" data-name="Grupo 1204441" transform="translate(0 0)" clip-path="url(#clip-path)">
        <path id="Trazado_1262728" data-name="Trazado 1262728" d="M130.511,83.591H1.323V4.982A4.983,4.983,0,0,1,6.3,0H125.53a4.983,4.983,0,0,1,4.982,4.982Z" transform="translate(10.51 0)" fill="#dadada"/>
        <path id="Trazado_1262729" data-name="Trazado 1262729" d="M146.665,21.724H6.189a6.189,6.189,0,1,1,0-12.379H146.665a6.189,6.189,0,0,1,0,12.379" transform="translate(0 74.237)" fill="#dedede"/>
        <path id="Trazado_1262730" data-name="Trazado 1262730" d="M146.665,13.412H6.189A6.172,6.172,0,0,1,.555,9.754a6.165,6.165,0,0,0,5.635,8.72H146.665a6.165,6.165,0,0,0,5.635-8.72,6.187,6.187,0,0,1-5.635,3.658" transform="translate(0 77.487)" fill="#d3d3d3"/>
        <rect id="Rectángulo_460996" data-name="Rectángulo 460996" width="120.003" height="67.868" rx="0.278" transform="translate(16.422 4.849)" fill="#fff"/>
        <path id="Trazado_1262731" data-name="Trazado 1262731" d="M8.512,22.271H40.835a4.393,4.393,0,0,0,4.392-4.624c-.134-2.665-.34-6-.617-8.667A2.76,2.76,0,0,0,41.47,6.538L37.49,8.05a8.02,8.02,0,0,1-2.567.3l-.644-.036c-2.844-.125-6.064-4.043-7.021-5.295a1.1,1.1,0,0,0-.769-.42,1.02,1.02,0,0,0-1.109,1.02V6.288a4.323,4.323,0,0,1-3.712,4.275l-7.5,1.064c-7.558.894-7.808,6.958-7.933,8.112a2.289,2.289,0,0,0,2.281,2.531" transform="translate(49.384 20.643)" fill="#36dbe6"/>
        <path id="Trazado_1262732" data-name="Trazado 1262732" d="M17.121,6.937a7.988,7.988,0,0,1-2.558.3l-.644-.027C12.3,7.134,10.574,5.846,9.2,4.514a4.062,4.062,0,0,0,1.4.331l.644.036a8,8,0,0,0,2.558-.3l3.98-1.512a2.758,2.758,0,0,1,3.139,2.424Z" transform="translate(73.062 24.116)" fill="#0a4666"/>
        <path id="Trazado_1262733" data-name="Trazado 1262733" d="M6.23,19.74c.125-1.163.376-7.218,7.942-8.112l7.5-1.064a4.326,4.326,0,0,0,3.721-4.284V3.613A1.013,1.013,0,0,1,26.5,2.6a1.1,1.1,0,0,1,.769.42A24.613,24.613,0,0,0,29.1,5.161a1.026,1.026,0,0,0-.394.814V8.64a4.316,4.316,0,0,1-3.721,4.275l-7.5,1.064c-7.567.894-7.817,6.959-7.942,8.121l-.009.17H8.519A2.291,2.291,0,0,1,6.23,19.74Z" transform="translate(49.376 20.643)" fill="#0a4666"/>
        <path id="Trazado_1262734" data-name="Trazado 1262734" d="M8.231,4.519A1.27,1.27,0,1,0,9.5,3.249a1.275,1.275,0,0,0-1.27,1.27" transform="translate(65.388 25.81)" fill="#fff"/>
        <path id="Trazado_1262735" data-name="Trazado 1262735" d="M7.779,4.774A1.27,1.27,0,1,0,9.049,3.5a1.275,1.275,0,0,0-1.27,1.27" transform="translate(61.797 27.836)" fill="#fff"/>
        <path id="Trazado_1262736" data-name="Trazado 1262736" d="M7.243,4.851a1.27,1.27,0,1,0,1.27-1.27,1.275,1.275,0,0,0-1.27,1.27" transform="translate(57.539 28.448)" fill="#fff"/>
        <path id="Trazado_1262737" data-name="Trazado 1262737" d="M7.6,5.661,7.285,4.48a.8.8,0,0,1,1.547-.4l.3,1.172A.8.8,0,1,1,7.6,5.661Z" transform="translate(57.676 27.7)" fill="#576577"/>
        <path id="Trazado_1262738" data-name="Trazado 1262738" d="M7.6,4.343a.8.8,0,0,0,1.449.215l.089.358A.8.8,0,1,1,7.6,5.327L7.283,4.146a.855.855,0,0,1,.089-.617Z" transform="translate(57.678 28.035)" fill="#38495e"/>
        <path id="Trazado_1262739" data-name="Trazado 1262739" d="M8.444,3.42a.8.8,0,0,1,.823.429l.528,1.055a.8.8,0,0,1-.367,1.064.792.792,0,0,1-1.064-.358L7.845,4.565a.8.8,0,0,1,.6-1.145" transform="translate(61.651 27.115)" fill="#576577"/>
        <path id="Trazado_1262740" data-name="Trazado 1262740" d="M8.362,4.411a.8.8,0,0,0,1.064.367.838.838,0,0,0,.322-.286l.045.089a.8.8,0,0,1-1.431.707L7.843,4.241a.793.793,0,0,1,.045-.787Z" transform="translate(61.643 27.439)" fill="#38495e"/>
        <path id="Trazado_1262741" data-name="Trazado 1262741" d="M8.316,3.514a.794.794,0,0,1,1.127-.161l1.109.877A.8.8,0,0,1,9.577,5.49L8.459,4.6a.777.777,0,0,1-.152-1.073Z" transform="translate(64.802 25.313)" fill="#576577"/>
        <path id="Trazado_1262742" data-name="Trazado 1262742" d="M8.458,3.427,9.576,4.3a.788.788,0,0,0,1.118-.134l.054-.072A.8.8,0,0,1,9.576,5.144L8.458,4.268A.781.781,0,0,1,8.279,3.23a.745.745,0,0,0,.179.2" transform="translate(64.794 25.659)" fill="#38495e"/>
        <path id="Trazado_1262743" data-name="Trazado 1262743" d="M26.6,3.412c.233,2.5.411,5.411.528,7.781a4.391,4.391,0,0,1-4.383,4.624H8.493l5.331-2.156A28.559,28.559,0,0,0,26.6,3.412Z" transform="translate(67.469 27.105)" fill="#38495e"/>
        <path id="Trazado_1262744" data-name="Trazado 1262744" d="M13.035,3.629l.277.948A3.028,3.028,0,0,0,16.55,6.733l5.787-.626a18.233,18.233,0,0,1,15.2,5.581l2.281,2.4H8.518a2.293,2.293,0,0,1-2.29-2.522A8.131,8.131,0,0,1,13.035,3.629Z" transform="translate(49.377 28.829)" fill="#576577"/>
        <path id="Trazado_1262745" data-name="Trazado 1262745" d="M6.462,6.286A2.294,2.294,0,0,0,8.511,7.538H40.843a4.4,4.4,0,0,0,4.293-3.452c.036.608.063,1.19.1,1.744a4.4,4.4,0,0,1-4.392,4.624H8.511A2.289,2.289,0,0,1,6.23,7.923,14.84,14.84,0,0,1,6.462,6.286Z" transform="translate(49.376 32.46)" fill="#38495e"/>
        <path id="Trazado_1262746" data-name="Trazado 1262746" d="M6.23,5.969V5.942l.027-.259V5.665l.009-.027V5.611l.009-.08V5.513l.009-.08V5.414l.009-.027V5.334L6.3,5.325V5.289l.009-.072V5.191l.009-.027V5.146L6.328,5.1V5.092l.009-.045V5.021l.009-.027V4.967l.009-.036V4.913l.009-.045V4.842l.009-.027V4.788l.009-.036.009-.036V4.69L6.4,4.654V4.627l.009-.036.009-.027.009-.045V4.5l.009-.045.009-.018.009-.054V4.377l.009-.045A2.314,2.314,0,0,0,8.519,5.584H37.033c.179.161.34.331.51.51L39.824,8.5H8.519A2.291,2.291,0,0,1,6.23,5.969Z" transform="translate(49.376 34.414)" fill="#38495e"/>
        <path id="Trazado_1262747" data-name="Trazado 1262747" d="M6.273,5.984A2.305,2.305,0,0,0,8.518,7.772H40.842c2.272,0,4.383-3.622,4.392-3.488a4.393,4.393,0,0,1-4.392,4.624H8.518a2.3,2.3,0,0,1-2.29-2.531C6.246,6.279,6.255,6.145,6.273,5.984Z" transform="translate(49.377 34.005)" fill="#576577"/>
        <path id="Trazado_1262748" data-name="Trazado 1262748" d="M12.227,4.8H9.7l.259,1.279c.063.313.188.5.322.5h1.359c.134,0,.259-.188.322-.5Z" transform="translate(77.097 38.116)" fill="#fff"/>
        <path id="Trazado_1262749" data-name="Trazado 1262749" d="M11.426,4.8H9.753l.17,1.279c.045.313.125.5.215.5h.9c.089,0,.17-.188.215-.5Z" transform="translate(77.479 38.116)" fill="#fff"/>
        <path id="Trazado_1262750" data-name="Trazado 1262750" d="M10.243,5.4h2.415a.6.6,0,0,0,.6-.6H9.644a.6.6,0,0,0,.6.6" transform="translate(76.613 38.124)" fill="#aaca79"/>
        <path id="Trazado_1262751" data-name="Trazado 1262751" d="M10.2,5.406h1.324A.473.473,0,0,0,12,4.923V4.8H9.718v.125a.487.487,0,0,0,.483.483" transform="translate(77.201 38.116)" fill="#0a4666"/>
        <path id="Trazado_1262752" data-name="Trazado 1262752" d="M11.666,4.8H9.144L9.4,6.077c.063.313.188.5.322.5h1.36c.134,0,.259-.188.322-.5Z" transform="translate(72.641 38.116)" fill="#fff"/>
        <path id="Trazado_1262753" data-name="Trazado 1262753" d="M10.865,4.8H9.192l.17,1.279c.045.313.125.5.215.5h.9c.089,0,.17-.188.206-.5Z" transform="translate(73.022 38.116)" fill="#fff"/>
        <path id="Trazado_1262754" data-name="Trazado 1262754" d="M9.691,5.4h2.415a.6.6,0,0,0,.6-.6H9.083a.607.607,0,0,0,.608.6" transform="translate(72.156 38.124)" fill="#aaca79"/>
        <path id="Trazado_1262755" data-name="Trazado 1262755" d="M9.64,5.4h1.333a.479.479,0,0,0,.474-.483V4.8H9.157v.116A.481.481,0,0,0,9.64,5.4Z" transform="translate(72.744 38.124)" fill="#0a4666"/>
        <path id="Trazado_1262756" data-name="Trazado 1262756" d="M10.175,4.8H7.653l.259,1.279c.063.313.188.5.322.5h1.36c.134,0,.259-.188.322-.5Z" transform="translate(60.796 38.116)" fill="#fff"/>
        <path id="Trazado_1262757" data-name="Trazado 1262757" d="M9.374,4.8H7.7l.17,1.279c.045.313.125.5.215.5h.9c.089,0,.17-.188.206-.5Z" transform="translate(61.177 38.116)" fill="#fff"/>
        <path id="Trazado_1262758" data-name="Trazado 1262758" d="M8.191,5.4h2.415a.6.6,0,0,0,.6-.6H7.592A.6.6,0,0,0,8.191,5.4Z" transform="translate(60.312 38.124)" fill="#aaca79"/>
        <path id="Trazado_1262759" data-name="Trazado 1262759" d="M8.152,5.4H9.565a.49.49,0,0,0,.492-.492V4.8H7.66v.107A.5.5,0,0,0,8.152,5.4Z" transform="translate(60.852 38.124)" fill="#0a4666"/>
        <path id="Trazado_1262760" data-name="Trazado 1262760" d="M9.657,4.8H7.135l.259,1.279c.072.313.188.5.322.5h1.36c.134,0,.259-.188.322-.5Z" transform="translate(56.681 38.116)" fill="#fff"/>
        <path id="Trazado_1262761" data-name="Trazado 1262761" d="M8.856,4.8H7.183l.17,1.279c.045.313.125.5.215.5h.9c.089,0,.17-.188.206-.5Z" transform="translate(57.062 38.116)" fill="#fff"/>
        <path id="Trazado_1262762" data-name="Trazado 1262762" d="M7.665,5.4H10.08a.594.594,0,0,0,.6-.6h-3.6A.592.592,0,0,0,7.665,5.4Z" transform="translate(56.204 38.124)" fill="#aaca79"/>
        <path id="Trazado_1262763" data-name="Trazado 1262763" d="M7.623,5.4H8.956a.483.483,0,0,0,.474-.474V4.8H7.149v.125a.483.483,0,0,0,.474.474" transform="translate(56.792 38.124)" fill="#0a4666"/>
        <path id="Trazado_1262764" data-name="Trazado 1262764" d="M9.042,4.8H6.52l.259,1.279c.063.313.188.5.322.5h1.36c.134,0,.259-.188.322-.5Z" transform="translate(51.795 38.116)" fill="#fff"/>
        <path id="Trazado_1262765" data-name="Trazado 1262765" d="M8.241,4.8H6.568l.17,1.279c.045.313.125.5.215.5h.9c.089,0,.17-.188.215-.5Z" transform="translate(52.177 38.116)" fill="#fff"/>
        <path id="Trazado_1262766" data-name="Trazado 1262766" d="M7.059,5.4H9.474a.6.6,0,0,0,.6-.6H6.46A.6.6,0,0,0,7.059,5.4Z" transform="translate(51.319 38.124)" fill="#aaca79"/>
        <path id="Trazado_1262767" data-name="Trazado 1262767" d="M7.015,5.4h1.36a.481.481,0,0,0,.483-.483V4.8H6.532v.116a.481.481,0,0,0,.483.483" transform="translate(51.891 38.124)" fill="#0a4666"/>
        <path id="Trazado_1262768" data-name="Trazado 1262768" d="M12.083,6.929a6.863,6.863,0,0,0,2.164.25l.555-.027c1.368-.063,2.826-1.145,3.98-2.272a3.544,3.544,0,0,1-1.181.277l-.546.027a6.8,6.8,0,0,1-2.164-.25L11.519,3.655A2.322,2.322,0,0,0,8.872,5.7Z" transform="translate(70.48 28.83)" fill="#fff"/>
        <path id="Trazado_1262769" data-name="Trazado 1262769" d="M10.392,3.644A2.245,2.245,0,0,0,10.008,4.7l3.211,1.225a6.86,6.86,0,0,0,2.173.25l.546-.027a4.744,4.744,0,0,0,2.308-.894A6.212,6.212,0,0,1,14.8,7.034l-.546.027A6.866,6.866,0,0,1,12.083,6.8L8.872,5.585A2.312,2.312,0,0,1,10.392,3.644Z" transform="translate(70.48 28.948)" fill="#fff"/>
        <path id="Trazado_1262770" data-name="Trazado 1262770" d="M14.393,13.672H34.437a1.959,1.959,0,0,0,1.825-1.252,7.852,7.852,0,0,0-1.923-8.542A1.917,1.917,0,0,0,33,3.342H25.153a1.932,1.932,0,0,0-1.565.787l-1.422,1.9a1.948,1.948,0,0,1-1.154.742L12.98,8.512a1.956,1.956,0,0,0-1.064,2.835L12.7,12.7A1.961,1.961,0,0,0,14.393,13.672Z" transform="translate(92.56 26.549)" fill="#0a4666"/>
        <path id="Trazado_1262771" data-name="Trazado 1262771" d="M12.975,8.512l8.032-1.744a1.877,1.877,0,0,0,1.145-.742l1.431-1.9a1.944,1.944,0,0,1,1.565-.787h7.844a1.917,1.917,0,0,1,1.342.537c.116.116.241.233.349.358a1.958,1.958,0,0,0-.912-.241H25.917a1.94,1.94,0,0,0-1.556.787l-1.431,1.9a1.877,1.877,0,0,1-1.145.742L13.753,9.165A1.965,1.965,0,0,0,12.68,12l.8,1.351.08.134A1.92,1.92,0,0,1,12.7,12.7l-.787-1.351A1.967,1.967,0,0,1,12.975,8.512Z" transform="translate(92.565 26.549)" fill="#a6cdec"/>
        <path id="Trazado_1262772" data-name="Trazado 1262772" d="M13.978,6.589a2.84,2.84,0,0,1,2.844-2.844h1.029a7.848,7.848,0,0,1-.072,5.474,1.968,1.968,0,0,1-1.825,1.252H13.978Z" transform="translate(111.042 29.751)" fill="#576577"/>
        <path id="Trazado_1262773" data-name="Trazado 1262773" d="M13.267,6.557A3.108,3.108,0,1,0,16.38,3.444a3.115,3.115,0,0,0-3.113,3.113" transform="translate(105.394 27.359)" fill="#aaca79"/>
        <path id="Trazado_1262774" data-name="Trazado 1262774" d="M16.38,4.142a3.1,3.1,0,0,0-3.086,2.764,2.29,2.29,0,0,1-.027-.349,3.113,3.113,0,0,1,6.225,0,2.29,2.29,0,0,1-.027.349A3.1,3.1,0,0,0,16.38,4.142Z" transform="translate(105.394 27.359)" fill="#36dbe6"/>
        <path id="Trazado_1262775" data-name="Trazado 1262775" d="M13.671,5.51h2.111a.2.2,0,0,0,.161-.322l-1.055-1.4a.2.2,0,0,0-.322,0l-1.055,1.4a.2.2,0,0,0,.161.322" transform="translate(107.002 29.417)" fill="#0a4666"/>
        <path id="Trazado_1262776" data-name="Trazado 1262776" d="M13.711,3.839h2.03l.206.268a.2.2,0,0,1-.17.322h-2.1a.2.2,0,0,1-.161-.322Z" transform="translate(106.999 30.497)" fill="#36dbe6"/>
        <path id="Trazado_1262777" data-name="Trazado 1262777" d="M15.2,9.029,13.973,5.451,15.5,5.12l1.359,3.971,2.245.089L16.9,4.825l1.565-.34,2.424,4.767,2.567.1L19.786,4.2l.832-.188a2.026,2.026,0,0,0,.724-.322l3.792,5.34a.985.985,0,0,0,.179-.25,1.089,1.089,0,0,1,.975-.608h9.991a7.848,7.848,0,0,1-.4,1.476,1.974,1.974,0,0,1-1.834,1.27H14a1.956,1.956,0,0,1-1.7-.975l-.6-1.046Z" transform="translate(92.954 29.306)" fill="#576577"/>
        <path id="Trazado_1262778" data-name="Trazado 1262778" d="M12.148,4.288a2.215,2.215,0,0,0,.152.331l.787,1.351.089.134a2.008,2.008,0,0,1-.832-.716V5.379l-.018-.027V5.343l-.018-.018V5.316L11.7,4.27Z" transform="translate(92.954 33.921)" fill="#6c7888"/>
        <path id="Trazado_1262779" data-name="Trazado 1262779" d="M14.232,4.519l-1.574.34-.376-.742,1.574-.34Z" transform="translate(97.568 30.002)" fill="#6c7888"/>
        <path id="Trazado_1262780" data-name="Trazado 1262780" d="M14.161,3.689l.563.787a1.751,1.751,0,0,1-.51.188l-1.1.241-.51-.716.385-.08.447-.1A1.959,1.959,0,0,0,14.161,3.689Z" transform="translate(100.135 29.306)" fill="#6c7888"/>
        <path id="Trazado_1262781" data-name="Trazado 1262781" d="M13.753,4.609l-1.529.331-.268-.76,1.538-.331Z" transform="translate(94.972 30.578)" fill="#6c7888"/>
        <path id="Trazado_1262782" data-name="Trazado 1262782" d="M12.309,5.183A1.942,1.942,0,0,0,14,6.158H34.052a1.974,1.974,0,0,0,1.834-1.27,7.006,7.006,0,0,0,.224-.7h.179a8.815,8.815,0,0,1-.4,1.476,1.974,1.974,0,0,1-1.834,1.27H14a1.961,1.961,0,0,1-1.69-.975L11.7,4.914l.465.018Z" transform="translate(92.954 33.286)" fill="#aaca79"/>
        <path id="Trazado_1262783" data-name="Trazado 1262783" d="M15.867,9.219a7.875,7.875,0,0,0,.08-5.447,2.529,2.529,0,0,1,.367-.027h1.038a7.849,7.849,0,0,1-.08,5.474,1.95,1.95,0,0,1-1.825,1.252h-1.4A1.968,1.968,0,0,0,15.867,9.219Z" transform="translate(111.551 29.751)" fill="#aaca79"/>
        <path id="Trazado_1262784" data-name="Trazado 1262784" d="M12.939,8.7l1.977.447,1.118-4.91a1.037,1.037,0,0,0-.787-1.243l-.626-.143a.34.34,0,0,0-.411.259Z" transform="translate(102.789 22.545)" fill="#a6cdec"/>
        <path id="Trazado_1262785" data-name="Trazado 1262785" d="M14.165,4.073a1.039,1.039,0,0,0-.671-1.207.3.3,0,0,1,.2-.018l.626.143A1.037,1.037,0,0,1,15.1,4.234l-1.118,4.91-.93-.206Z" transform="translate(103.718 22.545)" fill="#0a4666"/>
        <path id="Trazado_1262786" data-name="Trazado 1262786" d="M14.084,5.35H14.1a.189.189,0,0,0,.179-.241l-.233-.733a.191.191,0,0,0-.179-.134H13.86a.186.186,0,0,0-.179.25l.224.724a.191.191,0,0,0,.179.134" transform="translate(108.593 33.691)" fill="#12263f"/>
        <path id="Trazado_1262787" data-name="Trazado 1262787" d="M14.01,5.35h.009a.181.181,0,0,0,.179-.241l-.224-.733a.191.191,0,0,0-.179-.134h-.018a.193.193,0,0,0-.179.25l.233.724a.191.191,0,0,0,.179.134" transform="translate(107.969 33.691)" fill="#12263f"/>
        <path id="Trazado_1262788" data-name="Trazado 1262788" d="M13.932,5.35h.009a.181.181,0,0,0,.179-.241L13.9,4.375a.191.191,0,0,0-.179-.134H13.7a.193.193,0,0,0-.179.25l.233.724A.191.191,0,0,0,13.932,5.35Z" transform="translate(107.349 33.691)" fill="#12263f"/>
        <path id="Trazado_1262789" data-name="Trazado 1262789" d="M11.963,6.327V4.1a1.082,1.082,0,0,1,1.082-1.091H18.6A1.082,1.082,0,0,1,19.682,4.1V15.862H2.912v-2.54A4.042,4.042,0,0,1,6.955,9.288H9A2.97,2.97,0,0,0,11.963,6.327Z" transform="translate(23.133 23.904)" fill="#e2e2e2"/>
        <path id="Trazado_1262790" data-name="Trazado 1262790" d="M4.509,3.009h1.4A1.088,1.088,0,0,1,7,4.091v11.77H5.591V4.091A1.08,1.08,0,0,0,4.509,3.009" transform="translate(35.82 23.904)" fill="#dcdcdc"/>
        <path id="Trazado_1262791" data-name="Trazado 1262791" d="M6.955,9.279H9a2.958,2.958,0,0,0,2.96-2.96V4.091a1.08,1.08,0,0,1,1.082-1.082H18.6a1.08,1.08,0,0,1,1.082,1.082v.662H15.854a1.1,1.1,0,0,0-1.091,1.091V8.071a2.949,2.949,0,0,1-2.952,2.952H9.754A4.042,4.042,0,0,0,5.72,15.066v.787H2.912V13.322A4.044,4.044,0,0,1,6.955,9.279" transform="translate(23.133 23.904)" fill="#e5e5e5"/>
        <path id="Trazado_1262792" data-name="Trazado 1262792" d="M2.913,7.721A4.04,4.04,0,0,1,6.446,3.714,6.139,6.139,0,0,1,9.067,8.75a5.963,5.963,0,0,1-.188,1.5H2.913Z" transform="translate(23.141 29.504)" fill="#0a4666"/>
        <path id="Trazado_1262793" data-name="Trazado 1262793" d="M9.067,5.508A6.034,6.034,0,0,1,8.879,7.02H2.913V4.48c0-.116.009-.241.018-.358H8.906A5.938,5.938,0,0,1,9.067,5.508Z" transform="translate(23.141 32.746)" fill="#aaca79"/>
        <path id="Trazado_1262794" data-name="Trazado 1262794" d="M4.471,10.149A4.926,4.926,0,0,1,9.148,3.727v6.422Z" transform="translate(33.667 29.608)" fill="#0a4666"/>
        <path id="Trazado_1262795" data-name="Trazado 1262795" d="M9.156,7.019H4.478a4.953,4.953,0,0,1-.241-1.512,4.771,4.771,0,0,1,.206-1.386H9.156Z" transform="translate(33.659 32.738)" fill="#aaca79"/>
        <path id="Trazado_1262796" data-name="Trazado 1262796" d="M5.9,7.2H9.489a1.073,1.073,0,0,0,1.073-1.082V4.277H4.06L4.892,6.5A1.062,1.062,0,0,0,5.9,7.2Z" transform="translate(32.253 33.977)" fill="#d3d3d3"/>
        <path id="Trazado_1262797" data-name="Trazado 1262797" d="M10.336,7.2H4A1.088,1.088,0,0,1,2.912,6.119V4.277L12.3,5.789,11.069,6.916A1.066,1.066,0,0,1,10.336,7.2Z" transform="translate(23.133 33.977)" fill="#d3d3d3"/>
        <rect id="Rectángulo_460997" data-name="Rectángulo 460997" width="16.77" height="1.512" transform="translate(26.054 38.254)" fill="#dcdcdc"/>
        <path id="Trazado_1262798" data-name="Trazado 1262798" d="M9.336,6.2h-5.1V3.009h5.1a1.08,1.08,0,0,1,1.082,1.082V5.12A1.08,1.08,0,0,1,9.336,6.2Z" transform="translate(33.667 23.904)" fill="#0a4666"/>
        <path id="Trazado_1262799" data-name="Trazado 1262799" d="M10.418,3.127V4.182A1.08,1.08,0,0,1,9.336,5.265h-5.1V4.182h5.1a1.087,1.087,0,0,0,1.082-1.055" transform="translate(33.667 24.841)" fill="#aaca79"/>
        <path id="Trazado_1262800" data-name="Trazado 1262800" d="M4.5,5.639a.373.373,0,0,0,.25-.465L4.367,3.895a.381.381,0,0,0-.465-.25.373.373,0,0,0-.25.465l.385,1.279a.373.373,0,0,0,.465.25" transform="translate(28.87 28.841)" fill="#0a4666"/>
        <path id="Trazado_1262801" data-name="Trazado 1262801" d="M3.978,4.742a.376.376,0,0,0,.716.009l.054.2a.373.373,0,0,1-.25.465.381.381,0,0,1-.465-.25L3.647,3.884a.379.379,0,0,1,.009-.224Z" transform="translate(28.874 29.075)" fill="#36dbe6"/>
        <path id="Trazado_1262802" data-name="Trazado 1262802" d="M5.2,5.267a.381.381,0,0,0,.072-.528L4.457,3.683a.381.381,0,0,0-.528-.063.371.371,0,0,0-.072.519L4.672,5.2a.375.375,0,0,0,.528.072" transform="translate(30.049 28.14)" fill="#0a4666"/>
        <path id="Trazado_1262803" data-name="Trazado 1262803" d="M3.924,3.551A.37.37,0,0,0,4,3.757l.814,1.055a.371.371,0,0,0,.519.072h.009a.381.381,0,0,1-.152.313.37.37,0,0,1-.519-.063L3.862,4.07a.37.37,0,0,1,.063-.519" transform="translate(30.054 28.209)" fill="#36dbe6"/>
        <path id="Trazado_1262804" data-name="Trazado 1262804" d="M5.8,4.467a.374.374,0,0,0-.188-.492L4.4,3.43a.374.374,0,0,0-.492.188.367.367,0,0,0,.188.492l1.216.546A.367.367,0,0,0,5.8,4.467" transform="translate(30.76 26.998)" fill="#0a4666"/>
        <path id="Trazado_1262805" data-name="Trazado 1262805" d="M4.022,3.526l1.207.546a.387.387,0,0,0,.5-.188l.018-.054a.355.355,0,0,1,.063.394.37.37,0,0,1-.492.2L4.1,3.875a.408.408,0,0,1-.224-.447.457.457,0,0,0,.143.1" transform="translate(30.753 27.232)" fill="#36dbe6"/>
        <path id="Trazado_1262806" data-name="Trazado 1262806" d="M5.955,3.787a.367.367,0,0,0-.331-.411L4.3,3.224a.367.367,0,0,0-.411.331.372.372,0,0,0,.331.411l1.324.152a.378.378,0,0,0,.411-.331" transform="translate(30.868 25.585)" fill="#0a4666"/>
        <path id="Trazado_1262807" data-name="Trazado 1262807" d="M3.887,3.448a.344.344,0,0,1,.1-.215.4.4,0,0,0,.322.268l1.324.143a.359.359,0,0,0,.313-.107.387.387,0,0,1,.009.143.367.367,0,0,1-.411.331L4.218,3.859A.373.373,0,0,1,3.887,3.448Z" transform="translate(30.869 25.683)" fill="#36dbe6"/>
        <path id="Trazado_1262808" data-name="Trazado 1262808" d="M39.627,16.463H8.806A2.313,2.313,0,0,1,6.5,14.155V8.378A2.315,2.315,0,0,1,8.806,6.061H39.627a2.309,2.309,0,0,1,2.308,2.317v5.778a2.307,2.307,0,0,1-2.308,2.308" transform="translate(51.621 48.149)" fill="#576577"/>
        <path id="Trazado_1262809" data-name="Trazado 1262809" d="M39.627,8.983H8.806A2.313,2.313,0,0,1,6.5,6.675V9.269a2.315,2.315,0,0,0,2.308,2.317H39.627a2.309,2.309,0,0,0,2.308-2.317V6.675a2.307,2.307,0,0,1-2.308,2.308" transform="translate(51.621 53.027)" fill="#aaca79"/>
        <path id="Trazado_1262810" data-name="Trazado 1262810" d="M119.352.543H4.322A2.493,2.493,0,0,0,1.836,3.029v3.05a2.5,2.5,0,0,1,2.486-2.5h115.03a2.489,2.489,0,0,1,2.486,2.5V3.029A2.476,2.476,0,0,0,119.352.543Z" transform="translate(14.585 4.314)" fill="#d3d3d3"/>
        <path id="Trazado_1262811" data-name="Trazado 1262811" d="M11.127,14.261a2.9,2.9,0,1,1,2.907-2.907,2.907,2.907,0,0,1-2.907,2.907" transform="translate(65.3 67.175)" fill="#12263f"/>
        <path id="Trazado_1262812" data-name="Trazado 1262812" d="M6.4,9.346l1.064,1.9a4.978,4.978,0,0,0,4.338,2.54H39.291a4.978,4.978,0,0,0,4.338-2.54l1.064-1.9Z" transform="translate(50.874 74.245)" fill="#12263f"/>
        <path id="Trazado_1262813" data-name="Trazado 1262813" d="M12.183,8.13l.313.313-6.61,6.628a3.547,3.547,0,0,0,0,5.044l4.535,4.544a3.59,3.59,0,0,0,5.053,0l6.61-6.628,3.229,3.229a2.58,2.58,0,0,0,4.4-1.664l.68-11.466Z" transform="translate(38.396 64.585)" fill="#d3d3d3"/>
        <path id="Trazado_1262814" data-name="Trazado 1262814" d="M10.936,7.884,28,6.864A2.573,2.573,0,0,1,30.72,9.583L29.7,26.648a2.57,2.57,0,0,1-4.383,1.673l-3.229-3.238-6.619,6.628a3.563,3.563,0,0,1-5.044,0L5.874,27.167a3.579,3.579,0,0,1,0-5.044L12.5,15.5,9.272,12.266a2.566,2.566,0,0,1,1.664-4.383" transform="translate(38.4 54.492)" fill="#0a4666"/>
        <path id="Trazado_1262815" data-name="Trazado 1262815" d="M12.641,17.906,8.1,13.362a3.563,3.563,0,0,1,0-5.044L5.879,10.536a3.563,3.563,0,0,0,0,5.044l4.544,4.544a3.563,3.563,0,0,0,5.044,0l2.218-2.218a3.563,3.563,0,0,1-5.044,0" transform="translate(38.394 66.079)" fill="#aaca79"/>
        <path id="Trazado_1262816" data-name="Trazado 1262816" d="M9.229,14.57l2.218-2.218L8.218,9.123a2.531,2.531,0,0,1-.733-2.147A2.571,2.571,0,0,0,6,11.341Z" transform="translate(41.672 55.418)" fill="#aaca79"/>
        <path id="Trazado_1262817" data-name="Trazado 1262817" d="M12.21,11.878,8.981,8.649,6.763,10.867,9.992,14.1a2.568,2.568,0,0,0,4.365-1.485,2.531,2.531,0,0,1-2.147-.733" transform="translate(53.726 68.708)" fill="#aaca79"/>
      </g>
    </g>
    <g id="Grupo_1204443" data-name="Grupo 1204443" transform="translate(354.91 2446.729)">
      <g id="Grupo_1204441-2" data-name="Grupo 1204441" transform="translate(0 0)" clip-path="url(#clip-path)">
        <path id="Trazado_1262728-2" data-name="Trazado 1262728" d="M130.511,83.591H1.323V4.982A4.983,4.983,0,0,1,6.3,0H125.53a4.983,4.983,0,0,1,4.982,4.982Z" transform="translate(10.51 0)" fill="#dadada"/>
        <path id="Trazado_1262729-2" data-name="Trazado 1262729" d="M146.665,21.724H6.189a6.189,6.189,0,1,1,0-12.379H146.665a6.189,6.189,0,0,1,0,12.379" transform="translate(0 74.237)" fill="#dedede"/>
        <path id="Trazado_1262730-2" data-name="Trazado 1262730" d="M146.665,13.412H6.189A6.172,6.172,0,0,1,.555,9.754a6.165,6.165,0,0,0,5.635,8.72H146.665a6.165,6.165,0,0,0,5.635-8.72,6.187,6.187,0,0,1-5.635,3.658" transform="translate(0 77.487)" fill="#d3d3d3"/>
        <rect id="Rectángulo_460996-2" data-name="Rectángulo 460996" width="120.003" height="67.868" rx="0.278" transform="translate(16.422 4.849)" fill="#fff"/>
        <path id="Trazado_1262731-2" data-name="Trazado 1262731" d="M8.512,22.271H40.835a4.393,4.393,0,0,0,4.392-4.624c-.134-2.665-.34-6-.617-8.667A2.76,2.76,0,0,0,41.47,6.538L37.49,8.05a8.02,8.02,0,0,1-2.567.3l-.644-.036c-2.844-.125-6.064-4.043-7.021-5.295a1.1,1.1,0,0,0-.769-.42,1.02,1.02,0,0,0-1.109,1.02V6.288a4.323,4.323,0,0,1-3.712,4.275l-7.5,1.064c-7.558.894-7.808,6.958-7.933,8.112a2.289,2.289,0,0,0,2.281,2.531" transform="translate(49.384 20.643)" fill="#36dbe6"/>
        <path id="Trazado_1262732-2" data-name="Trazado 1262732" d="M17.121,6.937a7.988,7.988,0,0,1-2.558.3l-.644-.027C12.3,7.134,10.574,5.846,9.2,4.514a4.062,4.062,0,0,0,1.4.331l.644.036a8,8,0,0,0,2.558-.3l3.98-1.512a2.758,2.758,0,0,1,3.139,2.424Z" transform="translate(73.062 24.116)" fill="#0a4666"/>
        <path id="Trazado_1262733-2" data-name="Trazado 1262733" d="M6.23,19.74c.125-1.163.376-7.218,7.942-8.112l7.5-1.064a4.326,4.326,0,0,0,3.721-4.284V3.613A1.013,1.013,0,0,1,26.5,2.6a1.1,1.1,0,0,1,.769.42A24.613,24.613,0,0,0,29.1,5.161a1.026,1.026,0,0,0-.394.814V8.64a4.316,4.316,0,0,1-3.721,4.275l-7.5,1.064c-7.567.894-7.817,6.959-7.942,8.121l-.009.17H8.519A2.291,2.291,0,0,1,6.23,19.74Z" transform="translate(49.376 20.643)" fill="#0a4666"/>
        <path id="Trazado_1262734-2" data-name="Trazado 1262734" d="M8.231,4.519A1.27,1.27,0,1,0,9.5,3.249a1.275,1.275,0,0,0-1.27,1.27" transform="translate(65.388 25.81)" fill="#fff"/>
        <path id="Trazado_1262735-2" data-name="Trazado 1262735" d="M7.779,4.774A1.27,1.27,0,1,0,9.049,3.5a1.275,1.275,0,0,0-1.27,1.27" transform="translate(61.797 27.836)" fill="#fff"/>
        <path id="Trazado_1262736-2" data-name="Trazado 1262736" d="M7.243,4.851a1.27,1.27,0,1,0,1.27-1.27,1.275,1.275,0,0,0-1.27,1.27" transform="translate(57.539 28.448)" fill="#fff"/>
        <path id="Trazado_1262737-2" data-name="Trazado 1262737" d="M7.6,5.661,7.285,4.48a.8.8,0,0,1,1.547-.4l.3,1.172A.8.8,0,1,1,7.6,5.661Z" transform="translate(57.676 27.7)" fill="#576577"/>
        <path id="Trazado_1262738-2" data-name="Trazado 1262738" d="M7.6,4.343a.8.8,0,0,0,1.449.215l.089.358A.8.8,0,1,1,7.6,5.327L7.283,4.146a.855.855,0,0,1,.089-.617Z" transform="translate(57.678 28.035)" fill="#38495e"/>
        <path id="Trazado_1262739-2" data-name="Trazado 1262739" d="M8.444,3.42a.8.8,0,0,1,.823.429l.528,1.055a.8.8,0,0,1-.367,1.064.792.792,0,0,1-1.064-.358L7.845,4.565a.8.8,0,0,1,.6-1.145" transform="translate(61.651 27.115)" fill="#576577"/>
        <path id="Trazado_1262740-2" data-name="Trazado 1262740" d="M8.362,4.411a.8.8,0,0,0,1.064.367.838.838,0,0,0,.322-.286l.045.089a.8.8,0,0,1-1.431.707L7.843,4.241a.793.793,0,0,1,.045-.787Z" transform="translate(61.643 27.439)" fill="#38495e"/>
        <path id="Trazado_1262741-2" data-name="Trazado 1262741" d="M8.316,3.514a.794.794,0,0,1,1.127-.161l1.109.877A.8.8,0,0,1,9.577,5.49L8.459,4.6a.777.777,0,0,1-.152-1.073Z" transform="translate(64.802 25.313)" fill="#576577"/>
        <path id="Trazado_1262742-2" data-name="Trazado 1262742" d="M8.458,3.427,9.576,4.3a.788.788,0,0,0,1.118-.134l.054-.072A.8.8,0,0,1,9.576,5.144L8.458,4.268A.781.781,0,0,1,8.279,3.23a.745.745,0,0,0,.179.2" transform="translate(64.794 25.659)" fill="#38495e"/>
        <path id="Trazado_1262743-2" data-name="Trazado 1262743" d="M26.6,3.412c.233,2.5.411,5.411.528,7.781a4.391,4.391,0,0,1-4.383,4.624H8.493l5.331-2.156A28.559,28.559,0,0,0,26.6,3.412Z" transform="translate(67.469 27.105)" fill="#38495e"/>
        <path id="Trazado_1262744-2" data-name="Trazado 1262744" d="M13.035,3.629l.277.948A3.028,3.028,0,0,0,16.55,6.733l5.787-.626a18.233,18.233,0,0,1,15.2,5.581l2.281,2.4H8.518a2.293,2.293,0,0,1-2.29-2.522A8.131,8.131,0,0,1,13.035,3.629Z" transform="translate(49.377 28.829)" fill="#576577"/>
        <path id="Trazado_1262745-2" data-name="Trazado 1262745" d="M6.462,6.286A2.294,2.294,0,0,0,8.511,7.538H40.843a4.4,4.4,0,0,0,4.293-3.452c.036.608.063,1.19.1,1.744a4.4,4.4,0,0,1-4.392,4.624H8.511A2.289,2.289,0,0,1,6.23,7.923,14.84,14.84,0,0,1,6.462,6.286Z" transform="translate(49.376 32.46)" fill="#38495e"/>
        <path id="Trazado_1262746-2" data-name="Trazado 1262746" d="M6.23,5.969V5.942l.027-.259V5.665l.009-.027V5.611l.009-.08V5.513l.009-.08V5.414l.009-.027V5.334L6.3,5.325V5.289l.009-.072V5.191l.009-.027V5.146L6.328,5.1V5.092l.009-.045V5.021l.009-.027V4.967l.009-.036V4.913l.009-.045V4.842l.009-.027V4.788l.009-.036.009-.036V4.69L6.4,4.654V4.627l.009-.036.009-.027.009-.045V4.5l.009-.045.009-.018.009-.054V4.377l.009-.045A2.314,2.314,0,0,0,8.519,5.584H37.033c.179.161.34.331.51.51L39.824,8.5H8.519A2.291,2.291,0,0,1,6.23,5.969Z" transform="translate(49.376 34.414)" fill="#38495e"/>
        <path id="Trazado_1262747-2" data-name="Trazado 1262747" d="M6.273,5.984A2.305,2.305,0,0,0,8.518,7.772H40.842c2.272,0,4.383-3.622,4.392-3.488a4.393,4.393,0,0,1-4.392,4.624H8.518a2.3,2.3,0,0,1-2.29-2.531C6.246,6.279,6.255,6.145,6.273,5.984Z" transform="translate(49.377 34.005)" fill="#576577"/>
        <path id="Trazado_1262748-2" data-name="Trazado 1262748" d="M12.227,4.8H9.7l.259,1.279c.063.313.188.5.322.5h1.359c.134,0,.259-.188.322-.5Z" transform="translate(77.097 38.116)" fill="#fff"/>
        <path id="Trazado_1262749-2" data-name="Trazado 1262749" d="M11.426,4.8H9.753l.17,1.279c.045.313.125.5.215.5h.9c.089,0,.17-.188.215-.5Z" transform="translate(77.479 38.116)" fill="#fff"/>
        <path id="Trazado_1262750-2" data-name="Trazado 1262750" d="M10.243,5.4h2.415a.6.6,0,0,0,.6-.6H9.644a.6.6,0,0,0,.6.6" transform="translate(76.613 38.124)" fill="#aaca79"/>
        <path id="Trazado_1262751-2" data-name="Trazado 1262751" d="M10.2,5.406h1.324A.473.473,0,0,0,12,4.923V4.8H9.718v.125a.487.487,0,0,0,.483.483" transform="translate(77.201 38.116)" fill="#0a4666"/>
        <path id="Trazado_1262752-2" data-name="Trazado 1262752" d="M11.666,4.8H9.144L9.4,6.077c.063.313.188.5.322.5h1.36c.134,0,.259-.188.322-.5Z" transform="translate(72.641 38.116)" fill="#fff"/>
        <path id="Trazado_1262753-2" data-name="Trazado 1262753" d="M10.865,4.8H9.192l.17,1.279c.045.313.125.5.215.5h.9c.089,0,.17-.188.206-.5Z" transform="translate(73.022 38.116)" fill="#fff"/>
        <path id="Trazado_1262754-2" data-name="Trazado 1262754" d="M9.691,5.4h2.415a.6.6,0,0,0,.6-.6H9.083a.607.607,0,0,0,.608.6" transform="translate(72.156 38.124)" fill="#aaca79"/>
        <path id="Trazado_1262755-2" data-name="Trazado 1262755" d="M9.64,5.4h1.333a.479.479,0,0,0,.474-.483V4.8H9.157v.116A.481.481,0,0,0,9.64,5.4Z" transform="translate(72.744 38.124)" fill="#0a4666"/>
        <path id="Trazado_1262756-2" data-name="Trazado 1262756" d="M10.175,4.8H7.653l.259,1.279c.063.313.188.5.322.5h1.36c.134,0,.259-.188.322-.5Z" transform="translate(60.796 38.116)" fill="#fff"/>
        <path id="Trazado_1262757-2" data-name="Trazado 1262757" d="M9.374,4.8H7.7l.17,1.279c.045.313.125.5.215.5h.9c.089,0,.17-.188.206-.5Z" transform="translate(61.177 38.116)" fill="#fff"/>
        <path id="Trazado_1262758-2" data-name="Trazado 1262758" d="M8.191,5.4h2.415a.6.6,0,0,0,.6-.6H7.592A.6.6,0,0,0,8.191,5.4Z" transform="translate(60.312 38.124)" fill="#aaca79"/>
        <path id="Trazado_1262759-2" data-name="Trazado 1262759" d="M8.152,5.4H9.565a.49.49,0,0,0,.492-.492V4.8H7.66v.107A.5.5,0,0,0,8.152,5.4Z" transform="translate(60.852 38.124)" fill="#0a4666"/>
        <path id="Trazado_1262760-2" data-name="Trazado 1262760" d="M9.657,4.8H7.135l.259,1.279c.072.313.188.5.322.5h1.36c.134,0,.259-.188.322-.5Z" transform="translate(56.681 38.116)" fill="#fff"/>
        <path id="Trazado_1262761-2" data-name="Trazado 1262761" d="M8.856,4.8H7.183l.17,1.279c.045.313.125.5.215.5h.9c.089,0,.17-.188.206-.5Z" transform="translate(57.062 38.116)" fill="#fff"/>
        <path id="Trazado_1262762-2" data-name="Trazado 1262762" d="M7.665,5.4H10.08a.594.594,0,0,0,.6-.6h-3.6A.592.592,0,0,0,7.665,5.4Z" transform="translate(56.204 38.124)" fill="#aaca79"/>
        <path id="Trazado_1262763-2" data-name="Trazado 1262763" d="M7.623,5.4H8.956a.483.483,0,0,0,.474-.474V4.8H7.149v.125a.483.483,0,0,0,.474.474" transform="translate(56.792 38.124)" fill="#0a4666"/>
        <path id="Trazado_1262764-2" data-name="Trazado 1262764" d="M9.042,4.8H6.52l.259,1.279c.063.313.188.5.322.5h1.36c.134,0,.259-.188.322-.5Z" transform="translate(51.795 38.116)" fill="#fff"/>
        <path id="Trazado_1262765-2" data-name="Trazado 1262765" d="M8.241,4.8H6.568l.17,1.279c.045.313.125.5.215.5h.9c.089,0,.17-.188.215-.5Z" transform="translate(52.177 38.116)" fill="#fff"/>
        <path id="Trazado_1262766-2" data-name="Trazado 1262766" d="M7.059,5.4H9.474a.6.6,0,0,0,.6-.6H6.46A.6.6,0,0,0,7.059,5.4Z" transform="translate(51.319 38.124)" fill="#aaca79"/>
        <path id="Trazado_1262767-2" data-name="Trazado 1262767" d="M7.015,5.4h1.36a.481.481,0,0,0,.483-.483V4.8H6.532v.116a.481.481,0,0,0,.483.483" transform="translate(51.891 38.124)" fill="#0a4666"/>
        <path id="Trazado_1262768-2" data-name="Trazado 1262768" d="M12.083,6.929a6.863,6.863,0,0,0,2.164.25l.555-.027c1.368-.063,2.826-1.145,3.98-2.272a3.544,3.544,0,0,1-1.181.277l-.546.027a6.8,6.8,0,0,1-2.164-.25L11.519,3.655A2.322,2.322,0,0,0,8.872,5.7Z" transform="translate(70.48 28.83)" fill="#fff"/>
        <path id="Trazado_1262769-2" data-name="Trazado 1262769" d="M10.392,3.644A2.245,2.245,0,0,0,10.008,4.7l3.211,1.225a6.86,6.86,0,0,0,2.173.25l.546-.027a4.744,4.744,0,0,0,2.308-.894A6.212,6.212,0,0,1,14.8,7.034l-.546.027A6.866,6.866,0,0,1,12.083,6.8L8.872,5.585A2.312,2.312,0,0,1,10.392,3.644Z" transform="translate(70.48 28.948)" fill="#fff"/>
        <path id="Trazado_1262770-2" data-name="Trazado 1262770" d="M14.393,13.672H34.437a1.959,1.959,0,0,0,1.825-1.252,7.852,7.852,0,0,0-1.923-8.542A1.917,1.917,0,0,0,33,3.342H25.153a1.932,1.932,0,0,0-1.565.787l-1.422,1.9a1.948,1.948,0,0,1-1.154.742L12.98,8.512a1.956,1.956,0,0,0-1.064,2.835L12.7,12.7A1.961,1.961,0,0,0,14.393,13.672Z" transform="translate(92.56 26.549)" fill="#0a4666"/>
        <path id="Trazado_1262771-2" data-name="Trazado 1262771" d="M12.975,8.512l8.032-1.744a1.877,1.877,0,0,0,1.145-.742l1.431-1.9a1.944,1.944,0,0,1,1.565-.787h7.844a1.917,1.917,0,0,1,1.342.537c.116.116.241.233.349.358a1.958,1.958,0,0,0-.912-.241H25.917a1.94,1.94,0,0,0-1.556.787l-1.431,1.9a1.877,1.877,0,0,1-1.145.742L13.753,9.165A1.965,1.965,0,0,0,12.68,12l.8,1.351.08.134A1.92,1.92,0,0,1,12.7,12.7l-.787-1.351A1.967,1.967,0,0,1,12.975,8.512Z" transform="translate(92.565 26.549)" fill="#a6cdec"/>
        <path id="Trazado_1262772-2" data-name="Trazado 1262772" d="M13.978,6.589a2.84,2.84,0,0,1,2.844-2.844h1.029a7.848,7.848,0,0,1-.072,5.474,1.968,1.968,0,0,1-1.825,1.252H13.978Z" transform="translate(111.042 29.751)" fill="#576577"/>
        <path id="Trazado_1262773-2" data-name="Trazado 1262773" d="M13.267,6.557A3.108,3.108,0,1,0,16.38,3.444a3.115,3.115,0,0,0-3.113,3.113" transform="translate(105.394 27.359)" fill="#aaca79"/>
        <path id="Trazado_1262774-2" data-name="Trazado 1262774" d="M16.38,4.142a3.1,3.1,0,0,0-3.086,2.764,2.29,2.29,0,0,1-.027-.349,3.113,3.113,0,0,1,6.225,0,2.29,2.29,0,0,1-.027.349A3.1,3.1,0,0,0,16.38,4.142Z" transform="translate(105.394 27.359)" fill="#36dbe6"/>
        <path id="Trazado_1262775-2" data-name="Trazado 1262775" d="M13.671,5.51h2.111a.2.2,0,0,0,.161-.322l-1.055-1.4a.2.2,0,0,0-.322,0l-1.055,1.4a.2.2,0,0,0,.161.322" transform="translate(107.002 29.417)" fill="#0a4666"/>
        <path id="Trazado_1262776-2" data-name="Trazado 1262776" d="M13.711,3.839h2.03l.206.268a.2.2,0,0,1-.17.322h-2.1a.2.2,0,0,1-.161-.322Z" transform="translate(106.999 30.497)" fill="#36dbe6"/>
        <path id="Trazado_1262777-2" data-name="Trazado 1262777" d="M15.2,9.029,13.973,5.451,15.5,5.12l1.359,3.971,2.245.089L16.9,4.825l1.565-.34,2.424,4.767,2.567.1L19.786,4.2l.832-.188a2.026,2.026,0,0,0,.724-.322l3.792,5.34a.985.985,0,0,0,.179-.25,1.089,1.089,0,0,1,.975-.608h9.991a7.848,7.848,0,0,1-.4,1.476,1.974,1.974,0,0,1-1.834,1.27H14a1.956,1.956,0,0,1-1.7-.975l-.6-1.046Z" transform="translate(92.954 29.306)" fill="#576577"/>
        <path id="Trazado_1262778-2" data-name="Trazado 1262778" d="M12.148,4.288a2.215,2.215,0,0,0,.152.331l.787,1.351.089.134a2.008,2.008,0,0,1-.832-.716V5.379l-.018-.027V5.343l-.018-.018V5.316L11.7,4.27Z" transform="translate(92.954 33.921)" fill="#6c7888"/>
        <path id="Trazado_1262779-2" data-name="Trazado 1262779" d="M14.232,4.519l-1.574.34-.376-.742,1.574-.34Z" transform="translate(97.568 30.002)" fill="#6c7888"/>
        <path id="Trazado_1262780-2" data-name="Trazado 1262780" d="M14.161,3.689l.563.787a1.751,1.751,0,0,1-.51.188l-1.1.241-.51-.716.385-.08.447-.1A1.959,1.959,0,0,0,14.161,3.689Z" transform="translate(100.135 29.306)" fill="#6c7888"/>
        <path id="Trazado_1262781-2" data-name="Trazado 1262781" d="M13.753,4.609l-1.529.331-.268-.76,1.538-.331Z" transform="translate(94.972 30.578)" fill="#6c7888"/>
        <path id="Trazado_1262782-2" data-name="Trazado 1262782" d="M12.309,5.183A1.942,1.942,0,0,0,14,6.158H34.052a1.974,1.974,0,0,0,1.834-1.27,7.006,7.006,0,0,0,.224-.7h.179a8.815,8.815,0,0,1-.4,1.476,1.974,1.974,0,0,1-1.834,1.27H14a1.961,1.961,0,0,1-1.69-.975L11.7,4.914l.465.018Z" transform="translate(92.954 33.286)" fill="#aaca79"/>
        <path id="Trazado_1262783-2" data-name="Trazado 1262783" d="M15.867,9.219a7.875,7.875,0,0,0,.08-5.447,2.529,2.529,0,0,1,.367-.027h1.038a7.849,7.849,0,0,1-.08,5.474,1.95,1.95,0,0,1-1.825,1.252h-1.4A1.968,1.968,0,0,0,15.867,9.219Z" transform="translate(111.551 29.751)" fill="#aaca79"/>
        <path id="Trazado_1262784-2" data-name="Trazado 1262784" d="M12.939,8.7l1.977.447,1.118-4.91a1.037,1.037,0,0,0-.787-1.243l-.626-.143a.34.34,0,0,0-.411.259Z" transform="translate(102.789 22.545)" fill="#a6cdec"/>
        <path id="Trazado_1262785-2" data-name="Trazado 1262785" d="M14.165,4.073a1.039,1.039,0,0,0-.671-1.207.3.3,0,0,1,.2-.018l.626.143A1.037,1.037,0,0,1,15.1,4.234l-1.118,4.91-.93-.206Z" transform="translate(103.718 22.545)" fill="#0a4666"/>
        <path id="Trazado_1262786-2" data-name="Trazado 1262786" d="M14.084,5.35H14.1a.189.189,0,0,0,.179-.241l-.233-.733a.191.191,0,0,0-.179-.134H13.86a.186.186,0,0,0-.179.25l.224.724a.191.191,0,0,0,.179.134" transform="translate(108.593 33.691)" fill="#12263f"/>
        <path id="Trazado_1262787-2" data-name="Trazado 1262787" d="M14.01,5.35h.009a.181.181,0,0,0,.179-.241l-.224-.733a.191.191,0,0,0-.179-.134h-.018a.193.193,0,0,0-.179.25l.233.724a.191.191,0,0,0,.179.134" transform="translate(107.969 33.691)" fill="#12263f"/>
        <path id="Trazado_1262788-2" data-name="Trazado 1262788" d="M13.932,5.35h.009a.181.181,0,0,0,.179-.241L13.9,4.375a.191.191,0,0,0-.179-.134H13.7a.193.193,0,0,0-.179.25l.233.724A.191.191,0,0,0,13.932,5.35Z" transform="translate(107.349 33.691)" fill="#12263f"/>
        <path id="Trazado_1262789-2" data-name="Trazado 1262789" d="M11.963,6.327V4.1a1.082,1.082,0,0,1,1.082-1.091H18.6A1.082,1.082,0,0,1,19.682,4.1V15.862H2.912v-2.54A4.042,4.042,0,0,1,6.955,9.288H9A2.97,2.97,0,0,0,11.963,6.327Z" transform="translate(23.133 23.904)" fill="#e2e2e2"/>
        <path id="Trazado_1262790-2" data-name="Trazado 1262790" d="M4.509,3.009h1.4A1.088,1.088,0,0,1,7,4.091v11.77H5.591V4.091A1.08,1.08,0,0,0,4.509,3.009" transform="translate(35.82 23.904)" fill="#dcdcdc"/>
        <path id="Trazado_1262791-2" data-name="Trazado 1262791" d="M6.955,9.279H9a2.958,2.958,0,0,0,2.96-2.96V4.091a1.08,1.08,0,0,1,1.082-1.082H18.6a1.08,1.08,0,0,1,1.082,1.082v.662H15.854a1.1,1.1,0,0,0-1.091,1.091V8.071a2.949,2.949,0,0,1-2.952,2.952H9.754A4.042,4.042,0,0,0,5.72,15.066v.787H2.912V13.322A4.044,4.044,0,0,1,6.955,9.279" transform="translate(23.133 23.904)" fill="#e5e5e5"/>
        <path id="Trazado_1262792-2" data-name="Trazado 1262792" d="M2.913,7.721A4.04,4.04,0,0,1,6.446,3.714,6.139,6.139,0,0,1,9.067,8.75a5.963,5.963,0,0,1-.188,1.5H2.913Z" transform="translate(23.141 29.504)" fill="#0a4666"/>
        <path id="Trazado_1262793-2" data-name="Trazado 1262793" d="M9.067,5.508A6.034,6.034,0,0,1,8.879,7.02H2.913V4.48c0-.116.009-.241.018-.358H8.906A5.938,5.938,0,0,1,9.067,5.508Z" transform="translate(23.141 32.746)" fill="#aaca79"/>
        <path id="Trazado_1262794-2" data-name="Trazado 1262794" d="M4.471,10.149A4.926,4.926,0,0,1,9.148,3.727v6.422Z" transform="translate(33.667 29.608)" fill="#0a4666"/>
        <path id="Trazado_1262795-2" data-name="Trazado 1262795" d="M9.156,7.019H4.478a4.953,4.953,0,0,1-.241-1.512,4.771,4.771,0,0,1,.206-1.386H9.156Z" transform="translate(33.659 32.738)" fill="#aaca79"/>
        <path id="Trazado_1262796-2" data-name="Trazado 1262796" d="M5.9,7.2H9.489a1.073,1.073,0,0,0,1.073-1.082V4.277H4.06L4.892,6.5A1.062,1.062,0,0,0,5.9,7.2Z" transform="translate(32.253 33.977)" fill="#d3d3d3"/>
        <path id="Trazado_1262797-2" data-name="Trazado 1262797" d="M10.336,7.2H4A1.088,1.088,0,0,1,2.912,6.119V4.277L12.3,5.789,11.069,6.916A1.066,1.066,0,0,1,10.336,7.2Z" transform="translate(23.133 33.977)" fill="#d3d3d3"/>
        <rect id="Rectángulo_460997-2" data-name="Rectángulo 460997" width="16.77" height="1.512" transform="translate(26.054 38.254)" fill="#dcdcdc"/>
        <path id="Trazado_1262798-2" data-name="Trazado 1262798" d="M9.336,6.2h-5.1V3.009h5.1a1.08,1.08,0,0,1,1.082,1.082V5.12A1.08,1.08,0,0,1,9.336,6.2Z" transform="translate(33.667 23.904)" fill="#0a4666"/>
        <path id="Trazado_1262799-2" data-name="Trazado 1262799" d="M10.418,3.127V4.182A1.08,1.08,0,0,1,9.336,5.265h-5.1V4.182h5.1a1.087,1.087,0,0,0,1.082-1.055" transform="translate(33.667 24.841)" fill="#aaca79"/>
        <path id="Trazado_1262800-2" data-name="Trazado 1262800" d="M4.5,5.639a.373.373,0,0,0,.25-.465L4.367,3.895a.381.381,0,0,0-.465-.25.373.373,0,0,0-.25.465l.385,1.279a.373.373,0,0,0,.465.25" transform="translate(28.87 28.841)" fill="#0a4666"/>
        <path id="Trazado_1262801-2" data-name="Trazado 1262801" d="M3.978,4.742a.376.376,0,0,0,.716.009l.054.2a.373.373,0,0,1-.25.465.381.381,0,0,1-.465-.25L3.647,3.884a.379.379,0,0,1,.009-.224Z" transform="translate(28.874 29.075)" fill="#36dbe6"/>
        <path id="Trazado_1262802-2" data-name="Trazado 1262802" d="M5.2,5.267a.381.381,0,0,0,.072-.528L4.457,3.683a.381.381,0,0,0-.528-.063.371.371,0,0,0-.072.519L4.672,5.2a.375.375,0,0,0,.528.072" transform="translate(30.049 28.14)" fill="#0a4666"/>
        <path id="Trazado_1262803-2" data-name="Trazado 1262803" d="M3.924,3.551A.37.37,0,0,0,4,3.757l.814,1.055a.371.371,0,0,0,.519.072h.009a.381.381,0,0,1-.152.313.37.37,0,0,1-.519-.063L3.862,4.07a.37.37,0,0,1,.063-.519" transform="translate(30.054 28.209)" fill="#36dbe6"/>
        <path id="Trazado_1262804-2" data-name="Trazado 1262804" d="M5.8,4.467a.374.374,0,0,0-.188-.492L4.4,3.43a.374.374,0,0,0-.492.188.367.367,0,0,0,.188.492l1.216.546A.367.367,0,0,0,5.8,4.467" transform="translate(30.76 26.998)" fill="#0a4666"/>
        <path id="Trazado_1262805-2" data-name="Trazado 1262805" d="M4.022,3.526l1.207.546a.387.387,0,0,0,.5-.188l.018-.054a.355.355,0,0,1,.063.394.37.37,0,0,1-.492.2L4.1,3.875a.408.408,0,0,1-.224-.447.457.457,0,0,0,.143.1" transform="translate(30.753 27.232)" fill="#36dbe6"/>
        <path id="Trazado_1262806-2" data-name="Trazado 1262806" d="M5.955,3.787a.367.367,0,0,0-.331-.411L4.3,3.224a.367.367,0,0,0-.411.331.372.372,0,0,0,.331.411l1.324.152a.378.378,0,0,0,.411-.331" transform="translate(30.868 25.585)" fill="#0a4666"/>
        <path id="Trazado_1262807-2" data-name="Trazado 1262807" d="M3.887,3.448a.344.344,0,0,1,.1-.215.4.4,0,0,0,.322.268l1.324.143a.359.359,0,0,0,.313-.107.387.387,0,0,1,.009.143.367.367,0,0,1-.411.331L4.218,3.859A.373.373,0,0,1,3.887,3.448Z" transform="translate(30.869 25.683)" fill="#36dbe6"/>
        <path id="Trazado_1262808-2" data-name="Trazado 1262808" d="M39.627,16.463H8.806A2.313,2.313,0,0,1,6.5,14.155V8.378A2.315,2.315,0,0,1,8.806,6.061H39.627a2.309,2.309,0,0,1,2.308,2.317v5.778a2.307,2.307,0,0,1-2.308,2.308" transform="translate(51.621 48.149)" fill="#576577"/>
        <path id="Trazado_1262809-2" data-name="Trazado 1262809" d="M39.627,8.983H8.806A2.313,2.313,0,0,1,6.5,6.675V9.269a2.315,2.315,0,0,0,2.308,2.317H39.627a2.309,2.309,0,0,0,2.308-2.317V6.675a2.307,2.307,0,0,1-2.308,2.308" transform="translate(51.621 53.027)" fill="#aaca79"/>
        <path id="Trazado_1262810-2" data-name="Trazado 1262810" d="M119.352.543H4.322A2.493,2.493,0,0,0,1.836,3.029v3.05a2.5,2.5,0,0,1,2.486-2.5h115.03a2.489,2.489,0,0,1,2.486,2.5V3.029A2.476,2.476,0,0,0,119.352.543Z" transform="translate(14.585 4.314)" fill="#d3d3d3"/>
        <path id="Trazado_1262811-2" data-name="Trazado 1262811" d="M11.127,14.261a2.9,2.9,0,1,1,2.907-2.907,2.907,2.907,0,0,1-2.907,2.907" transform="translate(65.3 67.175)" fill="#12263f"/>
        <path id="Trazado_1262812-2" data-name="Trazado 1262812" d="M6.4,9.346l1.064,1.9a4.978,4.978,0,0,0,4.338,2.54H39.291a4.978,4.978,0,0,0,4.338-2.54l1.064-1.9Z" transform="translate(50.874 74.245)" fill="#12263f"/>
        <path id="Trazado_1262813-2" data-name="Trazado 1262813" d="M12.183,8.13l.313.313-6.61,6.628a3.547,3.547,0,0,0,0,5.044l4.535,4.544a3.59,3.59,0,0,0,5.053,0l6.61-6.628,3.229,3.229a2.58,2.58,0,0,0,4.4-1.664l.68-11.466Z" transform="translate(38.396 64.585)" fill="#d3d3d3"/>
        <path id="Trazado_1262814-2" data-name="Trazado 1262814" d="M10.936,7.884,28,6.864A2.573,2.573,0,0,1,30.72,9.583L29.7,26.648a2.57,2.57,0,0,1-4.383,1.673l-3.229-3.238-6.619,6.628a3.563,3.563,0,0,1-5.044,0L5.874,27.167a3.579,3.579,0,0,1,0-5.044L12.5,15.5,9.272,12.266a2.566,2.566,0,0,1,1.664-4.383" transform="translate(38.4 54.492)" fill="#0a4666"/>
        <path id="Trazado_1262815-2" data-name="Trazado 1262815" d="M12.641,17.906,8.1,13.362a3.563,3.563,0,0,1,0-5.044L5.879,10.536a3.563,3.563,0,0,0,0,5.044l4.544,4.544a3.563,3.563,0,0,0,5.044,0l2.218-2.218a3.563,3.563,0,0,1-5.044,0" transform="translate(38.394 66.079)" fill="#aaca79"/>
        <path id="Trazado_1262816-2" data-name="Trazado 1262816" d="M9.229,14.57l2.218-2.218L8.218,9.123a2.531,2.531,0,0,1-.733-2.147A2.571,2.571,0,0,0,6,11.341Z" transform="translate(41.672 55.418)" fill="#aaca79"/>
        <path id="Trazado_1262817-2" data-name="Trazado 1262817" d="M12.21,11.878,8.981,8.649,6.763,10.867,9.992,14.1a2.568,2.568,0,0,0,4.365-1.485,2.531,2.531,0,0,1-2.147-.733" transform="translate(53.726 68.708)" fill="#aaca79"/>
      </g>
    </g>
  </g>
</svg>
