<svg xmlns="http://www.w3.org/2000/svg" xmlns:xlink="http://www.w3.org/1999/xlink" width="299.17" height="225.103" viewBox="0 0 299.17 225.103">
  <defs>
    <clipPath id="clip-path">
      <rect id="Rectángulo_460995" data-name="Rectángulo 460995" width="166.619" height="168.264" fill="none"/>
    </clipPath>
  </defs>
  <g id="Grupo_1205166" data-name="Grupo 1205166" transform="translate(-1020.265 -2650.258)">
    <g id="Grupo_1204431" data-name="Grupo 1204431" transform="translate(789.85 -1969.742)">
      <g id="Grupo_1099952" data-name="Grupo 1099952" transform="translate(12928.802 17229.016)">
        <path id="Trazado_145968" data-name="Trazado 145968" d="M49.9,0a49.895,49.895,0,1,0,49.9,49.895A49.895,49.895,0,0,0,49.9,0Z" transform="translate(-12690.719 -12487.975)" fill="#a6cdec"/>
        <path id="Trazado_145969" data-name="Trazado 145969" d="M34.094,0A34.094,34.094,0,1,0,68.187,34.094,34.094,34.094,0,0,0,34.094,0Z" transform="translate(-12495.28 -12595.998)" fill="#a6cdec"/>
        <rect id="Rectángulo_34812" data-name="Rectángulo 34812" width="299.17" height="224.377" transform="translate(-12698.387 -12608.653)" fill="none"/>
        <path id="Trazado_145967" data-name="Trazado 145967" d="M112.552,0A112.552,112.552,0,1,0,225.1,112.552,112.552,112.552,0,0,0,112.552,0Z" transform="translate(-12661.354 -12609.016)" fill="#88a160"/>
        <path id="Trazado_145971" data-name="Trazado 145971" d="M9.374,0a9.374,9.374,0,1,0,9.374,9.374A9.374,9.374,0,0,0,9.374,0Z" transform="translate(-12454.998 -12421.599)" fill="#0a4666"/>
        <path id="Elipse_4044" data-name="Elipse 4044" d="M12.712,3.436a9.277,9.277,0,1,1-9.277,9.277,9.287,9.287,0,0,1,9.277-9.277m0-3.436A12.712,12.712,0,1,0,25.425,12.712,12.712,12.712,0,0,0,12.712,0Z" transform="translate(-12480.423 -12528.729)" fill="#fff"/>
      </g>
    </g>
    <g id="Grupo_1204440" data-name="Grupo 1204440" transform="translate(1084.455 2679.678)">
      <g id="Grupo_1204439" data-name="Grupo 1204439" transform="translate(0 0)" clip-path="url(#clip-path)">
        <path id="Trazado_1262625" data-name="Trazado 1262625" d="M59.032,5.293V3.912a1.523,1.523,0,0,0-1.524-1.524H28.921a1.523,1.523,0,0,0-1.526,1.524V5.293l-2.014,7.178H60.793Z" transform="translate(41.523 3.908)" fill="#12263f"/>
        <path id="Trazado_1262626" data-name="Trazado 1262626" d="M72.234,65.786H25.745a3.971,3.971,0,0,1-3.972-3.97V53.492A18.127,18.127,0,0,1,39.9,35.367H58.079A18.125,18.125,0,0,1,76.2,53.492v8.325A3.971,3.971,0,0,1,72.234,65.786Z" transform="translate(35.621 57.861)" fill="#12263f"/>
        <path id="Trazado_1262627" data-name="Trazado 1262627" d="M39.4,36.546V63.858h4a3.971,3.971,0,0,0,3.972-3.97V51.566A18.106,18.106,0,0,0,39.4,36.546Z" transform="translate(64.454 59.79)" fill="#1e3e60"/>
        <path id="Trazado_1262628" data-name="Trazado 1262628" d="M48.095,36.833l-5.483-2.362v2.362l-4.386,6.835-4.386-6.835V34.471l-5.486,2.362,9.872,26.779Z" transform="translate(46.386 56.395)" fill="#606060"/>
        <path id="Trazado_1262629" data-name="Trazado 1262629" d="M28.354,36.834,32.5,48.069a.661.661,0,0,0,1.089.237l4.637-4.637-4.386-6.835V34.47Z" transform="translate(46.387 56.394)" fill="#d3d3d3"/>
        <path id="Trazado_1262630" data-name="Trazado 1262630" d="M41.967,36.834,37.826,48.069a.663.663,0,0,1-1.091.237L32.1,43.67l4.386-6.835V34.47Z" transform="translate(52.512 56.394)" fill="#d3d3d3"/>
        <path id="Trazado_1262631" data-name="Trazado 1262631" d="M34.82,33.54a13.866,13.866,0,0,1-4.386-.709v6.69l4.386,6.835,4.386-6.835V32.828A13.793,13.793,0,0,1,34.82,33.54Z" transform="translate(49.79 53.707)" fill="#fff"/>
        <path id="Trazado_1262632" data-name="Trazado 1262632" d="M38.049,41.632l-2.736,2.736a1.324,1.324,0,0,1-1.872,0L30.7,41.632l3.672-3.672Z" transform="translate(50.233 62.103)" fill="#36dbe6"/>
        <path id="Trazado_1262633" data-name="Trazado 1262633" d="M34.7,40.973a1.324,1.324,0,0,1-1.872,0l-.938-.938-.812,7.186,2.686,7.291,2.686-7.291-.812-7.186Z" transform="translate(50.845 65.498)" fill="#0a4666"/>
        <path id="Trazado_1262634" data-name="Trazado 1262634" d="M28.034,47.116l2.335-2.059A.662.662,0,0,0,30,43.9l-2.739-.293a.663.663,0,0,1-.554-.883l2.6-7.186a15.792,15.792,0,0,1,1.806-.166L40.98,62.136l-13-14.076A.661.661,0,0,1,28.034,47.116Z" transform="translate(43.631 57.874)" fill="#36dbe6"/>
        <path id="Trazado_1262635" data-name="Trazado 1262635" d="M45.043,47.116l-2.333-2.059a.662.662,0,0,1,.366-1.155l2.741-.293a.661.661,0,0,0,.551-.883l-2.6-7.186a15.792,15.792,0,0,0-1.806-.166L32.1,62.136,45.091,48.059A.658.658,0,0,0,45.043,47.116Z" transform="translate(52.512 57.874)" fill="#36dbe6"/>
        <path id="Trazado_1262636" data-name="Trazado 1262636" d="M44.331,44.82H35.4a.931.931,0,0,0,0,1.861h8.933a.931.931,0,0,0,0-1.861" transform="translate(56.388 73.326)" fill="#36dbe6"/>
        <path id="Trazado_1262637" data-name="Trazado 1262637" d="M29.75,63.858V36.546a18.1,18.1,0,0,0-7.977,15.017v8.325a3.971,3.971,0,0,0,3.972,3.97Z" transform="translate(35.621 59.79)" fill="#1e3e60"/>
        <path id="Trazado_1262638" data-name="Trazado 1262638" d="M25.4,33.317A18.24,18.24,0,1,1,40.49,54.241,18.24,18.24,0,0,1,25.4,33.317" transform="translate(41.171 29.437)" fill="#0a4666"/>
        <path id="Trazado_1262639" data-name="Trazado 1262639" d="M40.677,54.711A13.824,13.824,0,0,1,26.854,40.888V33.71a13.823,13.823,0,1,1,27.646,0v7.178A13.824,13.824,0,0,1,40.677,54.711Z" transform="translate(43.933 32.536)" fill="#fff"/>
        <path id="Trazado_1262640" data-name="Trazado 1262640" d="M34.82,33.538a13.866,13.866,0,0,1-4.386-.709v2.633a13.68,13.68,0,0,0,8.773,0V32.829a13.866,13.866,0,0,1-4.386.709" transform="translate(49.79 53.709)" fill="#fff"/>
        <path id="Trazado_1262641" data-name="Trazado 1262641" d="M29.617,30.535v-4.32a4.454,4.454,0,1,0,.757,8.841A13.787,13.787,0,0,1,29.617,30.535Z" transform="translate(41.17 42.889)" fill="#fff"/>
        <path id="Trazado_1262642" data-name="Trazado 1262642" d="M37.812,26.215v4.32a13.81,13.81,0,0,1-.757,4.521,4.453,4.453,0,1,0,.757-8.841Z" transform="translate(60.622 42.889)" fill="#fff"/>
        <path id="Trazado_1262643" data-name="Trazado 1262643" d="M40.677,40.923A13.824,13.824,0,0,1,26.854,27.1v1.985a13.823,13.823,0,1,0,27.646,0V27.1A13.824,13.824,0,0,1,40.677,40.923Z" transform="translate(43.933 44.336)" fill="#fff"/>
        <path id="Trazado_1262644" data-name="Trazado 1262644" d="M26.854,33.177V35.9a18.219,18.219,0,0,0,9.068-15.689,13.814,13.814,0,0,0-9.068,12.966" transform="translate(43.933 33.066)" fill="#fff"/>
        <path id="Trazado_1262645" data-name="Trazado 1262645" d="M45.617,36.925A18.178,18.178,0,0,0,52.2,35.686V33.712A13.81,13.81,0,0,0,28.262,24.3,18.249,18.249,0,0,0,45.617,36.925" transform="translate(46.237 32.534)" fill="#fff"/>
        <path id="Trazado_1262646" data-name="Trazado 1262646" d="M27.96,21.615a18.244,18.244,0,0,0,29.059,12.8,18.244,18.244,0,0,0-29.059-12.8" transform="translate(45.743 29.442)" fill="#12263f"/>
        <path id="Trazado_1262647" data-name="Trazado 1262647" d="M25.177,35.818a18.686,18.686,0,0,0,.169,2.446A18.207,18.207,0,0,0,38.5,18.252,18.248,18.248,0,0,0,25.177,35.818" transform="translate(41.19 29.861)" fill="#0a4666"/>
        <path id="Trazado_1262648" data-name="Trazado 1262648" d="M32.581,28.206a1.675,1.675,0,1,1-1.674-1.674,1.673,1.673,0,0,1,1.674,1.674" transform="translate(47.822 43.407)" fill="#0a4666"/>
        <path id="Trazado_1262649" data-name="Trazado 1262649" d="M37.51,28.206a1.675,1.675,0,1,1-1.674-1.674,1.673,1.673,0,0,1,1.674,1.674" transform="translate(55.886 43.407)" fill="#0a4666"/>
        <path id="Trazado_1262650" data-name="Trazado 1262650" d="M28.443,29.359V26.934a2.558,2.558,0,1,0,0,5.116,2.231,2.231,0,0,0,.264-.026A13.658,13.658,0,0,1,28.443,29.359Z" transform="translate(42.345 44.065)" fill="#fff"/>
        <path id="Trazado_1262651" data-name="Trazado 1262651" d="M37.511,29.359V26.934a2.558,2.558,0,1,1,0,5.116,2.176,2.176,0,0,1-.264-.026A13.658,13.658,0,0,0,37.511,29.359Z" transform="translate(60.936 44.065)" fill="#fff"/>
        <path id="Trazado_1262652" data-name="Trazado 1262652" d="M76.741,149.028a71.933,71.933,0,1,1,71.931-71.934,72.014,72.014,0,0,1-71.931,71.934m0-136.672a64.739,64.739,0,1,0,64.738,64.738A64.811,64.811,0,0,0,76.741,12.357" transform="translate(7.869 8.447)" fill="#0a4666"/>
        <path id="Trazado_1262653" data-name="Trazado 1262653" d="M74.51,6.528a68.334,68.334,0,1,0,68.336,68.336A68.336,68.336,0,0,0,74.51,6.528m0,133.073a64.739,64.739,0,1,1,64.738-64.738A64.811,64.811,0,0,1,74.51,139.6" transform="translate(10.101 10.681)" fill="#aaca79"/>
        <path id="Trazado_1262654" data-name="Trazado 1262654" d="M57.939,4.067H26.049V27.319A2.287,2.287,0,0,0,28.337,29.6H55.654a2.285,2.285,0,0,0,2.285-2.285Z" transform="translate(42.616 6.654)" fill="#fff"/>
        <path id="Trazado_1262655" data-name="Trazado 1262655" d="M34.907,7.32H29.714a2.289,2.289,0,0,0-2.288,2.288V24.283h9.766V9.608A2.287,2.287,0,0,0,34.907,7.32" transform="translate(44.869 11.976)" fill="#0a4666"/>
        <path id="Trazado_1262656" data-name="Trazado 1262656" d="M42.113,7.32H34.4a2.289,2.289,0,0,0-2.288,2.288v6.147a.764.764,0,0,0,.762.762H43.64a.764.764,0,0,0,.762-.762V9.608A2.289,2.289,0,0,0,42.113,7.32" transform="translate(52.527 11.976)" fill="#0a4666"/>
        <path id="Trazado_1262657" data-name="Trazado 1262657" d="M25.382,3.826V6.734a3.541,3.541,0,0,0,7.083,0,3.54,3.54,0,1,0,7.08,0,3.541,3.541,0,0,0,7.083,0,3.54,3.54,0,1,0,7.08,0,3.54,3.54,0,1,0,7.08,0V3.826Z" transform="translate(41.525 6.26)" fill="#0a4666"/>
        <path id="Trazado_1262658" data-name="Trazado 1262658" d="M59.033,1.1H27.4L25.381,8.28H60.793Z" transform="translate(41.524 1.804)" fill="#12263f"/>
        <path id="Trazado_1262659" data-name="Trazado 1262659" d="M56.259,0H27.671a1.525,1.525,0,0,0-1.526,1.526V2.908H57.782V1.526A1.522,1.522,0,0,0,56.259,0" transform="translate(42.773 0.001)" fill="#0a4666"/>
        <path id="Trazado_1262660" data-name="Trazado 1262660" d="M44.4,10H32.108v1.358a.76.76,0,0,0,.762.762H43.638a.76.76,0,0,0,.762-.762Z" transform="translate(52.529 16.367)" fill="#12263f"/>
        <path id="Trazado_1262661" data-name="Trazado 1262661" d="M31.778,11.346a.866.866,0,1,1-.865-.865.865.865,0,0,1,.865.865" transform="translate(49.155 17.148)" fill="#d3d3d3"/>
        <path id="Trazado_1262662" data-name="Trazado 1262662" d="M78.225,69.635H54.791a1.955,1.955,0,0,1-1.956-1.956V26.626a1.955,1.955,0,0,1,1.956-1.956H78.225a1.955,1.955,0,0,1,1.956,1.956V67.679a1.955,1.955,0,0,1-1.956,1.956" transform="translate(86.438 40.361)" fill="#d3d3d3"/>
        <path id="Trazado_1262663" data-name="Trazado 1262663" d="M80.181,25.884V66.937a1.957,1.957,0,0,1-1.956,1.956H54.791a1.957,1.957,0,0,1-1.956-1.956V25.884a1.955,1.955,0,0,1,1.956-1.956H78.225a1.955,1.955,0,0,1,1.956,1.956" transform="translate(86.438 39.147)" fill="#dadada"/>
        <path id="Trazado_1262664" data-name="Trazado 1262664" d="M75.2,58.57H54.722a.942.942,0,0,1-.941-.941V26.706a.94.94,0,0,1,.941-.941H75.2a.937.937,0,0,1,.941.941V57.629a.942.942,0,0,1-.941.941" transform="translate(87.986 42.152)" fill="#fff"/>
        <path id="Trazado_1262665" data-name="Trazado 1262665" d="M75.2,25.764H54.722a.942.942,0,0,0-.941.941v.981a.942.942,0,0,1,.941-.944H75.2a.939.939,0,0,1,.941.944v-.981a.942.942,0,0,0-.941-.941" transform="translate(87.986 42.151)" fill="#d3d3d3"/>
        <path id="Trazado_1262666" data-name="Trazado 1262666" d="M59.236,38.841A1.956,1.956,0,1,1,57.28,40.8a1.955,1.955,0,0,1,1.956-1.956" transform="translate(93.71 63.545)" fill="#12263f"/>
        <path id="Trazado_1262667" data-name="Trazado 1262667" d="M70.671,35.71H55.906A1.1,1.1,0,0,1,54.8,34.6V31.835a1.1,1.1,0,0,1,1.1-1.107H70.671a1.107,1.107,0,0,1,1.107,1.107V34.6a1.107,1.107,0,0,1-1.107,1.107" transform="translate(89.656 50.272)" fill="#fff"/>
        <path id="Trazado_1262668" data-name="Trazado 1262668" d="M57.883,31.845l8.665-.514a1.305,1.305,0,0,1,1.381,1.379l-.517,8.665a1.3,1.3,0,0,1-2.225.846l-1.64-1.642-3.364,3.364a1.811,1.811,0,0,1-2.56,0l-2.309-2.307a1.814,1.814,0,0,1,0-2.562l3.364-3.361-1.642-1.642A1.3,1.3,0,0,1,57.883,31.845Z" transform="translate(89.63 51.254)" fill="#fff"/>
        <path id="Trazado_1262669" data-name="Trazado 1262669" d="M70.671,35.29H55.906a1.1,1.1,0,0,1-1.1-1.107V31.415a1.1,1.1,0,0,1,1.1-1.107H70.671a1.107,1.107,0,0,1,1.107,1.107v2.768a1.107,1.107,0,0,1-1.107,1.107" transform="translate(89.656 49.585)" fill="#b3d5ef"/>
        <path id="Trazado_1262670" data-name="Trazado 1262670" d="M70.671,32.412H55.906a1.1,1.1,0,0,1-1.1-1.107v1.247a1.1,1.1,0,0,0,1.1,1.1H70.671a1.106,1.106,0,0,0,1.107-1.1V31.305a1.107,1.107,0,0,1-1.107,1.107" transform="translate(89.656 51.216)" fill="#a6cdec"/>
        <path id="Trazado_1262671" data-name="Trazado 1262671" d="M57.883,31.426l8.665-.514a1.305,1.305,0,0,1,1.381,1.379l-.517,8.665a1.3,1.3,0,0,1-2.225.846l-1.64-1.642-3.364,3.364a1.811,1.811,0,0,1-2.56,0l-2.309-2.307a1.814,1.814,0,0,1,0-2.562l3.364-3.361L57.037,33.65a1.3,1.3,0,0,1,.846-2.225" transform="translate(89.63 50.568)" fill="#0a4666"/>
        <path id="Trazado_1262672" data-name="Trazado 1262672" d="M58.752,38.288l-2.309-2.309a1.811,1.811,0,0,1,0-2.56l-1.126,1.126a1.811,1.811,0,0,0,0,2.56l2.307,2.309a1.811,1.811,0,0,0,2.56,0l1.128-1.126A1.811,1.811,0,0,1,58.752,38.288Z" transform="translate(89.632 54.674)" fill="#aaca79"/>
        <path id="Trazado_1262673" data-name="Trazado 1262673" d="M57.52,34.966l1.126-1.126L57.006,32.2a1.282,1.282,0,0,1-.372-1.091,1.307,1.307,0,0,0-.757,2.217Z" transform="translate(90.79 50.892)" fill="#aaca79"/>
        <path id="Trazado_1262674" data-name="Trazado 1262674" d="M60.878,35.632,59.236,33.99,58.11,35.118l1.642,1.64A1.3,1.3,0,0,0,61.966,36,1.271,1.271,0,0,1,60.878,35.632Z" transform="translate(95.068 55.609)" fill="#aaca79"/>
        <path id="Trazado_1262675" data-name="Trazado 1262675" d="M62.913,25.572H57.269a.51.51,0,1,1,0-1.02h5.644a.51.51,0,1,1,0,1.02" transform="translate(92.856 40.168)" fill="#d3d3d3"/>
        <path id="Trazado_1262676" data-name="Trazado 1262676" d="M43.259,50.189A17.983,17.983,0,1,1,25.276,68.172,17.982,17.982,0,0,1,43.259,50.189" transform="translate(41.352 82.11)" fill="#fff"/>
        <path id="Trazado_1262677" data-name="Trazado 1262677" d="M40.46,74.447,29.7,63.69a5.963,5.963,0,0,1,0-8.435l1.263-1.263a1.158,1.158,0,0,1,1.64,0l4.663,4.66a1.158,1.158,0,0,1,0,1.64l-1.231,1.231a1.158,1.158,0,0,0,0,1.64l4.95,4.95a1.158,1.158,0,0,0,1.64,0l1.231-1.231a1.158,1.158,0,0,1,1.64,0l4.66,4.663a1.158,1.158,0,0,1,0,1.64L48.9,74.447A5.968,5.968,0,0,1,40.46,74.447Z" transform="translate(45.734 87.776)" fill="#fff"/>
        <path id="Trazado_1262678" data-name="Trazado 1262678" d="M40.46,73.765,29.7,63.008a5.963,5.963,0,0,1,0-8.435l1.263-1.263a1.158,1.158,0,0,1,1.64,0l4.663,4.66a1.158,1.158,0,0,1,0,1.64l-1.231,1.231a1.158,1.158,0,0,0,0,1.64l4.95,4.95a1.158,1.158,0,0,0,1.64,0L43.858,66.2a1.158,1.158,0,0,1,1.64,0l4.66,4.663a1.158,1.158,0,0,1,0,1.64L48.9,73.765A5.968,5.968,0,0,1,40.46,73.765Z" transform="translate(45.734 86.66)" fill="#0a4666"/>
        <path id="Trazado_1262679" data-name="Trazado 1262679" d="M33,55.344l-1.265,1.265c-2.328,2.328-2.728,5.7-.894,7.539L29.7,63.007a5.96,5.96,0,0,1,0-8.433l1.263-1.265a1.161,1.161,0,0,1,1.642,0l1.858,1.861A1.059,1.059,0,0,0,33,55.344Z" transform="translate(45.734 86.658)" fill="#12263f"/>
        <path id="Trazado_1262680" data-name="Trazado 1262680" d="M33.407,63.815l-1.141-1.141c1.837,1.837,5.211,1.437,7.542-.894l1.263-1.263a1.059,1.059,0,0,0,.174-1.466l1.861,1.861a1.158,1.158,0,0,1,0,1.64L41.84,63.815A5.965,5.965,0,0,1,33.407,63.815Z" transform="translate(52.787 96.61)" fill="#12263f"/>
        <path id="Trazado_1262681" data-name="Trazado 1262681" d="M39.9,63.886l-4.66-4.66a1.158,1.158,0,0,0-1.64,0L34.622,58.2a1.161,1.161,0,0,1,1.642,0l4.66,4.66a1.158,1.158,0,0,1,0,1.64L39.9,65.525a1.158,1.158,0,0,0,0-1.64" transform="translate(54.968 94.66)" fill="#aaca79"/>
        <path id="Trazado_1262682" data-name="Trazado 1262682" d="M35.008,59l-4.66-4.66a1.158,1.158,0,0,0-1.64,0l1.023-1.025a1.161,1.161,0,0,1,1.642,0l4.66,4.66a1.158,1.158,0,0,1,0,1.64l-1.025,1.025a1.158,1.158,0,0,0,0-1.64" transform="translate(46.966 86.66)" fill="#aaca79"/>
        <path id="Trazado_1262683" data-name="Trazado 1262683" d="M37.433,63.57a1.158,1.158,0,0,1-1.64,0l-4.95-4.95a1.158,1.158,0,0,1,0-1.64l1.025-1.025a1.158,1.158,0,0,0,0,1.64l4.95,4.95a1.158,1.158,0,0,0,1.64,0Z" transform="translate(49.903 91.543)" fill="#12263f"/>
        <path id="Trazado_1262684" data-name="Trazado 1262684" d="M35.5,59.757l-.285.285a1.157,1.157,0,0,0-.324.627L28.459,54.24a5.753,5.753,0,0,1,.416-.464l.322-.319Z" transform="translate(46.559 87.457)" fill="#aaca79"/>
        <path id="Trazado_1262685" data-name="Trazado 1262685" d="M33.91,58.634l.285-.287,6.3,6.3-.322.319a5.752,5.752,0,0,1-.464.416l-6.429-6.429a1.135,1.135,0,0,0,.627-.322" transform="translate(54.451 95.457)" fill="#aaca79"/>
        <path id="Trazado_1262686" data-name="Trazado 1262686" d="M39.4,50.524H1.323V27.356a1.469,1.469,0,0,1,1.468-1.468H37.929A1.469,1.469,0,0,1,39.4,27.356Z" transform="translate(2.164 42.354)" fill="#dadada"/>
        <path id="Trazado_1262687" data-name="Trazado 1262687" d="M43.225,38.881H1.824a1.824,1.824,0,1,1,0-3.648h41.4a1.824,1.824,0,1,1,0,3.648" transform="translate(0 57.642)" fill="#dedede"/>
        <path id="Trazado_1262688" data-name="Trazado 1262688" d="M43.225,36.721H1.824A1.819,1.819,0,0,1,.163,35.643a1.817,1.817,0,0,0,1.661,2.57h41.4a1.817,1.817,0,0,0,1.661-2.57,1.823,1.823,0,0,1-1.661,1.078" transform="translate(0 58.313)" fill="#d3d3d3"/>
        <path id="Rectángulo_460994" data-name="Rectángulo 460994" d="M.278,0H35.089a.278.278,0,0,1,.278.278V19.723a.279.279,0,0,1-.279.279H.278A.278.278,0,0,1,0,19.724V.278A.278.278,0,0,1,.278,0Z" transform="translate(4.84 69.672)" fill="#fff"/>
        <path id="Trazado_1262689" data-name="Trazado 1262689" d="M36.47,26.431H2.569a.735.735,0,0,0-.733.733v.9a.735.735,0,0,1,.733-.735h33.9a.733.733,0,0,1,.733.735v-.9A.731.731,0,0,0,36.47,26.431Z" transform="translate(3.004 43.242)" fill="#d3d3d3"/>
        <path id="Trazado_1262690" data-name="Trazado 1262690" d="M9.077,36.055a.855.855,0,1,1,.857-.857.857.857,0,0,1-.857.857" transform="translate(13.448 56.188)" fill="#12263f"/>
        <path id="Trazado_1262691" data-name="Trazado 1262691" d="M6.4,35.234l.314.559A1.467,1.467,0,0,0,8,36.541h8.1a1.467,1.467,0,0,0,1.278-.749l.314-.559Z" transform="translate(10.477 57.644)" fill="#12263f"/>
        <path id="Trazado_1262692" data-name="Trazado 1262692" d="M5.965,37.259H21.85a2.161,2.161,0,0,0,2.159-2.27c-.069-1.31-.169-2.952-.3-4.262a1.351,1.351,0,0,0-1.545-1.2l-1.956.743a3.97,3.97,0,0,1-1.257.145l-.319-.013c-1.4-.066-2.981-1.99-3.451-2.6A.532.532,0,0,0,14.8,27.6a.5.5,0,0,0-.546.5V29.4a2.124,2.124,0,0,1-1.827,2.1l-3.685.522a4.035,4.035,0,0,0-3.9,3.988,1.125,1.125,0,0,0,1.123,1.244" transform="translate(7.911 45.143)" fill="#36dbe6"/>
        <path id="Trazado_1262693" data-name="Trazado 1262693" d="M13.7,30.239a3.912,3.912,0,0,1-1.26.145l-.316-.013a4.1,4.1,0,0,1-2.317-1.323,2.075,2.075,0,0,0,.688.163l.316.016a3.922,3.922,0,0,0,1.26-.148l1.956-.743a1.353,1.353,0,0,1,1.542,1.191Z" transform="translate(16.044 46.335)" fill="#0a4666"/>
        <path id="Trazado_1262694" data-name="Trazado 1262694" d="M4.842,36.016a4.035,4.035,0,0,1,3.9-3.988l3.685-.522a2.126,2.126,0,0,0,1.827-2.1V28.095a.5.5,0,0,1,.546-.5.528.528,0,0,1,.377.206,11.841,11.841,0,0,0,.9,1.052.5.5,0,0,0-.2.4v1.31a2.121,2.121,0,0,1-1.824,2.1l-3.685.525a4.034,4.034,0,0,0-3.9,3.988c0,.029-.005.055-.005.084h-.5a1.127,1.127,0,0,1-1.123-1.244" transform="translate(7.911 45.145)" fill="#0a4666"/>
        <path id="Trazado_1262695" data-name="Trazado 1262695" d="M8.2,29.3a.623.623,0,1,0,.625-.625A.624.624,0,0,0,8.2,29.3" transform="translate(13.409 46.915)" fill="#fff"/>
        <path id="Trazado_1262696" data-name="Trazado 1262696" d="M7.442,29.727a.623.623,0,1,0,.625-.625.624.624,0,0,0-.625.625" transform="translate(12.175 47.612)" fill="#fff"/>
        <path id="Trazado_1262697" data-name="Trazado 1262697" d="M6.549,29.856a.623.623,0,1,0,.625-.625.624.624,0,0,0-.625.625" transform="translate(10.714 47.823)" fill="#fff"/>
        <path id="Trazado_1262698" data-name="Trazado 1262698" d="M6.741,30.144l-.15-.577a.391.391,0,1,1,.757-.2l.15.577a.391.391,0,0,1-.757.2" transform="translate(10.76 47.567)" fill="#dadada"/>
        <path id="Trazado_1262699" data-name="Trazado 1262699" d="M6.74,29.545a.392.392,0,0,0,.712.105l.045.177a.391.391,0,1,1-.757.2l-.15-.577a.4.4,0,0,1,.045-.306Z" transform="translate(10.76 47.68)" fill="#d3d3d3"/>
        <path id="Trazado_1262700" data-name="Trazado 1262700" d="M7.747,28.954a.393.393,0,0,1,.406.214l.256.517a.391.391,0,1,1-.7.345l-.256-.514a.391.391,0,0,1,.3-.561" transform="translate(12.123 47.364)" fill="#dadada"/>
        <path id="Trazado_1262701" data-name="Trazado 1262701" d="M7.706,29.49a.391.391,0,0,0,.525.179.4.4,0,0,0,.156-.14l.024.045a.392.392,0,0,1-.7.345l-.253-.514a.389.389,0,0,1,.021-.387Z" transform="translate(12.125 47.474)" fill="#d3d3d3"/>
        <path id="Trazado_1262702" data-name="Trazado 1262702" d="M8.15,28.736a.386.386,0,0,1,.554-.079l.548.43a.393.393,0,0,1-.482.619l-.551-.432a.389.389,0,0,1-.074-.532Z" transform="translate(13.204 46.747)" fill="#dadada"/>
        <path id="Trazado_1262703" data-name="Trazado 1262703" d="M8.22,28.743l.551.432a.388.388,0,0,0,.548-.069l.024-.034a.392.392,0,0,1-.572.517l-.551-.432a.386.386,0,0,1-.087-.511.38.38,0,0,0,.087.1" transform="translate(13.206 46.864)" fill="#d3d3d3"/>
        <path id="Trazado_1262704" data-name="Trazado 1262704" d="M17.533,28.949c.113,1.226.2,2.657.261,3.825a2.16,2.16,0,0,1-2.159,2.27h-7l2.618-1.06a14.01,14.01,0,0,0,6.282-5.035" transform="translate(14.125 47.361)" fill="#d3d3d3"/>
        <path id="Trazado_1262705" data-name="Trazado 1262705" d="M8.185,29.31l.137.467a1.5,1.5,0,0,0,1.592,1.062l2.839-.311a8.97,8.97,0,0,1,7.476,2.741l1.12,1.181H5.965a1.124,1.124,0,0,1-1.123-1.242,3.992,3.992,0,0,1,3.342-3.9" transform="translate(7.911 47.952)" fill="#dadada"/>
        <path id="Trazado_1262706" data-name="Trazado 1262706" d="M4.956,31.154a1.133,1.133,0,0,0,1.007.617H21.85a2.166,2.166,0,0,0,2.111-1.7c.016.3.032.585.045.857A2.158,2.158,0,0,1,21.85,33.2H5.965a1.126,1.126,0,0,1-1.123-1.244A6.241,6.241,0,0,1,4.956,31.154Z" transform="translate(7.911 49.2)" fill="#d3d3d3"/>
        <path id="Trazado_1262707" data-name="Trazado 1262707" d="M4.842,31.29l0-.013c0-.034.005-.076.011-.127l0-.008v-.021l0-.008,0-.04,0-.005,0-.04,0-.008V31l0-.008v-.018l0-.005v-.018l.005-.032v0l0-.011v-.016l0-.005,0-.021V30.86l0-.021,0-.013v-.013l0-.013,0-.018,0-.011,0-.018,0-.013,0-.016,0-.013,0-.018,0-.013,0-.013,0-.021,0-.011,0-.021,0-.011,0-.021,0-.008.005-.024,0-.011.005-.024v-.005l.005-.026a1.133,1.133,0,0,0,1.007.617H19.978c.084.082.166.166.248.25l1.123,1.181H5.963A1.123,1.123,0,0,1,4.842,31.29Z" transform="translate(7.911 49.871)" fill="#d3d3d3"/>
        <path id="Trazado_1262708" data-name="Trazado 1262708" d="M4.861,31.233a1.132,1.132,0,0,0,1.1.88H21.85c1.115,0,2.154-1.779,2.156-1.713a2.158,2.158,0,0,1-2.156,2.27H5.965a1.126,1.126,0,0,1-1.123-1.244l.018-.192" transform="translate(7.911 49.733)" fill="#dadada"/>
        <path id="Trazado_1262709" data-name="Trazado 1262709" d="M11.893,31.26H10.654l.129.627c.032.153.092.25.156.25h.67c.063,0,.127-.1.156-.25Z" transform="translate(17.43 51.142)" fill="#fff"/>
        <path id="Trazado_1262710" data-name="Trazado 1262710" d="M10.847,31.558h1.186a.3.3,0,0,0,.3-.3H10.552A.294.294,0,0,0,10.847,31.558Z" transform="translate(17.263 51.142)" fill="#aaca79"/>
        <path id="Trazado_1262711" data-name="Trazado 1262711" d="M10.958,31.26H9.719l.129.627c.032.153.092.25.156.25h.67c.063,0,.127-.1.156-.25Z" transform="translate(15.9 51.142)" fill="#fff"/>
        <path id="Trazado_1262712" data-name="Trazado 1262712" d="M9.912,31.558H11.1a.3.3,0,0,0,.3-.3H9.617a.294.294,0,0,0,.3.3" transform="translate(15.733 51.142)" fill="#aaca79"/>
        <path id="Trazado_1262713" data-name="Trazado 1262713" d="M8.471,31.26H7.232l.129.627c.032.153.092.25.156.25h.67c.063,0,.127-.1.156-.25Z" transform="translate(11.832 51.142)" fill="#fff"/>
        <path id="Trazado_1262714" data-name="Trazado 1262714" d="M7.425,31.558H8.611a.3.3,0,0,0,.3-.3H7.13a.294.294,0,0,0,.3.3" transform="translate(11.665 51.142)" fill="#aaca79"/>
        <path id="Trazado_1262715" data-name="Trazado 1262715" d="M7.608,31.26H6.369l.129.627c.032.153.092.25.156.25h.67c.063,0,.127-.1.156-.25Z" transform="translate(10.42 51.142)" fill="#fff"/>
        <path id="Trazado_1262716" data-name="Trazado 1262716" d="M6.562,31.558H7.748a.3.3,0,0,0,.3-.3H6.267a.294.294,0,0,0,.3.3" transform="translate(10.253 51.142)" fill="#aaca79"/>
        <path id="Trazado_1262717" data-name="Trazado 1262717" d="M6.583,31.26H5.344l.129.627c.032.153.092.25.156.25H6.3c.063,0,.127-.1.156-.25Z" transform="translate(8.743 51.142)" fill="#fff"/>
        <path id="Trazado_1262718" data-name="Trazado 1262718" d="M5.537,31.558H6.723a.3.3,0,0,0,.3-.3H5.242a.294.294,0,0,0,.3.3" transform="translate(8.576 51.142)" fill="#aaca79"/>
        <path id="Trazado_1262719" data-name="Trazado 1262719" d="M10.846,30.933a3.379,3.379,0,0,0,1.065.124l.269-.013a3.439,3.439,0,0,0,1.959-1.118,1.792,1.792,0,0,1-.58.14l-.269.011a3.313,3.313,0,0,1-1.065-.124l-1.655-.63a1.147,1.147,0,0,0-1.3,1.01Z" transform="translate(15.156 47.953)" fill="#fff"/>
        <path id="Trazado_1262720" data-name="Trazado 1262720" d="M10.015,29.336a1.094,1.094,0,0,0-.19.519l1.579.6a3.4,3.4,0,0,0,1.068.124l.269-.013a2.348,2.348,0,0,0,1.136-.44,3.064,3.064,0,0,1-1.7.873l-.266.013a3.287,3.287,0,0,1-1.065-.124l-1.584-.6A1.149,1.149,0,0,1,10.015,29.336Z" transform="translate(15.156 47.995)" fill="#fff"/>
        <path id="Trazado_1262721" data-name="Trazado 1262721" d="M15.376,35.078H7.4a.6.6,0,0,1-.6-.6V32.985a.6.6,0,0,1,.6-.6h7.974a.6.6,0,0,1,.6.6V34.48a.6.6,0,0,1-.6.6" transform="translate(11.135 52.986)" fill="#b3d5ef"/>
        <path id="Trazado_1262722" data-name="Trazado 1262722" d="M15.376,33.524H7.4a.6.6,0,0,1-.6-.6V33.6a.6.6,0,0,0,.6.6h7.974a.6.6,0,0,0,.6-.6v-.672a.6.6,0,0,1-.6.6" transform="translate(11.135 53.868)" fill="#a6cdec"/>
        <path id="Trazado_1262723" data-name="Trazado 1262723" d="M7,34.019l.092.092L5.144,36.065a1.045,1.045,0,0,0,0,1.487L6.48,38.89a1.058,1.058,0,0,0,1.489,0l1.948-1.953.952.952a.76.76,0,0,0,1.3-.49l.2-3.379Z" transform="translate(7.907 55.656)" fill="#d3d3d3"/>
        <path id="Trazado_1262724" data-name="Trazado 1262724" d="M6.632,33.049l5.029-.3a.758.758,0,0,1,.8.8l-.3,5.029a.757.757,0,0,1-1.292.493l-.952-.954L7.969,40.072a1.05,1.05,0,0,1-1.487,0L5.14,38.733a1.055,1.055,0,0,1,0-1.487l1.953-1.953-.952-.952a.756.756,0,0,1,.49-1.292" transform="translate(7.908 53.576)" fill="#0a4666"/>
        <path id="Trazado_1262725" data-name="Trazado 1262725" d="M7.134,37.032,5.8,35.693a1.05,1.05,0,0,1,0-1.487l-.654.654a1.05,1.05,0,0,0,0,1.487l1.339,1.339a1.05,1.05,0,0,0,1.487,0l.654-.654a1.05,1.05,0,0,1-1.487,0" transform="translate(7.907 55.962)" fill="#aaca79"/>
        <path id="Trazado_1262726" data-name="Trazado 1262726" d="M6.42,35.1l.654-.654L6.122,33.5a.746.746,0,0,1-.216-.633.758.758,0,0,0-.438,1.286Z" transform="translate(8.582 53.766)" fill="#aaca79"/>
        <path id="Trazado_1262727" data-name="Trazado 1262727" d="M8.368,35.49l-.952-.952-.654.654.952.952A.757.757,0,0,0,9,35.706a.746.746,0,0,1-.633-.216" transform="translate(11.064 56.505)" fill="#aaca79"/>
      </g>
    </g>
  </g>
</svg>
