<svg xmlns="http://www.w3.org/2000/svg" xmlns:xlink="http://www.w3.org/1999/xlink" width="295" height="221.965" viewBox="0 0 295 221.965">
  <defs>
    <clipPath id="clip-path">
      <rect id="Rectángulo_460986" data-name="Rectángulo 460986" width="150" height="159.129" fill="none"/>
    </clipPath>
  </defs>
  <g id="Grupo_1205169" data-name="Grupo 1205169" transform="translate(-285.265 -1841.179)">
    <g id="Grupo_1205168" data-name="Grupo 1205168">
      <g id="Grupo_1205167" data-name="Grupo 1205167">
        <g id="Grupo_1205163" data-name="Grupo 1205163">
          <g id="Grupo_1102746" data-name="Grupo 1102746" transform="translate(54.85 -2778.821)">
            <g id="Grupo_1099952" data-name="Grupo 1099952" transform="translate(230.415 4620)">
              <path id="Trazado_145968" data-name="Trazado 145968" d="M49.2,0A49.2,49.2,0,1,0,98.4,49.2,49.2,49.2,0,0,0,49.2,0Z" transform="translate(7.561 119.354)" fill="#a6cdec"/>
              <path id="Trazado_145969" data-name="Trazado 145969" d="M33.618,0A33.618,33.618,0,1,0,67.237,33.618,33.618,33.618,0,0,0,33.618,0Z" transform="translate(200.275 12.836)" fill="#a6cdec"/>
              <rect id="Rectángulo_34812" data-name="Rectángulo 34812" width="295" height="221.25" transform="translate(0 0.357)" fill="none"/>
              <path id="Trazado_145967" data-name="Trazado 145967" d="M110.983,0A110.983,110.983,0,1,0,221.966,110.983,110.983,110.983,0,0,0,110.983,0Z" transform="translate(36.517 0)" fill="#88a160"/>
              <path id="Trazado_145971" data-name="Trazado 145971" d="M9.243,0a9.243,9.243,0,1,0,9.243,9.243A9.243,9.243,0,0,0,9.243,0Z" transform="translate(239.996 184.805)" fill="#0a4666"/>
              <path id="Elipse_4044" data-name="Elipse 4044" d="M12.535,3.388a9.147,9.147,0,1,1-9.147,9.147,9.158,9.158,0,0,1,9.147-9.147m0-3.388A12.535,12.535,0,1,0,25.071,12.535,12.535,12.535,0,0,0,12.535,0Z" transform="translate(214.926 79.167)" fill="#fff"/>
            </g>
          </g>
          <g id="Grupo_1204436" data-name="Grupo 1204436" transform="translate(357.765 1871.077)">
            <g id="Grupo_1204435" data-name="Grupo 1204435" transform="translate(0 0)" clip-path="url(#clip-path)">
              <path id="Trazado_1262399" data-name="Trazado 1262399" d="M146.191,29.636H3.812a3.811,3.811,0,1,1,0-7.621H146.191a3.811,3.811,0,0,1,0,7.621" transform="translate(0 29.122)" fill="#0a4666"/>
              <path id="Trazado_1262400" data-name="Trazado 1262400" d="M146.189,24.741H3.81a3.812,3.812,0,0,1-3.3-1.9,3.814,3.814,0,0,0,3.3,5.716H146.189a3.81,3.81,0,0,0,3.3-5.716,3.812,3.812,0,0,1-3.3,1.9" transform="translate(0.001 30.208)" fill="#aaca79"/>
              <path id="Trazado_1262401" data-name="Trazado 1262401" d="M51.31,38.448h9.275V78.83a2.542,2.542,0,0,1-.4,1.373l-3.526,5.449a.842.842,0,0,1-1.412,0L51.716,80.2a2.524,2.524,0,0,1-.406-1.373Z" transform="translate(67.873 50.86)" fill="#fff"/>
              <path id="Trazado_1262402" data-name="Trazado 1262402" d="M52.038,38.448h5.891V78.83a3.666,3.666,0,0,1-.258,1.373l-2.239,5.449c-.211.511-.688.511-.9,0L52.294,80.2a3.665,3.665,0,0,1-.256-1.373Z" transform="translate(68.836 50.86)" fill="#fff"/>
              <rect id="Rectángulo_460971" data-name="Rectángulo 460971" width="5.252" height="18.408" transform="translate(121.193 66.216)" fill="#36dbe6"/>
              <rect id="Rectángulo_460972" data-name="Rectángulo 460972" width="3.015" height="18.408" transform="translate(122.312 66.216)" fill="#a6cdec"/>
              <path id="Trazado_1262403" data-name="Trazado 1262403" d="M48.9,35.33H71.6a.84.84,0,0,1,.773,1.171L71.2,39.251a1.687,1.687,0,0,1-1.549,1.024H50.843a1.69,1.69,0,0,1-1.549-1.024L48.125,36.5A.841.841,0,0,1,48.9,35.33" transform="translate(63.57 46.735)" fill="#e2e2e2"/>
              <path id="Trazado_1262404" data-name="Trazado 1262404" d="M57.427,34.665a3.71,3.71,0,0,0-5.252,0V39.2h5.252Z" transform="translate(69.018 44.415)" fill="#36dbe6"/>
              <path id="Trazado_1262405" data-name="Trazado 1262405" d="M55.672,33.9a3.681,3.681,0,0,0-3.015,0V39.2h3.015Z" transform="translate(69.655 44.414)" fill="#0a4666"/>
              <path id="Trazado_1262406" data-name="Trazado 1262406" d="M55.419,34.118a3.707,3.707,0,0,1,3.707,3.707v1.921H51.709V37.825a3.709,3.709,0,0,1,3.71-3.707" transform="translate(68.401 45.132)" fill="#e2e2e2"/>
              <path id="Trazado_1262407" data-name="Trazado 1262407" d="M52.287,37.125a2.367,2.367,0,1,1,2.367,2.367,2.366,2.366,0,0,1-2.367-2.367" transform="translate(69.166 45.979)" fill="#0a4666"/>
              <path id="Trazado_1262408" data-name="Trazado 1262408" d="M54.493,38.214a2.361,2.361,0,0,0,2.081-1.245,2.364,2.364,0,0,0-4.165,0,2.362,2.362,0,0,0,2.084,1.245" transform="translate(69.327 47.256)" fill="#a6cdec"/>
              <path id="Trazado_1262409" data-name="Trazado 1262409" d="M51.908,39.758h9.2a1.022,1.022,0,0,0,1.022-1.022V37.458H50.886v1.278A1.022,1.022,0,0,0,51.908,39.758Z" transform="translate(67.312 49.55)" fill="#dcdcdc"/>
              <path id="Trazado_1262410" data-name="Trazado 1262410" d="M52.617,39.758h5.319a.8.8,0,0,0,.8-.8v-1.5H51.816v1.5A.8.8,0,0,0,52.617,39.758Z" transform="translate(68.543 49.55)" fill="#e2e2e2"/>
              <path id="Trazado_1262411" data-name="Trazado 1262411" d="M54.015,41.241a1.244,1.244,0,1,1-1.245,1.245,1.243,1.243,0,0,1,1.245-1.245" transform="translate(69.805 54.554)" fill="#fff"/>
              <path id="Trazado_1262412" data-name="Trazado 1262412" d="M54.015,39.218a1.244,1.244,0,1,1-1.245,1.245,1.243,1.243,0,0,1,1.245-1.245" transform="translate(69.805 51.878)" fill="#fff"/>
              <path id="Trazado_1262413" data-name="Trazado 1262413" d="M58.258,37.158a1.828,1.828,0,0,0,1.828-1.828H56.43a1.828,1.828,0,0,0,1.828,1.828" transform="translate(74.646 46.735)" fill="#dcdcdc"/>
              <path id="Trazado_1262414" data-name="Trazado 1262414" d="M56.683,37.158a1.828,1.828,0,0,0,1.828-1.828H54.855a1.83,1.83,0,0,0,1.828,1.828" transform="translate(72.563 46.735)" fill="#dcdcdc"/>
              <path id="Trazado_1262415" data-name="Trazado 1262415" d="M52.01,37.158a1.828,1.828,0,0,0,1.828-1.828H50.182a1.828,1.828,0,0,0,1.828,1.828" transform="translate(66.381 46.735)" fill="#dcdcdc"/>
              <path id="Trazado_1262416" data-name="Trazado 1262416" d="M50.436,37.158a1.828,1.828,0,0,0,1.828-1.828H48.608a1.828,1.828,0,0,0,1.828,1.828" transform="translate(64.299 46.735)" fill="#dcdcdc"/>
              <path id="Trazado_1262417" data-name="Trazado 1262417" d="M50.035,37.861h18.81a1.68,1.68,0,0,0,1.368-.708H48.667a1.68,1.68,0,0,0,1.368.708" transform="translate(64.377 49.147)" fill="#e5e5e5"/>
              <path id="Trazado_1262418" data-name="Trazado 1262418" d="M52.43,27.481h7.222a1.192,1.192,0,1,1,0,2.383H52.43a1.192,1.192,0,1,1,0-2.383" transform="translate(67.778 36.353)" fill="#e2e2e2"/>
              <path id="Trazado_1262419" data-name="Trazado 1262419" d="M52.43,28.463h7.222a1.186,1.186,0,0,1,1.085.7,1.187,1.187,0,0,0-1.085-1.684H52.43a1.191,1.191,0,0,0-1.085,1.684,1.191,1.191,0,0,1,1.085-.7" transform="translate(67.778 36.351)" fill="#dcdcdc"/>
              <path id="Trazado_1262420" data-name="Trazado 1262420" d="M146.191,54.918H3.812a3.811,3.811,0,1,1,0-7.621H146.191a3.811,3.811,0,0,1,0,7.621" transform="translate(0 62.565)" fill="#0a4666"/>
              <path id="Trazado_1262421" data-name="Trazado 1262421" d="M146.189,50.023H3.81a3.812,3.812,0,0,1-3.3-1.9,3.814,3.814,0,0,0,3.3,5.716H146.189a3.81,3.81,0,0,0,3.3-5.716,3.812,3.812,0,0,1-3.3,1.9" transform="translate(0.001 63.651)" fill="#aaca79"/>
              <rect id="Rectángulo_460973" data-name="Rectángulo 460973" width="7.621" height="19.407" transform="translate(83.01 129.434)" fill="#0a4666"/>
              <rect id="Rectángulo_460974" data-name="Rectángulo 460974" width="3.231" height="19.407" transform="translate(83.013 129.432)" fill="#aaca79"/>
              <path id="Trazado_1262422" data-name="Trazado 1262422" d="M35.762,74.366H61.374A1.523,1.523,0,0,0,62.9,72.842a8.763,8.763,0,0,0-8.764-8.764H35.762A1.524,1.524,0,0,0,34.241,65.6v7.24A1.524,1.524,0,0,0,35.762,74.366Z" transform="translate(45.294 84.763)" fill="#576577"/>
              <path id="Trazado_1262423" data-name="Trazado 1262423" d="M61.375,67.259H35.764a1.525,1.525,0,0,1-1.524-1.524V70.65a1.525,1.525,0,0,0,1.524,1.524H61.375A1.525,1.525,0,0,0,62.9,70.65a8.731,8.731,0,0,0-.776-3.6,1.522,1.522,0,0,1-.748.2" transform="translate(45.293 86.955)" fill="#38495e"/>
              <path id="Trazado_1262424" data-name="Trazado 1262424" d="M41.39,68.211a3.2,3.2,0,1,1-3.2-3.2,3.2,3.2,0,0,1,3.2,3.2" transform="translate(46.298 86.003)" fill="#fff"/>
              <path id="Trazado_1262425" data-name="Trazado 1262425" d="M38.2,67.3a3.179,3.179,0,0,1-2.753-1.6,3.2,3.2,0,1,0,5.505,0A3.182,3.182,0,0,1,38.2,67.3Z" transform="translate(46.298 86.913)" fill="#fff"/>
              <path id="Trazado_1262426" data-name="Trazado 1262426" d="M45.57,67.153H41.684a1.793,1.793,0,0,1-1.793-1.793V64.078h7.475V65.36a1.8,1.8,0,0,1-1.8,1.793" transform="translate(52.768 84.763)" fill="#38495e"/>
              <rect id="Rectángulo_460975" data-name="Rectángulo 460975" width="7.621" height="19.407" transform="translate(59.369 129.432)" fill="#0a4666"/>
              <rect id="Rectángulo_460976" data-name="Rectángulo 460976" width="3.231" height="19.407" transform="translate(63.759 129.432)" fill="#aaca79"/>
              <path id="Trazado_1262427" data-name="Trazado 1262427" d="M45.133,74.366H19.524A1.525,1.525,0,0,1,18,72.842a8.765,8.765,0,0,1,8.766-8.764H45.133A1.525,1.525,0,0,1,46.657,65.6v7.24A1.522,1.522,0,0,1,45.133,74.366Z" transform="translate(23.808 84.763)" fill="#576577"/>
              <path id="Trazado_1262428" data-name="Trazado 1262428" d="M19.523,67.259H45.132a1.525,1.525,0,0,0,1.526-1.524V70.65a1.525,1.525,0,0,1-1.526,1.524H19.523A1.525,1.525,0,0,1,18,70.65a8.731,8.731,0,0,1,.776-3.6A1.515,1.515,0,0,0,19.523,67.259Z" transform="translate(23.809 86.955)" fill="#38495e"/>
              <path id="Trazado_1262429" data-name="Trazado 1262429" d="M26.826,68.211a3.2,3.2,0,1,0,3.2-3.2,3.2,3.2,0,0,0-3.2,3.2" transform="translate(35.486 86.003)" fill="#fff"/>
              <path id="Trazado_1262430" data-name="Trazado 1262430" d="M30.022,67.3a3.179,3.179,0,0,0,2.753-1.6,3.2,3.2,0,1,1-5.505,0,3.182,3.182,0,0,0,2.753,1.6" transform="translate(35.486 86.913)" fill="#fff"/>
              <path id="Trazado_1262431" data-name="Trazado 1262431" d="M23.264,67.153H27.15a1.793,1.793,0,0,0,1.793-1.793V64.078H21.468V65.36A1.8,1.8,0,0,0,23.264,67.153Z" transform="translate(28.398 84.763)" fill="#38495e"/>
              <rect id="Rectángulo_460977" data-name="Rectángulo 460977" width="8.971" height="4.546" transform="translate(70.516 41.848)" fill="#0a4666"/>
              <path id="Trazado_1262432" data-name="Trazado 1262432" d="M54.778,37.654H29.439a4.573,4.573,0,0,1-4.574-4.571V7.741A4.573,4.573,0,0,1,29.439,3.17h25.34a4.573,4.573,0,0,1,4.574,4.571V33.083a4.573,4.573,0,0,1-4.574,4.571" transform="translate(32.892 4.194)" fill="#38495e"/>
              <path id="Trazado_1262433" data-name="Trazado 1262433" d="M49.285,37.654H30.553a4.03,4.03,0,0,1-4.032-4.03V7.2a4.028,4.028,0,0,1,4.032-4.03H49.285a4.029,4.029,0,0,1,4.03,4.03V33.624a4.031,4.031,0,0,1-4.03,4.03" transform="translate(35.082 4.194)" fill="#576577"/>
              <path id="Trazado_1262434" data-name="Trazado 1262434" d="M54.778,19.222H29.439a4.573,4.573,0,0,1-4.574-4.574V17.9a4.573,4.573,0,0,0,4.574,4.574h25.34A4.575,4.575,0,0,0,59.352,17.9V14.648A4.575,4.575,0,0,1,54.778,19.222Z" transform="translate(32.892 19.377)" fill="#12263f"/>
              <path id="Trazado_1262435" data-name="Trazado 1262435" d="M37.867,12.174A5.586,5.586,0,1,1,32.28,6.588a5.587,5.587,0,0,1,5.586,5.586" transform="translate(35.311 8.715)" fill="#38495e"/>
              <path id="Trazado_1262436" data-name="Trazado 1262436" d="M44.245,12.174a5.586,5.586,0,1,1-5.586-5.586,5.587,5.587,0,0,1,5.586,5.586" transform="translate(43.748 8.715)" fill="#38495e"/>
              <path id="Trazado_1262437" data-name="Trazado 1262437" d="M37.867,11.787A5.586,5.586,0,1,1,32.28,6.2a5.587,5.587,0,0,1,5.586,5.586" transform="translate(35.311 8.203)" fill="#0a4666"/>
              <path id="Trazado_1262438" data-name="Trazado 1262438" d="M32.283,12.936a5.583,5.583,0,0,1-5.51-4.708,5.484,5.484,0,0,0-.079.878,5.588,5.588,0,0,0,11.175,0,5.483,5.483,0,0,0-.077-.878,5.579,5.579,0,0,1-5.51,4.708" transform="translate(35.311 10.885)" fill="#36dbe6"/>
              <path id="Trazado_1262439" data-name="Trazado 1262439" d="M44.245,11.787A5.586,5.586,0,1,1,38.658,6.2a5.587,5.587,0,0,1,5.586,5.586" transform="translate(43.748 8.203)" fill="#0a4666"/>
              <path id="Trazado_1262440" data-name="Trazado 1262440" d="M38.659,12.936a5.583,5.583,0,0,1-5.51-4.708,5.484,5.484,0,0,0-.077.878,5.586,5.586,0,1,0,11.173,0,5.483,5.483,0,0,0-.077-.878,5.581,5.581,0,0,1-5.51,4.708" transform="translate(43.749 10.885)" fill="#36dbe6"/>
              <path id="Trazado_1262441" data-name="Trazado 1262441" d="M29.739,18.877a1.457,1.457,0,0,1-1.456-1.456V14.054a1.456,1.456,0,1,1,2.913,0V17.42a1.457,1.457,0,0,1-1.456,1.456" transform="translate(37.413 16.665)" fill="#12263f"/>
              <path id="Trazado_1262442" data-name="Trazado 1262442" d="M31.991,18.877a1.457,1.457,0,0,1-1.456-1.456V14.054a1.458,1.458,0,0,1,2.915,0V17.42a1.458,1.458,0,0,1-1.459,1.456" transform="translate(40.392 16.665)" fill="#12263f"/>
              <path id="Trazado_1262443" data-name="Trazado 1262443" d="M34.244,18.877a1.457,1.457,0,0,1-1.456-1.456V14.054a1.456,1.456,0,1,1,2.913,0V17.42a1.454,1.454,0,0,1-1.456,1.456" transform="translate(43.372 16.665)" fill="#12263f"/>
              <path id="Trazado_1262444" data-name="Trazado 1262444" d="M36.5,18.877A1.457,1.457,0,0,1,35.04,17.42V14.054a1.456,1.456,0,1,1,2.913,0V17.42A1.456,1.456,0,0,1,36.5,18.877" transform="translate(46.351 16.665)" fill="#12263f"/>
              <path id="Trazado_1262445" data-name="Trazado 1262445" d="M39.126,9.93A2.325,2.325,0,1,1,36.8,7.605,2.325,2.325,0,0,1,39.126,9.93" transform="translate(45.605 10.06)" fill="#576577"/>
              <path id="Trazado_1262446" data-name="Trazado 1262446" d="M36.8,9.414A2.318,2.318,0,0,1,34.744,8.15a2.3,2.3,0,0,0-.267,1.059,2.325,2.325,0,1,0,4.65,0A2.3,2.3,0,0,0,38.86,8.15,2.318,2.318,0,0,1,36.8,9.414Z" transform="translate(45.606 10.781)" fill="#38495e"/>
              <path id="Trazado_1262447" data-name="Trazado 1262447" d="M29.443,15.464h-2.6a5.388,5.388,0,0,1-5.382-5.382V6.572a1.793,1.793,0,0,1,3.586,0v3.51a1.8,1.8,0,0,0,1.8,1.793h2.6a1.794,1.794,0,0,1,0,3.589Z" transform="translate(28.387 6.322)" fill="#576577"/>
              <path id="Trazado_1262448" data-name="Trazado 1262448" d="M22.233,10.081a3.59,3.59,0,0,0,3.589,3.589h4.395a1.793,1.793,0,0,0-1.793-1.793h-2.6a1.8,1.8,0,0,1-1.793-1.8V6.573A1.791,1.791,0,0,0,22.235,4.78v5.3Z" transform="translate(29.41 6.323)" fill="#38495e"/>
              <path id="Trazado_1262449" data-name="Trazado 1262449" d="M24.4,3.91a3.812,3.812,0,1,1-3.812,3.812A3.813,3.813,0,0,1,24.4,3.91" transform="translate(27.239 5.173)" fill="#fff"/>
              <path id="Trazado_1262450" data-name="Trazado 1262450" d="M24.4,7.718a3.8,3.8,0,0,1-3.617-2.662,3.765,3.765,0,0,0-.2,1.15,3.812,3.812,0,0,0,7.623,0,3.766,3.766,0,0,0-.2-1.15A3.8,3.8,0,0,1,24.4,7.718" transform="translate(27.239 6.689)" fill="#fff"/>
              <path id="Trazado_1262451" data-name="Trazado 1262451" d="M40.7,15.464h2.6a5.388,5.388,0,0,0,5.382-5.382V6.572a1.793,1.793,0,1,0-3.586,0v3.51a1.8,1.8,0,0,1-1.8,1.793H40.7a1.794,1.794,0,0,0,0,3.589Z" transform="translate(51.468 6.322)" fill="#576577"/>
              <path id="Trazado_1262452" data-name="Trazado 1262452" d="M46.891,10.081A3.59,3.59,0,0,1,43.3,13.669H38.907A1.793,1.793,0,0,1,40.7,11.876h2.6a1.8,1.8,0,0,0,1.793-1.8V6.573a1.793,1.793,0,0,1,1.8-1.793v5.3Z" transform="translate(51.466 6.323)" fill="#38495e"/>
              <path id="Trazado_1262453" data-name="Trazado 1262453" d="M44.515,3.91A3.812,3.812,0,1,1,40.7,7.722,3.813,3.813,0,0,1,44.515,3.91" transform="translate(53.842 5.173)" fill="#fff"/>
              <path id="Trazado_1262454" data-name="Trazado 1262454" d="M44.515,7.718a3.8,3.8,0,0,0,3.617-2.662,3.766,3.766,0,0,1,.2,1.15,3.812,3.812,0,1,1-7.623,0,3.766,3.766,0,0,1,.2-1.15,3.8,3.8,0,0,0,3.617,2.662" transform="translate(53.842 6.689)" fill="#fff"/>
              <path id="Trazado_1262455" data-name="Trazado 1262455" d="M32.748,9.93a2.325,2.325,0,1,1-2.325-2.325A2.325,2.325,0,0,1,32.748,9.93" transform="translate(37.168 10.06)" fill="#576577"/>
              <path id="Trazado_1262456" data-name="Trazado 1262456" d="M30.424,9.414A2.318,2.318,0,0,1,28.366,8.15,2.267,2.267,0,0,0,28.1,9.209a2.325,2.325,0,1,0,4.65,0,2.3,2.3,0,0,0-.267-1.059,2.321,2.321,0,0,1-2.058,1.264" transform="translate(37.17 10.781)" fill="#38495e"/>
              <path id="Trazado_1262457" data-name="Trazado 1262457" d="M36.015,0a6.543,6.543,0,0,0-6.543,6.543v.82H42.559v-.82A6.543,6.543,0,0,0,36.015,0" transform="translate(38.986 0)" fill="#e5e5e5"/>
              <path id="Trazado_1262458" data-name="Trazado 1262458" d="M35.441.315A5.534,5.534,0,0,0,29.906,5.85V6.944H40.979V5.85A5.538,5.538,0,0,0,35.441.315" transform="translate(39.56 0.417)" fill="#e2e2e2"/>
              <path id="Trazado_1262459" data-name="Trazado 1262459" d="M33.935,1.77a2.89,2.89,0,0,0-2.89,2.89v.362h5.779V4.66a2.89,2.89,0,0,0-2.89-2.89" transform="translate(41.067 2.342)" fill="#dcdcdc"/>
              <path id="Trazado_1262460" data-name="Trazado 1262460" d="M67.787,103.011H25.869A4.572,4.572,0,0,1,21.3,98.44V24.547a4.571,4.571,0,0,1,4.571-4.574H67.787a4.571,4.571,0,0,1,4.569,4.574V98.44a4.569,4.569,0,0,1-4.569,4.571" transform="translate(28.173 26.421)" fill="#576577"/>
              <path id="Trazado_1262461" data-name="Trazado 1262461" d="M67.787,55.817H25.869A4.573,4.573,0,0,1,21.3,51.243v5.833a4.571,4.571,0,0,0,4.571,4.571H67.787a4.569,4.569,0,0,0,4.569-4.571V51.243a4.571,4.571,0,0,1-4.569,4.574" transform="translate(28.173 67.785)" fill="#12263f"/>
              <rect id="Rectángulo_460978" data-name="Rectángulo 460978" width="51.062" height="3.556" transform="translate(49.469 111.895)" fill="#12263f"/>
              <rect id="Rectángulo_460979" data-name="Rectángulo 460979" width="51.062" height="3.556" transform="translate(49.469 110.101)" fill="#38495e"/>
              <path id="Trazado_1262462" data-name="Trazado 1262462" d="M30.241,32.431a2.28,2.28,0,1,1-2.281,2.281,2.282,2.282,0,0,1,2.281-2.281" transform="translate(36.986 42.9)" fill="#38495e"/>
              <path id="Trazado_1262463" data-name="Trazado 1262463" d="M35.865,34.711a2.279,2.279,0,1,1-2.279-2.281A2.28,2.28,0,0,1,35.865,34.711Z" transform="translate(41.414 42.899)" fill="#38495e"/>
              <path id="Trazado_1262464" data-name="Trazado 1262464" d="M36.934,32.431a2.28,2.28,0,1,1-2.281,2.281,2.282,2.282,0,0,1,2.281-2.281" transform="translate(45.839 42.9)" fill="#38495e"/>
              <path id="Trazado_1262465" data-name="Trazado 1262465" d="M30.241,32.045a2.28,2.28,0,1,1-2.281,2.281,2.282,2.282,0,0,1,2.281-2.281" transform="translate(36.986 42.39)" fill="#fff"/>
              <path id="Trazado_1262466" data-name="Trazado 1262466" d="M35.865,34.324a2.279,2.279,0,1,1-2.279-2.279,2.28,2.28,0,0,1,2.279,2.279" transform="translate(41.414 42.39)" fill="#fff"/>
              <path id="Trazado_1262467" data-name="Trazado 1262467" d="M36.934,32.045a2.28,2.28,0,1,1-2.281,2.281,2.282,2.282,0,0,1,2.281-2.281" transform="translate(45.839 42.39)" fill="#fff"/>
              <path id="Trazado_1262468" data-name="Trazado 1262468" d="M29.6,32.087a2.134,2.134,0,0,0-.841,0v2.237H29.6Z" transform="translate(38.045 42.39)" fill="#fff"/>
              <path id="Trazado_1262469" data-name="Trazado 1262469" d="M32.95,32.087a2.146,2.146,0,0,0-.843,0v2.237h.843Z" transform="translate(42.471 42.39)" fill="#fff"/>
              <path id="Trazado_1262470" data-name="Trazado 1262470" d="M36.3,32.087a2.134,2.134,0,0,0-.841,0v2.237H36.3Z" transform="translate(46.9 42.39)" fill="#fff"/>
              <path id="Trazado_1262471" data-name="Trazado 1262471" d="M56.651,40.414H27.818a3.048,3.048,0,0,1-3.048-3.048V26.38a3.047,3.047,0,0,1,3.048-3.05H56.651A3.048,3.048,0,0,1,59.7,26.38V37.367a3.045,3.045,0,0,1-3.048,3.048" transform="translate(32.766 30.862)" fill="#38495e"/>
              <path id="Trazado_1262472" data-name="Trazado 1262472" d="M56.651,39.642H27.818a3.048,3.048,0,0,1-3.048-3.048V25.608a3.048,3.048,0,0,1,3.048-3.05H56.651a3.048,3.048,0,0,1,3.048,3.05V36.595a3.046,3.046,0,0,1-3.048,3.048" transform="translate(32.766 29.84)" fill="#0a4666"/>
              <rect id="Rectángulo_460980" data-name="Rectángulo 460980" width="34.93" height="1.178" transform="translate(57.535 60.207)" fill="#36dbe6"/>
              <path id="Trazado_1262473" data-name="Trazado 1262473" d="M29.571,34.4a1.045,1.045,0,0,0,1.045-1.045V22.944H28.523V33.353A1.047,1.047,0,0,0,29.571,34.4Z" transform="translate(37.73 30.351)" fill="#aaca79"/>
              <path id="Trazado_1262474" data-name="Trazado 1262474" d="M29.571,34.012a1.045,1.045,0,0,0,1.045-1.045V22.558H28.523V32.967A1.047,1.047,0,0,0,29.571,34.012Z" transform="translate(37.73 29.84)" fill="#e2e2e2"/>
              <path id="Trazado_1262475" data-name="Trazado 1262475" d="M56.651,22.557H27.818A3.048,3.048,0,0,0,24.77,25.6v2.766a3.046,3.046,0,0,1,3.048-3.048H56.651A3.046,3.046,0,0,1,59.7,28.371V25.6a3.048,3.048,0,0,0-3.048-3.048" transform="translate(32.766 29.839)" fill="#aaca79"/>
              <rect id="Rectángulo_460981" data-name="Rectángulo 460981" width="2.093" height="2.766" transform="translate(66.253 52.398)" fill="#d3d3d3"/>
              <path id="Trazado_1262476" data-name="Trazado 1262476" d="M28.088,28.044a.952.952,0,0,0-.952.952v3.389h1.9V29A.952.952,0,0,0,28.088,28.044Z" transform="translate(35.896 37.097)" fill="#fff"/>
              <path id="Trazado_1262477" data-name="Trazado 1262477" d="M31.25,28.044A.952.952,0,0,0,30.3,29v3.389h1.9V29A.949.949,0,0,0,31.25,28.044Z" transform="translate(40.078 37.097)" fill="#fff"/>
              <path id="Trazado_1262478" data-name="Trazado 1262478" d="M34.411,28.044a.952.952,0,0,0-.952.952v3.389h1.9V29a.951.951,0,0,0-.952-.952" transform="translate(44.26 37.097)" fill="#fff"/>
              <path id="Trazado_1262479" data-name="Trazado 1262479" d="M37.573,28.044a.951.951,0,0,0-.952.952v3.389h1.9V29a.951.951,0,0,0-.952-.952" transform="translate(48.443 37.097)" fill="#fff"/>
              <path id="Trazado_1262480" data-name="Trazado 1262480" d="M28.938,54.249a7.773,7.773,0,0,0,15.547,0V52.455a7.773,7.773,0,1,0-15.547,0Z" transform="translate(38.279 59.105)" fill="#12263f"/>
              <path id="Trazado_1262481" data-name="Trazado 1262481" d="M44.485,52.455a7.773,7.773,0,1,1-7.772-7.774,7.772,7.772,0,0,1,7.772,7.774" transform="translate(38.279 59.105)" fill="#38495e"/>
              <path id="Trazado_1262482" data-name="Trazado 1262482" d="M41.787,51.477a6.054,6.054,0,1,1-6.056-6.056,6.054,6.054,0,0,1,6.056,6.056" transform="translate(39.258 60.084)" fill="#576577"/>
              <path id="Trazado_1262483" data-name="Trazado 1262483" d="M36.619,50.487H35.4a.529.529,0,0,1-.53-.53v-3.1a.528.528,0,0,0-.938-.334l-2.866,3.542a.53.53,0,0,0,.411.864h1.217a.529.529,0,0,1,.53.527v3.106a.529.529,0,0,0,.941.332l2.866-3.542A.529.529,0,0,0,36.619,50.487Z" transform="translate(40.935 61.278)" fill="#38495e"/>
              <path id="Trazado_1262484" data-name="Trazado 1262484" d="M36.619,50.1H35.4a.529.529,0,0,1-.53-.53v-3.1a.528.528,0,0,0-.938-.334l-2.866,3.542a.528.528,0,0,0,.411.862h1.217a.529.529,0,0,1,.53.53v3.1a.53.53,0,0,0,.941.334l2.866-3.542A.529.529,0,0,0,36.619,50.1Z" transform="translate(40.935 60.767)" fill="#0a4666"/>
              <path id="Trazado_1262485" data-name="Trazado 1262485" d="M33.223,47.881a.529.529,0,0,0-.53-.53H31.474l-.028-.007-.383.474a.53.53,0,0,0,.411.862h1.219a.529.529,0,0,1,.53.527Z" transform="translate(40.935 62.627)" fill="#36dbe6"/>
              <path id="Trazado_1262486" data-name="Trazado 1262486" d="M35.35,47.734,32.867,50.8a.529.529,0,0,1-.941-.332V51.8a.529.529,0,0,0,.941.332l2.866-3.542A.526.526,0,0,0,35.35,47.734Z" transform="translate(42.232 63.143)" fill="#36dbe6"/>
              <path id="Trazado_1262487" data-name="Trazado 1262487" d="M47.629,10.992a1.243,1.243,0,0,1,2,1.4,3.7,3.7,0,0,0,1.854,4.892,1.244,1.244,0,0,1-1.02,2.269,6.183,6.183,0,0,1-3.1-8.183,1.221,1.221,0,0,1,.265-.379" transform="translate(61.926 14.073)" fill="#fff"/>
              <path id="Trazado_1262488" data-name="Trazado 1262488" d="M51.315,18.761A5.011,5.011,0,0,1,48.4,15.653a5.9,5.9,0,0,1,.376-4.5,1.363,1.363,0,0,1,.269-.372l.009-.007a.333.333,0,0,0-.049-.028,1.237,1.237,0,0,0-1.38.244,1.194,1.194,0,0,0-.265.379,6.182,6.182,0,0,0,3.1,8.181,1.245,1.245,0,0,0,1.645-.623,1.364,1.364,0,0,0,.058-.172A1.186,1.186,0,0,1,51.315,18.761Z" transform="translate(61.927 14.073)" fill="#fff"/>
              <path id="Trazado_1262489" data-name="Trazado 1262489" d="M56.514,17.868a1.009,1.009,0,0,1-.369-1.949,3,3,0,0,0,1.7-3.891,1.009,1.009,0,1,1,1.879-.736A5.014,5.014,0,0,1,56.883,17.8a1.03,1.03,0,0,1-.369.07" transform="translate(73.421 14.089)" fill="#576577"/>
              <path id="Trazado_1262490" data-name="Trazado 1262490" d="M59.548,11.29a1.009,1.009,0,0,0-1.287-.576.981.981,0,0,1,.42.525,5.009,5.009,0,0,1-3.045,6.341,1.011,1.011,0,0,0,.7.288,1.04,1.04,0,0,0,.369-.07,5.023,5.023,0,0,0,2.838-6.509Z" transform="translate(73.596 14.091)" fill="#38495e"/>
              <path id="Trazado_1262491" data-name="Trazado 1262491" d="M66.882,21.662H53.561a5.484,5.484,0,0,1-5.484-5.484V14.933h24.29v1.245a5.484,5.484,0,0,1-5.484,5.484" transform="translate(63.597 19.754)" fill="#fff"/>
              <path id="Trazado_1262492" data-name="Trazado 1262492" d="M56.55,11.837a3.007,3.007,0,0,1,.158,1.64h2.039A4.993,4.993,0,0,0,58.43,11.1a1.092,1.092,0,0,0-.19-.3h-1.5a1.006,1.006,0,0,0-.19,1.041" transform="translate(74.714 14.281)" fill="#12263f"/>
              <path id="Trazado_1262493" data-name="Trazado 1262493" d="M67.335,12.677a4.976,4.976,0,0,0-2.135.481v-.007c-.06.033-.121.063-.184.093-.037.021-.077.039-.112.06a9.641,9.641,0,0,1-9.368,0c-.037-.021-.074-.039-.114-.06-.06-.03-.121-.06-.181-.093v.007a4.976,4.976,0,0,0-2.135-.481,5.031,5.031,0,1,0,2.135,9.582v.007c.06-.035.121-.063.181-.1.039-.019.077-.037.114-.058a9.641,9.641,0,0,1,9.368,0c.037.021.074.039.112.058.063.033.123.06.184.1v-.007a5.029,5.029,0,1,0,2.135-9.582" transform="translate(63.597 16.77)" fill="#fff"/>
              <path id="Trazado_1262494" data-name="Trazado 1262494" d="M67.335,12.677a4.976,4.976,0,0,0-2.135.481v-.007c-.06.033-.121.063-.184.093-.037.021-.077.039-.112.06a9.641,9.641,0,0,1-9.368,0c-.037-.021-.074-.039-.114-.06-.06-.03-.121-.06-.181-.093v.007a4.976,4.976,0,0,0-2.135-.481,5.031,5.031,0,1,0,2.135,9.582v.007c.06-.035.121-.063.181-.1.039-.019.077-.037.114-.058a9.641,9.641,0,0,1,9.368,0c.037.021.074.039.112.058.063.033.123.06.184.1v-.007a5.029,5.029,0,1,0,2.135-9.582" transform="translate(63.597 16.77)" fill="#fff"/>
              <path id="Trazado_1262495" data-name="Trazado 1262495" d="M53.108,14.585a4.976,4.976,0,0,1,2.135.481v-.007c.06.033.123.063.184.093.037.021.074.039.114.06a9.632,9.632,0,0,0,9.363,0c.042-.021.077-.039.114-.06.06-.03.123-.06.186-.093v.007a4.973,4.973,0,0,1,2.132-.481,5.031,5.031,0,0,1,4.938,4.077,4.965,4.965,0,0,0,.1-.955,5.022,5.022,0,0,0-7.166-4.55V13.15c-.063.035-.125.063-.186.1L64.9,13.3a9.62,9.62,0,0,1-9.363,0l-.114-.058c-.06-.033-.123-.06-.184-.1v.007a5.022,5.022,0,0,0-7.166,4.55,4.787,4.787,0,0,0,.1.955,5.031,5.031,0,0,1,4.936-4.077" transform="translate(63.597 16.768)" fill="#fff"/>
              <path id="Trazado_1262496" data-name="Trazado 1262496" d="M56.33,6.407a.249.249,0,0,0-.249.249v3.963h2.211V8.372A1.962,1.962,0,0,0,56.33,6.407Z" transform="translate(74.184 8.476)" fill="#fff"/>
              <path id="Trazado_1262497" data-name="Trazado 1262497" d="M56.33,6.407a.249.249,0,0,0-.249.249V7.45A.249.249,0,0,1,56.33,7.2a1.966,1.966,0,0,1,1.965,1.965V8.372A1.966,1.966,0,0,0,56.33,6.407" transform="translate(74.184 8.476)" fill="#fff"/>
              <path id="Trazado_1262498" data-name="Trazado 1262498" d="M68.227,16.134H57.3a1.222,1.222,0,0,1-1.222-1.222V8.994a1.224,1.224,0,0,1,1.577-1.171l8.432,2.555a4.735,4.735,0,0,1,3.363,4.534A1.22,1.22,0,0,1,68.227,16.134Z" transform="translate(74.178 10.279)" fill="#fff"/>
              <path id="Trazado_1262499" data-name="Trazado 1262499" d="M68.227,11.211H57.3a1.222,1.222,0,0,1-1.222-1.222v1.986A1.22,1.22,0,0,0,57.3,13.2H68.227a1.22,1.22,0,0,0,1.222-1.222,4.694,4.694,0,0,0-.2-1.331A1.217,1.217,0,0,1,68.227,11.211Z" transform="translate(74.178 13.214)" fill="#fff"/>
              <path id="Trazado_1262500" data-name="Trazado 1262500" d="M64.431,10.117,57.326,7.966v2.769a1.889,1.889,0,0,0,1.891,1.891h8.121A4.739,4.739,0,0,0,64.431,10.117Z" transform="translate(75.831 10.538)" fill="#576577"/>
              <path id="Trazado_1262501" data-name="Trazado 1262501" d="M60.687,9.471,57.326,8.454v1.635a1.891,1.891,0,0,0,1.893,1.891h4.374a4.739,4.739,0,0,0-2.906-2.509" transform="translate(75.831 11.183)" fill="#38495e"/>
              <path id="Trazado_1262502" data-name="Trazado 1262502" d="M54.28,15.2c-1.786-1.213-4.323-.964-5.243.908a3.536,3.536,0,0,0-.086,2.685,8.068,8.068,0,0,0,5.2,4.98c4.011,1.357,2.894-4.518,2.269-6.011A6.171,6.171,0,0,0,54.28,15.2" transform="translate(64.46 19.118)" fill="#576577"/>
              <rect id="Rectángulo_460982" data-name="Rectángulo 460982" width="2.183" height="3.248" transform="matrix(0.681, -0.732, 0.732, 0.681, 114.564, 47.986)" fill="#576577"/>
              <rect id="Rectángulo_460983" data-name="Rectángulo 460983" width="0.822" height="3.248" transform="matrix(0.681, -0.732, 0.732, 0.681, 114.495, 48.022)" fill="#38495e"/>
              <path id="Trazado_1262503" data-name="Trazado 1262503" d="M55.828,22.636a8.07,8.07,0,0,1-5.205-4.982,3.53,3.53,0,0,1,.088-2.683,3.007,3.007,0,0,1,.3-.472,2.9,2.9,0,0,0-1.97,1.545,3.53,3.53,0,0,0-.088,2.683,8.08,8.08,0,0,0,5.205,4.982c1.484.5,2.265.012,2.629-.878A3.484,3.484,0,0,1,55.828,22.636Z" transform="translate(64.459 19.18)" fill="#38495e"/>
              <path id="Trazado_1262504" data-name="Trazado 1262504" d="M52.8,25.6a2.316,2.316,0,0,0,.495-.885l0,0c.007-.033.016-.063.023-.093l.016-.058a4.467,4.467,0,0,1,2.9-3.231l.053-.021.088-.035a2.334,2.334,0,1,0-3.143-2.818l0,0-.023.093-.016.056a4.463,4.463,0,0,1-2.9,3.233l-.056.021c-.03.009-.058.021-.088.033l0,0A2.331,2.331,0,1,0,52.8,25.6" transform="translate(64.46 22.23)" fill="#fff"/>
              <path id="Trazado_1262505" data-name="Trazado 1262505" d="M56.766,17.232a2.373,2.373,0,0,0-.423-.3,2.332,2.332,0,0,1-.969,3.531h0l-.088.035-.056.021a4.46,4.46,0,0,0-2.9,3.231l-.016.058c-.007.03-.016.06-.023.093v0a2.33,2.33,0,0,1-3.37,1.361,2.339,2.339,0,0,0,3.614.174,2.275,2.275,0,0,0,.5-.885v0l.026-.093.014-.056a4.475,4.475,0,0,1,2.9-3.233l.053-.021c.03-.009.058-.023.091-.033l0,0a2.331,2.331,0,0,0,.648-3.881" transform="translate(64.717 22.398)" fill="#fff"/>
              <path id="Trazado_1262506" data-name="Trazado 1262506" d="M53.671,18.1a1.308,1.308,0,1,0-.79,1.672,1.306,1.306,0,0,0,.79-1.672m-1,1.087a.686.686,0,1,1,.413-.878.687.687,0,0,1-.413.878" transform="translate(67.638 22.801)" fill="#fff"/>
              <path id="Trazado_1262507" data-name="Trazado 1262507" d="M50.094,22.806a.758.758,0,0,0,.019.609.854.854,0,0,0,.627.3,19.842,19.842,0,0,0,4,.216,2.12,2.12,0,0,0,1.078-.258,1.309,1.309,0,0,0,.527-1.271,1.847,1.847,0,0,0-.76-1.192,3.245,3.245,0,0,0-1.331-.546,3.923,3.923,0,0,0-2.611.23A3.235,3.235,0,0,0,50.094,22.806Z" transform="translate(66.193 27.183)" fill="#fff"/>
              <path id="Trazado_1262508" data-name="Trazado 1262508" d="M56.264,21.219a1.192,1.192,0,0,1-.451.583,2.131,2.131,0,0,1-1.078.256,19.842,19.842,0,0,1-4-.216,1.021,1.021,0,0,1-.544-.211c-.037.1-.072.193-.1.293a.752.752,0,0,0,.019.606.833.833,0,0,0,.625.3,19.853,19.853,0,0,0,4,.218,2.147,2.147,0,0,0,1.08-.258,1.311,1.311,0,0,0,.527-1.271A1.674,1.674,0,0,0,56.264,21.219Z" transform="translate(66.194 28.069)" fill="#fff"/>
              <path id="Trazado_1262509" data-name="Trazado 1262509" d="M56.863,15.874c1.607-1.089,3.893-.869,4.722.818a3.187,3.187,0,0,1,.079,2.416,7.271,7.271,0,0,1-4.687,4.488c-3.612,1.219-2.6-4.07-2.042-5.414A5.519,5.519,0,0,1,56.863,15.874Z" transform="translate(71.915 20.114)" fill="#576577"/>
              <rect id="Rectángulo_460984" data-name="Rectángulo 460984" width="1.964" height="2.925" transform="matrix(0.681, -0.732, 0.732, 0.681, 130.983, 48.287)" fill="#576577"/>
              <rect id="Rectángulo_460985" data-name="Rectángulo 460985" width="0.742" height="2.925" transform="translate(130.905 48.322) rotate(-47.028)" fill="#38495e"/>
              <path id="Trazado_1262510" data-name="Trazado 1262510" d="M55.333,22.574a7.263,7.263,0,0,0,4.687-4.485,3.182,3.182,0,0,0-.079-2.418,2.541,2.541,0,0,0-.269-.425,2.624,2.624,0,0,1,1.775,1.391,3.186,3.186,0,0,1,.079,2.416,7.273,7.273,0,0,1-4.687,4.485c-1.336.453-2.039.012-2.367-.787A3.159,3.159,0,0,0,55.333,22.574Z" transform="translate(72.055 20.168)" fill="#38495e"/>
              <path id="Trazado_1262511" data-name="Trazado 1262511" d="M58.58,25.247a2.079,2.079,0,0,1-.446-.8l0,0-.021-.084-.014-.051a4.018,4.018,0,0,0-2.611-2.91l-.049-.019-.081-.03,0,0a2.065,2.065,0,0,1-.743-.53,2.1,2.1,0,1,1,3.57-2.009l0,0c.007.03.016.056.023.084l.012.051a4.021,4.021,0,0,0,2.613,2.91l.049.019.079.03,0,0a2.122,2.122,0,0,1,.746.53,2.1,2.1,0,0,1-3.127,2.806" transform="translate(71.534 22.917)" fill="#fff"/>
              <path id="Trazado_1262512" data-name="Trazado 1262512" d="M54.774,17.708a2.089,2.089,0,0,1,.379-.269,2.088,2.088,0,0,0,.876,3.175l0,0,.079.03.053.021a4.012,4.012,0,0,1,2.609,2.908l.014.053c.007.028.014.053.023.081v0a2.062,2.062,0,0,0,.446.8,2.1,2.1,0,0,0,2.588.432,2.195,2.195,0,0,1-.29.318,2.1,2.1,0,0,1-2.966-.16,2.16,2.16,0,0,1-.446-.8h0l-.021-.081-.014-.051a4.022,4.022,0,0,0-2.611-2.91l-.049-.019-.081-.03,0,0a2.1,2.1,0,0,1-.583-3.5" transform="translate(71.533 23.069)" fill="#fff"/>
              <path id="Trazado_1262513" data-name="Trazado 1262513" d="M55.2,20a1.179,1.179,0,1,0-.711-1.508A1.181,1.181,0,0,0,55.2,20m-.184-1.317a.618.618,0,1,1,.374.79.62.62,0,0,1-.374-.79" transform="translate(71.982 23.43)" fill="#fff"/>
              <path id="Trazado_1262514" data-name="Trazado 1262514" d="M57.085,22.729a.69.69,0,0,0,.016.548.769.769,0,0,0,.564.269,17.77,17.77,0,0,0,3.6.193,1.923,1.923,0,0,0,.971-.23,1.18,1.18,0,0,0,.476-1.143,1.68,1.68,0,0,0-.685-1.075,2.928,2.928,0,0,0-1.2-.49,3.524,3.524,0,0,0-2.351.207A2.925,2.925,0,0,0,57.085,22.729Z" transform="translate(75.448 27.377)" fill="#fff"/>
              <path id="Trazado_1262515" data-name="Trazado 1262515" d="M62.641,21.3a1.054,1.054,0,0,1-.406.523,1.9,1.9,0,0,1-.969.232,17.955,17.955,0,0,1-3.6-.2.912.912,0,0,1-.49-.188,2.651,2.651,0,0,0-.091.26.69.69,0,0,0,.016.548.76.76,0,0,0,.564.269,17.955,17.955,0,0,0,3.6.2,1.9,1.9,0,0,0,.969-.232,1.178,1.178,0,0,0,.476-1.143A1.211,1.211,0,0,0,62.641,21.3Z" transform="translate(75.448 28.174)" fill="#fff"/>
              <path id="Trazado_1262516" data-name="Trazado 1262516" d="M21.967,33.575H22.98a1.983,1.983,0,0,1,1.984,1.984v8.151H13.108l7.3-9.37a1.976,1.976,0,0,1,1.563-.764" transform="translate(17.339 44.414)" fill="#fff"/>
              <path id="Trazado_1262517" data-name="Trazado 1262517" d="M13.108,39.779H24.964V36.546H15.626Z" transform="translate(17.34 48.343)" fill="#fff"/>
              <path id="Trazado_1262518" data-name="Trazado 1262518" d="M13.8,39.785h2.6a.585.585,0,0,0,.469-.237l2.7-3.621a.587.587,0,0,0-.469-.938h-1.57Z" transform="translate(18.251 46.283)" fill="#fff"/>
              <path id="Trazado_1262519" data-name="Trazado 1262519" d="M20.508,49.095H8.943a1.229,1.229,0,0,1-1.229-1.229V37.873a1.23,1.23,0,0,1,1.229-1.231H20.508a23.962,23.962,0,0,1,14.987,5.266,1.233,1.233,0,0,1,0,1.921A23.962,23.962,0,0,1,20.508,49.095Z" transform="translate(10.204 48.471)" fill="#fff"/>
              <path id="Trazado_1262520" data-name="Trazado 1262520" d="M16.435,45.526H13.973a2.218,2.218,0,0,1-2.218-2.218V42h4.68Z" transform="translate(15.55 55.561)" fill="#576577"/>
              <path id="Trazado_1262521" data-name="Trazado 1262521" d="M11.755,42.179v.9a2.22,2.22,0,0,0,2.218,2.218h2.462v-.9H13.973a2.218,2.218,0,0,1-2.218-2.218" transform="translate(15.55 55.795)" fill="#38495e"/>
              <path id="Trazado_1262522" data-name="Trazado 1262522" d="M30.576,54.329H20.213a46.917,46.917,0,0,0-8.652-13.3H21.923a56.155,56.155,0,0,0,8.652,13.3" transform="translate(15.293 54.277)" fill="#fff"/>
              <path id="Trazado_1262523" data-name="Trazado 1262523" d="M11.561,41.032a46.8,46.8,0,0,1,8.652,13.3h6.042a56.261,56.261,0,0,1-8.655-13.3Z" transform="translate(15.293 54.278)" fill="#fff"/>
              <path id="Trazado_1262524" data-name="Trazado 1262524" d="M26.154,48.347H15.7a.922.922,0,0,1,0-1.844H26.154a.922.922,0,0,1,0,1.844" transform="translate(19.55 61.515)" fill="#fff"/>
              <path id="Trazado_1262525" data-name="Trazado 1262525" d="M26.154,47.254H15.7a.921.921,0,0,1-.829-.525.908.908,0,0,0-.093.4.923.923,0,0,0,.922.922H26.154a.923.923,0,0,0,.922-.922.9.9,0,0,0-.093-.4.921.921,0,0,1-.829.525" transform="translate(19.55 61.814)" fill="#fff"/>
              <path id="Trazado_1262526" data-name="Trazado 1262526" d="M7.714,44.318a1.23,1.23,0,0,0,1.231,1.229H20.51a23.942,23.942,0,0,0,14.984-5.266,1.218,1.218,0,0,0,.462-.959H7.714Z" transform="translate(10.204 52.016)" fill="#fff"/>
              <path id="Trazado_1262527" data-name="Trazado 1262527" d="M16.119,41.373,1.36,40.757V39.375l14.759-.616Z" transform="translate(1.799 51.272)" fill="#fff"/>
              <path id="Trazado_1262528" data-name="Trazado 1262528" d="M1.36,40.156l14.759.616v-.943L1.36,39.215Z" transform="translate(1.799 51.875)" fill="#fff"/>
              <path id="Trazado_1262529" data-name="Trazado 1262529" d="M3.894,40.242a1.614,1.614,0,1,1-1.614-1.614,1.614,1.614,0,0,1,1.614,1.614" transform="translate(0.88 51.098)" fill="#fff"/>
              <path id="Trazado_1262530" data-name="Trazado 1262530" d="M2.279,40.057a1.614,1.614,0,0,1-1.491-1,1.591,1.591,0,0,0-.123.616,1.614,1.614,0,1,0,3.106-.616,1.614,1.614,0,0,1-1.491,1" transform="translate(0.88 51.667)" fill="#fff"/>
              <path id="Trazado_1262531" data-name="Trazado 1262531" d="M6.992,47.687a.923.923,0,0,1-.922-.922V37.95a.922.922,0,0,1,1.844,0v8.815a.923.923,0,0,1-.922.922" transform="translate(8.029 48.981)" fill="#576577"/>
              <path id="Trazado_1262532" data-name="Trazado 1262532" d="M6.992,40.41a.923.923,0,0,1-.922-.922v4.023a.922.922,0,0,0,1.844,0V39.488a.921.921,0,0,1-.922.922" transform="translate(8.029 52.236)" fill="#38495e"/>
              <path id="Trazado_1262533" data-name="Trazado 1262533" d="M5.193,46.238a.922.922,0,0,1-.92-.922V38.347a.921.921,0,1,1,1.842,0v6.968a.921.921,0,0,1-.922.922" transform="translate(5.652 49.507)" fill="#576577"/>
              <path id="Trazado_1262534" data-name="Trazado 1262534" d="M5.193,40.41a.922.922,0,0,1-.92-.922v3.1a.921.921,0,1,0,1.842,0v-3.1a.921.921,0,0,1-.922.922" transform="translate(5.652 52.236)" fill="#38495e"/>
              <path id="Trazado_1262535" data-name="Trazado 1262535" d="M3.4,44.791a.923.923,0,0,1-.924-.922V38.745a.923.923,0,0,1,1.847,0v5.124a.923.923,0,0,1-.922.922" transform="translate(3.273 50.033)" fill="#576577"/>
              <path id="Trazado_1262536" data-name="Trazado 1262536" d="M3.4,40.289a.923.923,0,0,1-.924-.922v2.46a.923.923,0,0,0,1.847,0v-2.46a.923.923,0,0,1-.922.922" transform="translate(3.273 52.075)" fill="#38495e"/>
              <path id="Trazado_1262537" data-name="Trazado 1262537" d="M15.973,41.945H11.246A1.844,1.844,0,0,1,9.4,40.1V36.642h8.416V40.1A1.844,1.844,0,0,1,15.973,41.945Z" transform="translate(12.437 48.471)" fill="#6c7888"/>
              <path id="Trazado_1262538" data-name="Trazado 1262538" d="M9.4,39.291a1.843,1.843,0,0,0,1.844,1.844h4.727a1.844,1.844,0,0,0,1.844-1.844V37.254H9.4Z" transform="translate(12.436 49.28)" fill="#576577"/>
              <path id="Trazado_1262539" data-name="Trazado 1262539" d="M11.6,40.793h-1.41V38.219a.7.7,0,1,1,1.41,0Z" transform="translate(13.475 49.623)" fill="#38495e"/>
              <path id="Trazado_1262540" data-name="Trazado 1262540" d="M13.042,40.793h-1.41V38.219a.7.7,0,1,1,1.41,0Z" transform="translate(15.387 49.623)" fill="#38495e"/>
              <path id="Trazado_1262541" data-name="Trazado 1262541" d="M11.246,39.975h4.727a1.842,1.842,0,0,0,1.842-1.844H9.4A1.844,1.844,0,0,0,11.246,39.975Z" transform="translate(12.437 50.44)" fill="#12263f"/>
              <path id="Trazado_1262542" data-name="Trazado 1262542" d="M14.224,39.335A.337.337,0,0,1,13.887,39v-.964a.337.337,0,1,1,.674,0V39a.337.337,0,0,1-.337.337" transform="translate(18.37 49.864)" fill="#576577"/>
              <path id="Trazado_1262543" data-name="Trazado 1262543" d="M14.7,39.335A.337.337,0,0,1,14.364,39v-.964a.337.337,0,1,1,.674,0V39a.337.337,0,0,1-.337.337" transform="translate(19.001 49.864)" fill="#576577"/>
              <path id="Trazado_1262544" data-name="Trazado 1262544" d="M15.177,39.335A.337.337,0,0,1,14.84,39v-.964a.337.337,0,1,1,.674,0V39a.337.337,0,0,1-.337.337" transform="translate(19.63 49.864)" fill="#576577"/>
              <path id="Trazado_1262545" data-name="Trazado 1262545" d="M15.426,42.758H12.975q.46.617.892,1.233h2.55a.12.12,0,0,0,.121-.121,1.113,1.113,0,0,0-1.113-1.113" transform="translate(17.163 56.561)" fill="#fff"/>
              <path id="Trazado_1262546" data-name="Trazado 1262546" d="M16.116,43.894H13.77c.267.411.523.822.771,1.233h2.567a.121.121,0,0,0,.121-.121,1.111,1.111,0,0,0-1.113-1.113" transform="translate(18.215 58.064)" fill="#fff"/>
              <path id="Trazado_1262547" data-name="Trazado 1262547" d="M18.066,46.144a1.111,1.111,0,0,0-1.113-1.113h-2.5c.23.411.446.822.657,1.233h2.834A.12.12,0,0,0,18.066,46.144Z" transform="translate(19.12 59.568)" fill="#fff"/>
              <path id="Trazado_1262548" data-name="Trazado 1262548" d="M13.12,19.8H7.526a.571.571,0,0,1-.571-.571v-6.45a.571.571,0,0,1,.571-.571h6.45a.572.572,0,0,1,.571.571v5.593A1.426,1.426,0,0,1,13.12,19.8" transform="translate(9.2 16.148)" fill="#0a4666"/>
              <path id="Trazado_1262549" data-name="Trazado 1262549" d="M13.12,15.359H7.526a.571.571,0,0,1-.571-.571V16.95a.571.571,0,0,0,.571.571H13.12a1.428,1.428,0,0,0,1.429-1.429V13.93a1.426,1.426,0,0,1-1.429,1.429" transform="translate(9.2 18.427)" fill="#aaca79"/>
              <path id="Trazado_1262550" data-name="Trazado 1262550" d="M16.389,19.8H11.653a1.429,1.429,0,0,1-1.429-1.429V12.778a.571.571,0,0,1,.571-.571h6.45a.573.573,0,0,1,.574.571v5.593A1.432,1.432,0,0,1,16.389,19.8" transform="translate(13.524 16.148)" fill="#e2e2e2"/>
              <path id="Trazado_1262551" data-name="Trazado 1262551" d="M16.389,15.359H11.653a1.429,1.429,0,0,1-1.429-1.429v2.163a1.427,1.427,0,0,0,1.429,1.429h4.736a1.428,1.428,0,0,0,1.429-1.429V13.93a1.429,1.429,0,0,1-1.429,1.429" transform="translate(13.524 18.427)" fill="#dcdcdc"/>
              <path id="Trazado_1262552" data-name="Trazado 1262552" d="M20.515,19.8H14.922a1.429,1.429,0,0,1-1.429-1.429V12.778a.571.571,0,0,1,.571-.571h6.45a.571.571,0,0,1,.571.571v6.45a.571.571,0,0,1-.571.571" transform="translate(17.849 16.148)" fill="#576577"/>
              <path id="Trazado_1262553" data-name="Trazado 1262553" d="M20.515,15.359H14.922a1.429,1.429,0,0,1-1.429-1.429v2.163a1.429,1.429,0,0,0,1.429,1.429h5.593a.571.571,0,0,0,.571-.571V14.787a.571.571,0,0,1-.571.571" transform="translate(17.849 18.427)" fill="#38495e"/>
              <path id="Trazado_1262554" data-name="Trazado 1262554" d="M13.12,23.072H7.526a.571.571,0,0,1-.571-.571V16.05a.573.573,0,0,1,.571-.574H13.12a1.429,1.429,0,0,1,1.429,1.431v4.734a1.428,1.428,0,0,1-1.429,1.431" transform="translate(9.2 20.472)" fill="#e2e2e2"/>
              <path id="Trazado_1262555" data-name="Trazado 1262555" d="M13.12,18.628H7.526a.571.571,0,0,1-.571-.571v2.165a.571.571,0,0,0,.571.569H13.12a1.428,1.428,0,0,0,1.429-1.429V17.2a1.427,1.427,0,0,1-1.429,1.429" transform="translate(9.2 22.751)" fill="#dcdcdc"/>
              <path id="Trazado_1262556" data-name="Trazado 1262556" d="M16.389,23.07H11.653a1.428,1.428,0,0,1-1.429-1.429V16.906a1.428,1.428,0,0,1,1.429-1.429h4.736a1.428,1.428,0,0,1,1.429,1.429v4.736a1.43,1.43,0,0,1-1.429,1.429" transform="translate(13.524 20.474)" fill="#0a4666"/>
              <path id="Trazado_1262557" data-name="Trazado 1262557" d="M16.389,18.628H11.653A1.428,1.428,0,0,1,10.224,17.2v2.163a1.428,1.428,0,0,0,1.429,1.429h4.736a1.428,1.428,0,0,0,1.429-1.429V17.2a1.43,1.43,0,0,1-1.429,1.429" transform="translate(13.524 22.751)" fill="#aaca79"/>
              <path id="Trazado_1262558" data-name="Trazado 1262558" d="M20.515,23.07H14.922a1.428,1.428,0,0,1-1.429-1.429V16.906a1.429,1.429,0,0,1,1.429-1.429h5.593a.571.571,0,0,1,.571.571V22.5a.571.571,0,0,1-.571.571" transform="translate(17.849 20.474)" fill="#e2e2e2"/>
              <path id="Trazado_1262559" data-name="Trazado 1262559" d="M20.515,18.628H14.922A1.428,1.428,0,0,1,13.493,17.2v2.163a1.429,1.429,0,0,0,1.429,1.429h5.593a.571.571,0,0,0,.571-.569V18.056a.571.571,0,0,1-.571.571" transform="translate(17.849 22.751)" fill="#dcdcdc"/>
              <path id="Trazado_1262560" data-name="Trazado 1262560" d="M13.977,26.341H7.526a.571.571,0,0,1-.571-.571v-6.45a.573.573,0,0,1,.571-.574H13.12a1.429,1.429,0,0,1,1.429,1.431v5.591a.571.571,0,0,1-.571.574" transform="translate(9.2 24.797)" fill="#576577"/>
              <path id="Trazado_1262561" data-name="Trazado 1262561" d="M13.977,21.409H7.526a.571.571,0,0,1-.571-.571V23a.571.571,0,0,0,.571.571h6.45A.571.571,0,0,0,14.548,23V20.838a.571.571,0,0,1-.571.571" transform="translate(9.2 27.565)" fill="#38495e"/>
              <path id="Trazado_1262562" data-name="Trazado 1262562" d="M17.246,26.339H10.8a.571.571,0,0,1-.571-.571V20.175a1.428,1.428,0,0,1,1.429-1.429h4.736a1.429,1.429,0,0,1,1.429,1.429v5.593a.571.571,0,0,1-.571.571" transform="translate(13.524 24.798)" fill="#e2e2e2"/>
              <path id="Trazado_1262563" data-name="Trazado 1262563" d="M17.246,21.409H10.8a.571.571,0,0,1-.571-.571V23a.571.571,0,0,0,.571.571h6.45A.571.571,0,0,0,17.817,23V20.838a.571.571,0,0,1-.571.571" transform="translate(13.524 27.565)" fill="#dcdcdc"/>
              <path id="Trazado_1262564" data-name="Trazado 1262564" d="M20.515,26.339h-6.45a.571.571,0,0,1-.571-.571V20.175a1.429,1.429,0,0,1,1.429-1.429h5.593a.571.571,0,0,1,.571.571v6.45a.571.571,0,0,1-.571.571" transform="translate(17.849 24.798)" fill="#0a4666"/>
              <path id="Trazado_1262565" data-name="Trazado 1262565" d="M20.515,21.409h-6.45a.571.571,0,0,1-.571-.571V23a.571.571,0,0,0,.571.571h6.45A.571.571,0,0,0,21.086,23V20.838a.571.571,0,0,1-.571.571" transform="translate(17.849 27.565)" fill="#aaca79"/>
            </g>
          </g>
        </g>
      </g>
    </g>
  </g>
</svg>
