<svg xmlns="http://www.w3.org/2000/svg" xmlns:xlink="http://www.w3.org/1999/xlink" width="60" height="65.565" viewBox="0 0 60 65.565">
  <defs>
    <clipPath id="clip-path">
      <rect id="Rectángulo_460949" data-name="Rectángulo 460949" width="60" height="65.565" fill="#a6cdec"/>
    </clipPath>
  </defs>
  <g id="Grupo_1205161" data-name="Grupo 1205161" transform="translate(-926.5 -9182.001)">
    <g id="Grupo_1204422" data-name="Grupo 1204422" transform="translate(926.5 9182.001)" clip-path="url(#clip-path)">
      <path id="Trazado_1262222" data-name="Trazado 1262222" d="M2.182,59.95a.681.681,0,0,0-.68.679V81.848a.681.681,0,0,0,.68.68H23.639a.681.681,0,0,0,.68-.68V60.629a.681.681,0,0,0-.68-.679Zm21.457,24.08H2.182A2.184,2.184,0,0,1,0,81.848V60.629a2.183,2.183,0,0,1,2.182-2.18H23.639a2.183,2.183,0,0,1,2.181,2.181V81.848A2.184,2.184,0,0,1,23.639,84.029Z" transform="translate(0 -18.464)" fill="#a6cdec" fill-rule="evenodd"/>
      <path id="Trazado_1262223" data-name="Trazado 1262223" d="M9.594,71.453a.742.742,0,0,1-.311-.068.751.751,0,0,1-.439-.683V59.2a.751.751,0,1,1,1.5,0v9.858l.515-.448a.751.751,0,0,1,.975-.008l.585.491V59.2a.75.75,0,1,1,1.5,0V70.7a.751.751,0,0,1-1.233.575l-1.327-1.113-1.274,1.1A.748.748,0,0,1,9.594,71.453Z" transform="translate(-2.794 -18.464)" fill="#a6cdec" fill-rule="evenodd"/>
      <path id="Trazado_1262224" data-name="Trazado 1262224" d="M22.227,71.453a.742.742,0,0,1-.311-.068.751.751,0,0,1-.439-.683V59.2a.751.751,0,1,1,1.5,0v9.858l.515-.448a.751.751,0,0,1,.975-.008l.585.491V59.2a.75.75,0,1,1,1.5,0V70.7a.751.751,0,0,1-1.233.575l-1.327-1.113-1.274,1.1A.745.745,0,0,1,22.227,71.453Z" transform="translate(-6.785 -18.464)" fill="#a6cdec" fill-rule="evenodd"/>
      <path id="Trazado_1262225" data-name="Trazado 1262225" d="M6.141,85.8h.943V82.314H6.141Zm1.693,1.5H5.39a.75.75,0,0,1-.75-.75V81.563a.75.75,0,0,1,.75-.75H7.834a.75.75,0,0,1,.75.75v4.983A.75.75,0,0,1,7.834,87.3Z" transform="translate(-1.466 -25.53)" fill="#a6cdec" fill-rule="evenodd"/>
      <path id="Trazado_1262226" data-name="Trazado 1262226" d="M12.787,87.3a.75.75,0,0,1-.75-.75V81.563a.75.75,0,0,1,1.5,0v4.983A.75.75,0,0,1,12.787,87.3Z" transform="translate(-3.803 -25.53)" fill="#a6cdec" fill-rule="evenodd"/>
      <path id="Trazado_1262227" data-name="Trazado 1262227" d="M16.612,87.3a.75.75,0,0,1-.75-.75V81.563a.75.75,0,0,1,1.5,0v4.983A.75.75,0,0,1,16.612,87.3Z" transform="translate(-5.011 -25.53)" fill="#a6cdec" fill-rule="evenodd"/>
      <path id="Trazado_1262228" data-name="Trazado 1262228" d="M20.437,87.3a.75.75,0,0,1-.75-.75V81.563a.75.75,0,0,1,1.5,0v4.983A.75.75,0,0,1,20.437,87.3Z" transform="translate(-6.219 -25.53)" fill="#a6cdec" fill-rule="evenodd"/>
      <path id="Trazado_1262229" data-name="Trazado 1262229" d="M28.838,85.8h.943V82.314h-.943Zm1.693,1.5H28.087a.75.75,0,0,1-.751-.75V81.563a.75.75,0,0,1,.75-.75h2.444a.75.75,0,0,1,.75.75v4.983A.75.75,0,0,1,30.531,87.3Z" transform="translate(-8.636 -25.53)" fill="#a6cdec" fill-rule="evenodd"/>
      <path id="Trazado_1262230" data-name="Trazado 1262230" d="M24.262,87.3a.75.75,0,0,1-.75-.75V81.563a.75.75,0,0,1,1.5,0v4.983A.75.75,0,0,1,24.262,87.3Z" transform="translate(-7.428 -25.53)" fill="#a6cdec" fill-rule="evenodd"/>
      <path id="Trazado_1262231" data-name="Trazado 1262231" d="M2.182,1.5a.681.681,0,0,0-.68.681V23.4a.68.68,0,0,0,.68.679H23.639a.68.68,0,0,0,.68-.679V2.182a.681.681,0,0,0-.68-.681Zm21.457,24.08H2.182A2.183,2.183,0,0,1,0,23.4V2.182A2.184,2.184,0,0,1,2.182,0H23.639A2.183,2.183,0,0,1,25.82,2.182V23.4A2.183,2.183,0,0,1,23.639,25.581Z" transform="translate(0 0)" fill="#a6cdec" fill-rule="evenodd"/>
      <path id="Trazado_1262232" data-name="Trazado 1262232" d="M6.141,27.349h.943V23.868H6.141Zm1.693,1.5H5.39a.751.751,0,0,1-.75-.75V23.117a.75.75,0,0,1,.75-.75H7.834a.75.75,0,0,1,.75.75V28.1A.751.751,0,0,1,7.834,28.851Z" transform="translate(-1.466 -7.066)" fill="#a6cdec" fill-rule="evenodd"/>
      <path id="Trazado_1262233" data-name="Trazado 1262233" d="M12.787,28.851a.751.751,0,0,1-.75-.75V23.117a.75.75,0,0,1,1.5,0V28.1A.751.751,0,0,1,12.787,28.851Z" transform="translate(-3.803 -7.066)" fill="#a6cdec" fill-rule="evenodd"/>
      <path id="Trazado_1262234" data-name="Trazado 1262234" d="M16.612,28.851a.751.751,0,0,1-.75-.75V23.117a.75.75,0,1,1,1.5,0V28.1A.751.751,0,0,1,16.612,28.851Z" transform="translate(-5.011 -7.066)" fill="#a6cdec" fill-rule="evenodd"/>
      <path id="Trazado_1262235" data-name="Trazado 1262235" d="M20.437,28.851a.751.751,0,0,1-.75-.75V23.117a.75.75,0,1,1,1.5,0V28.1A.751.751,0,0,1,20.437,28.851Z" transform="translate(-6.219 -7.066)" fill="#a6cdec" fill-rule="evenodd"/>
      <path id="Trazado_1262236" data-name="Trazado 1262236" d="M28.838,27.349h.943V23.868h-.943Zm1.693,1.5H28.087a.751.751,0,0,1-.751-.75V23.117a.75.75,0,0,1,.75-.75h2.444a.75.75,0,0,1,.75.75V28.1A.751.751,0,0,1,30.531,28.851Z" transform="translate(-8.636 -7.066)" fill="#a6cdec" fill-rule="evenodd"/>
      <path id="Trazado_1262237" data-name="Trazado 1262237" d="M24.262,28.851a.751.751,0,0,1-.75-.75V23.117a.75.75,0,1,1,1.5,0V28.1A.751.751,0,0,1,24.262,28.851Z" transform="translate(-7.428 -7.066)" fill="#a6cdec" fill-rule="evenodd"/>
      <path id="Trazado_1262238" data-name="Trazado 1262238" d="M52.146,30.725a.681.681,0,0,0-.68.681V52.625a.681.681,0,0,0,.68.68H73.6a.681.681,0,0,0,.68-.68V31.406a.681.681,0,0,0-.68-.681ZM73.6,54.806H52.146a2.184,2.184,0,0,1-2.182-2.182V31.406a2.184,2.184,0,0,1,2.182-2.182H73.6a2.184,2.184,0,0,1,2.182,2.182V52.625A2.184,2.184,0,0,1,73.6,54.806Z" transform="translate(-15.784 -9.232)" fill="#a6cdec" fill-rule="evenodd"/>
      <path id="Trazado_1262239" data-name="Trazado 1262239" d="M56.106,56.572h.943V53.091h-.943Zm1.693,1.5H55.355a.751.751,0,0,1-.751-.75V52.34a.751.751,0,0,1,.751-.75H57.8a.75.75,0,0,1,.75.75v4.983A.75.75,0,0,1,57.8,58.074Z" transform="translate(-17.25 -16.298)" fill="#a6cdec" fill-rule="evenodd"/>
      <path id="Trazado_1262240" data-name="Trazado 1262240" d="M62.752,58.074a.75.75,0,0,1-.75-.75V52.34a.75.75,0,0,1,1.5,0v4.983a.75.75,0,0,1-.75.75" transform="translate(-19.587 -16.298)" fill="#a6cdec" fill-rule="evenodd"/>
      <path id="Trazado_1262241" data-name="Trazado 1262241" d="M66.577,58.074a.75.75,0,0,1-.75-.75V52.34a.75.75,0,0,1,1.5,0v4.983a.75.75,0,0,1-.75.75" transform="translate(-20.796 -16.298)" fill="#a6cdec" fill-rule="evenodd"/>
      <path id="Trazado_1262242" data-name="Trazado 1262242" d="M70.4,58.074a.75.75,0,0,1-.75-.75V52.34a.75.75,0,0,1,1.5,0v4.983A.75.75,0,0,1,70.4,58.074Z" transform="translate(-22.004 -16.298)" fill="#a6cdec" fill-rule="evenodd"/>
      <path id="Trazado_1262243" data-name="Trazado 1262243" d="M78.8,56.572h.943V53.091H78.8Zm1.693,1.5H78.052a.751.751,0,0,1-.751-.75V52.34a.751.751,0,0,1,.751-.75H80.5a.75.75,0,0,1,.75.75v4.983A.75.75,0,0,1,80.5,58.074Z" transform="translate(-24.42 -16.298)" fill="#a6cdec" fill-rule="evenodd"/>
      <path id="Trazado_1262244" data-name="Trazado 1262244" d="M74.227,58.074a.75.75,0,0,1-.75-.75V52.34a.75.75,0,0,1,1.5,0v4.983A.75.75,0,0,1,74.227,58.074Z" transform="translate(-23.212 -16.298)" fill="#a6cdec" fill-rule="evenodd"/>
      <path id="Trazado_1262245" data-name="Trazado 1262245" d="M63.32,15.051a.75.75,0,0,1-.75-.75V6.874a1.787,1.787,0,0,0-1.785-1.785H44.752a.751.751,0,1,1,0-1.5H60.784A3.29,3.29,0,0,1,64.07,6.874V14.3a.751.751,0,0,1-.75.75" transform="translate(-13.9 -1.133)" fill="#a6cdec" fill-rule="evenodd"/>
      <path id="Trazado_1262246" data-name="Trazado 1262246" d="M70.718,18.476a.75.75,0,0,1-.531-.219L67.64,15.709A.751.751,0,0,1,68.7,14.647l2.017,2.017,2.017-2.017A.751.751,0,0,1,73.8,15.709l-2.548,2.548A.75.75,0,0,1,70.718,18.476Z" transform="translate(-21.299 -4.558)" fill="#a6cdec" fill-rule="evenodd"/>
      <path id="Trazado_1262247" data-name="Trazado 1262247" d="M64.342,83.238H48.31a.751.751,0,1,1,0-1.5H64.342a1.788,1.788,0,0,0,1.785-1.785V72.524a.75.75,0,1,1,1.5,0v7.427A3.29,3.29,0,0,1,64.342,83.238Z" transform="translate(-15.024 -22.674)" fill="#a6cdec" fill-rule="evenodd"/>
      <path id="Trazado_1262248" data-name="Trazado 1262248" d="M50.857,89.21a.751.751,0,0,1-.531-.219l-2.548-2.548a.751.751,0,0,1,0-1.062l2.548-2.547A.751.751,0,0,1,51.388,83.9l-2.017,2.016,2.017,2.016a.75.75,0,0,1-.531,1.281" transform="translate(-15.024 -26.099)" fill="#a6cdec" fill-rule="evenodd"/>
      <path id="Trazado_1262249" data-name="Trazado 1262249" d="M22.839,48.327H6.807a.751.751,0,0,1,0-1.5H22.839a.751.751,0,0,1,0,1.5" transform="translate(-1.913 -14.792)" fill="#a6cdec" fill-rule="evenodd"/>
      <path id="Trazado_1262250" data-name="Trazado 1262250" d="M9.355,49.7a.746.746,0,0,1-.531-.22L6.277,46.929a.751.751,0,0,1,0-1.062L8.824,43.32a.75.75,0,0,1,1.062,1.061L7.869,46.4l2.017,2.016A.751.751,0,0,1,9.355,49.7Z" transform="translate(-1.913 -13.616)" fill="#a6cdec" fill-rule="evenodd"/>
      <path id="Trazado_1262251" data-name="Trazado 1262251" d="M59.558,42.229a.751.751,0,0,1-.75-.75v-11.5a.75.75,0,1,1,1.5,0v9.858l.516-.447a.752.752,0,0,1,.975-.008l.584.49V29.974a.751.751,0,0,1,1.5,0v11.5a.751.751,0,0,1-1.233.575l-1.327-1.114L60.05,42.045A.745.745,0,0,1,59.558,42.229Z" transform="translate(-18.578 -9.232)" fill="#a6cdec" fill-rule="evenodd"/>
      <path id="Trazado_1262252" data-name="Trazado 1262252" d="M72.192,42.229a.742.742,0,0,1-.311-.068.751.751,0,0,1-.439-.683v-11.5a.75.75,0,1,1,1.5,0v9.858l.516-.447a.752.752,0,0,1,.975-.008l.584.49V29.974a.751.751,0,0,1,1.5,0v11.5a.751.751,0,0,1-1.233.575l-1.327-1.114-1.274,1.106A.745.745,0,0,1,72.192,42.229Z" transform="translate(-22.569 -9.232)" fill="#a6cdec" fill-rule="evenodd"/>
      <path id="Trazado_1262253" data-name="Trazado 1262253" d="M9.594,13.006a.742.742,0,0,1-.311-.068.752.752,0,0,1-.439-.683V.751a.751.751,0,1,1,1.5,0v9.858l.515-.447a.75.75,0,0,1,.975-.008l.585.49V.751a.75.75,0,1,1,1.5,0v11.5a.751.751,0,0,1-1.233.575l-1.327-1.114-1.274,1.106a.752.752,0,0,1-.493.184" transform="translate(-2.794 0)" fill="#a6cdec" fill-rule="evenodd"/>
      <path id="Trazado_1262254" data-name="Trazado 1262254" d="M22.227,13.006a.742.742,0,0,1-.311-.068.752.752,0,0,1-.439-.683V.751a.751.751,0,1,1,1.5,0v9.858l.515-.447a.75.75,0,0,1,.975-.008l.585.49V.751a.75.75,0,1,1,1.5,0v11.5a.751.751,0,0,1-1.233.575l-1.327-1.114-1.274,1.106A.749.749,0,0,1,22.227,13.006Z" transform="translate(-6.785 0)" fill="#a6cdec" fill-rule="evenodd"/>
    </g>
  </g>
</svg>
