<svg xmlns="http://www.w3.org/2000/svg" width="60" height="53.724" viewBox="0 0 60 53.724">
  <g id="Grupo_1205159" data-name="Grupo 1205159" transform="translate(-297.522 -9188.277)">
    <path id="Trazado_156392" data-name="Trazado 156392" d="M54.94,27.537a1.179,1.179,0,0,0-1.154-.737Q30,26.795,6.213,26.8a1.2,1.2,0,0,0-1.192.821Q3.2,32.181,1.373,36.742a3.048,3.048,0,0,0-.132,1.213c.007,1.914-.006,3.829.006,5.742A5.836,5.836,0,0,0,3.5,48.166q0,11.925,0,23.851c-.812.012-1.627-.025-2.439.014A1.193,1.193,0,0,0,0,73.046v6.421a1.21,1.21,0,0,0,.837.994,5.5,5.5,0,0,0,1.153.057q11.308-.005,22.614,0a1.174,1.174,0,1,0,.011-2.341q-11.134,0-22.269,0,0-1.907,0-3.812,27.656,0,55.31,0,0,1.905,0,3.812-11.137,0-22.275,0a1.171,1.171,0,0,0-.741,2.134,2.332,2.332,0,0,0,1.336.212q10.9-.007,21.8,0a7.3,7.3,0,0,0,1.4-.057A1.261,1.261,0,0,0,60,79.543v-6.52a1.2,1.2,0,0,0-1.052-.991c-.813-.039-1.629,0-2.443-.014q0-11.929,0-23.856a5.813,5.813,0,0,0,2.25-4.47c.009-2.071,0-4.141,0-6.211a2.917,2.917,0,0,0-.332-1.235c-1.166-2.9-2.318-5.809-3.488-8.708m-1.877,1.605q1.394,3.491,2.789,6.982-3.28,0-6.56,0-.933-3.491-1.86-6.983,2.814,0,5.631,0m-8.06,0q.932,3.491,1.861,6.983-3.321,0-6.642,0c-.308-2.327-.623-4.655-.929-6.983H45m-8.077,0q.466,3.491.93,6.982-3.342,0-6.684,0V29.143q2.878,0,5.754,0m-8.1,0q0,3.493,0,6.984-3.342,0-6.683,0,.464-3.491.93-6.982,2.876,0,5.752,0m-8.119,0q-.459,3.493-.929,6.983-3.321,0-6.642,0,.926-3.493,1.861-6.983,2.855,0,5.711,0m-8.14,0q-.925,3.493-1.861,6.983-3.278,0-6.559,0,1.39-3.493,2.79-6.982,2.814,0,5.63,0m43.846,9.329c0,1.738.007,3.476,0,5.215a3.424,3.424,0,0,1-6.846-.1c0-1.7,0-3.409,0-5.114,2.284,0,4.568,0,6.852,0m-9.2,0c0,1.784.016,3.568-.011,5.351a3.422,3.422,0,0,1-6.827,0c-.029-1.782,0-3.567-.012-5.35q3.424,0,6.85,0m-9.193,0c-.008,1.779.015,3.558-.012,5.337a3.421,3.421,0,0,1-6.827.008c-.029-1.781-.006-3.564-.012-5.346,2.284,0,4.567,0,6.851,0m-9.2,0c0,1.744.009,3.487,0,5.231a3.423,3.423,0,0,1-6.844-.117c0-1.7,0-3.408,0-5.112,2.284,0,4.567,0,6.85,0m-9.193,0q0,2.2,0,4.405a5.269,5.269,0,0,1-.17,1.766,3.423,3.423,0,0,1-6.207.674,3.487,3.487,0,0,1-.475-1.848q0-2.5,0-5,3.426,0,6.85,0m-9.2,0c0,1.781.016,3.563-.011,5.344A3.421,3.421,0,0,1,3.6,43.808c-.028-1.778,0-3.558-.013-5.336,2.284,0,4.567,0,6.851,0M54.159,49.237q0,11.391,0,22.78H50.884q0-9.063,0-18.127a1.2,1.2,0,0,0-.558-1.093,1.965,1.965,0,0,0-1.11-.18q-6.912.005-13.823,0a1.228,1.228,0,0,0-1.12.523,2.083,2.083,0,0,0-.2,1.221q0,8.828,0,17.655-14.112,0-28.222,0c-.015-7.594,0-15.188-.006-22.781a5.83,5.83,0,0,0,5.768-2.162,5.779,5.779,0,0,0,9.195,0,5.775,5.775,0,0,0,9.195,0,5.774,5.774,0,0,0,9.195,0,5.778,5.778,0,0,0,9.2,0,5.827,5.827,0,0,0,5.769,2.164m-5.621,5.726q0,8.525,0,17.052c-4.042,0-8.085.009-12.128,0q.011-8.524,0-17.047Q42.477,54.961,48.538,54.963Z" transform="translate(297.522 9161.479)" fill="#a6cdec"/>
    <path id="Trazado_156393" data-name="Trazado 156393" d="M278.347,247.147a5.321,5.321,0,0,0-.9-.036c-5.859.006-11.72,0-17.58.006a1.187,1.187,0,0,0-1.185,1.272c0,4.219-.007,8.437.006,12.656a1.174,1.174,0,0,0,1.182,1.157c5.939.013,11.879,0,17.818.007a1.774,1.774,0,0,0,.994-.179,1.2,1.2,0,0,0,.565-1.1v-12.54a1.19,1.19,0,0,0-.9-1.24m-1.44,2.31q0,5.2,0,10.405c-1.5,0-3.007,0-4.51,0q-1.753-1.74-3.493-3.493a1.245,1.245,0,0,0-1.359-.422,1.174,1.174,0,0,0-.536,1.824c.666.717,1.383,1.387,2.066,2.089q-4.022,0-8.044,0,0-5.2,0-10.405Q268.968,249.455,276.906,249.457Z" transform="translate(47.955 8966.985)" fill="#a6cdec"/>
    <path id="Trazado_156394" data-name="Trazado 156394" d="M294.2,277.149a1.178,1.178,0,0,0-1.5.874,1.216,1.216,0,0,0,.388,1.14q2.287,2.287,4.576,4.573a1.17,1.17,0,1,0,1.658-1.65q-2.25-2.255-4.5-4.509A1.523,1.523,0,0,0,294.2,277.149Z" transform="translate(23.552 8940.52)" fill="#a6cdec"/>
  </g>
</svg>
