<svg xmlns="http://www.w3.org/2000/svg" xmlns:xlink="http://www.w3.org/1999/xlink" width="60" height="60" viewBox="0 0 60 60">
  <defs>
    <clipPath id="clip-path">
      <rect id="Rectángulo_460948" data-name="Rectángulo 460948" width="60" height="60" fill="#a6cdec"/>
    </clipPath>
  </defs>
  <g id="Grupo_1205160" data-name="Grupo 1205160" transform="translate(-612 -9182)">
    <g id="Grupo_1204420" data-name="Grupo 1204420" transform="translate(612 9182)" clip-path="url(#clip-path)">
      <path id="Trazado_1262221" data-name="Trazado 1262221" d="M58,14H55.817A2.992,2.992,0,0,0,56,13V8.417a4.029,4.029,0,0,0-.422-1.791L55.211,5.9A2.012,2.012,0,0,1,55,5V2a2,2,0,0,0-2-2H51a2,2,0,0,0-2,2V5a2.013,2.013,0,0,1-.212.894l-.367.734A4.023,4.023,0,0,0,48,8.417V13a2.952,2.952,0,0,0,.184,1H44.816A2.952,2.952,0,0,0,45,13V8.417a4.029,4.029,0,0,0-.422-1.791L44.211,5.9A2.022,2.022,0,0,1,44,5V2a2,2,0,0,0-2-2H40a2,2,0,0,0-2,2V5a2.012,2.012,0,0,1-.211.894l-.367.734A4.023,4.023,0,0,0,37,8.417V13a2.952,2.952,0,0,0,.184,1H33.816A2.952,2.952,0,0,0,34,13V8.417a4.029,4.029,0,0,0-.422-1.791L33.211,5.9A2.012,2.012,0,0,1,33,5V2a2,2,0,0,0-2-2H29a2,2,0,0,0-2,2V5a2.012,2.012,0,0,1-.211.894l-.367.734A4.023,4.023,0,0,0,26,8.417V13a2.972,2.972,0,0,0,.184,1H22.816A2.952,2.952,0,0,0,23,13V8.417a4.039,4.039,0,0,0-.421-1.791L22.211,5.9A2,2,0,0,1,22,5V2a2,2,0,0,0-2-2H18a2,2,0,0,0-2,2V5a2,2,0,0,1-.211.894l-.367.734A4.011,4.011,0,0,0,15,8.417V13a2.952,2.952,0,0,0,.184,1H11.816A2.971,2.971,0,0,0,12,13V8.417a4.018,4.018,0,0,0-.421-1.791L11.211,5.9A2.012,2.012,0,0,1,11,5V2A2,2,0,0,0,9,0H7A2,2,0,0,0,5,2V5a2.013,2.013,0,0,1-.212.894l-.367.734A4.023,4.023,0,0,0,4,8.417V13a2.952,2.952,0,0,0,.184,1H2a2,2,0,0,0-2,2V58a2,2,0,0,0,2,2H58a2,2,0,0,0,2-2V16a2,2,0,0,0-2-2M50,8.417a2.016,2.016,0,0,1,.212-.9l.367-.733A4.023,4.023,0,0,0,51,5V2h2V5a4.037,4.037,0,0,0,.422,1.79l.367.731a2.012,2.012,0,0,1,.211.9V13a1,1,0,0,1-1,1H51a1,1,0,0,1-1-1Zm-11,0a2,2,0,0,1,.211-.9l.367-.733A4.033,4.033,0,0,0,40,5V2h2V5a4.036,4.036,0,0,0,.421,1.79l.367.731a2.012,2.012,0,0,1,.211.9V13a1,1,0,0,1-1,1H40a1,1,0,0,1-1-1Zm-11,0a2.016,2.016,0,0,1,.211-.9l.367-.733A4.023,4.023,0,0,0,29,5V2h2V5a4.026,4.026,0,0,0,.422,1.79l.367.731a2.013,2.013,0,0,1,.212.9V13a1,1,0,0,1-1,1H29a1,1,0,0,1-1-1Zm-11,0a2.016,2.016,0,0,1,.211-.9l.367-.733A4.023,4.023,0,0,0,18,5V2h2V5a4.026,4.026,0,0,0,.422,1.79l.367.731a2.013,2.013,0,0,1,.212.9V13a1,1,0,0,1-1,1H18a1,1,0,0,1-1-1Zm-11,0a2.016,2.016,0,0,1,.212-.9l.367-.733A4.023,4.023,0,0,0,7,5V2H9V5a4.026,4.026,0,0,0,.422,1.79l.367.731a2.023,2.023,0,0,1,.211.9V13a1,1,0,0,1-1,1H7a1,1,0,0,1-1-1ZM2,16H58v2H2Zm0,4H58V34H50.816A2.961,2.961,0,0,0,51,33V30.118A2.792,2.792,0,0,0,49.447,27.6.8.8,0,0,1,49,26.882v-.161A1.991,1.991,0,0,0,50,25V23a2,2,0,0,0-2-2H42a2,2,0,0,0-2,2v2a1.994,1.994,0,0,0,1,1.722v.161a.8.8,0,0,1-.447.723A2.793,2.793,0,0,0,39,30.118V33a2.979,2.979,0,0,0,.183,1H35.817A2.98,2.98,0,0,0,36,33V30.118A2.793,2.793,0,0,0,34.447,27.6.8.8,0,0,1,34,26.882v-.161A1.994,1.994,0,0,0,35,25V23a2,2,0,0,0-2-2H27a2,2,0,0,0-2,2v2a1.991,1.991,0,0,0,1,1.722v.161a.8.8,0,0,1-.446.723A2.792,2.792,0,0,0,24,30.118V33a2.96,2.96,0,0,0,.184,1H20.816A2.961,2.961,0,0,0,21,33V30.118A2.8,2.8,0,0,0,19.447,27.6.8.8,0,0,1,19,26.882v-.161A1.994,1.994,0,0,0,20,25V23a2,2,0,0,0-2-2H12a2,2,0,0,0-2,2v2a1.994,1.994,0,0,0,1,1.722v.161a.8.8,0,0,1-.447.723A2.8,2.8,0,0,0,9,30.118V33a2.98,2.98,0,0,0,.184,1H2Zm41,7h4a2.8,2.8,0,0,0,1.553,2.4.8.8,0,0,1,.447.723V33a1,1,0,0,1-1,1H42a1,1,0,0,1-1-1V30.118a.8.8,0,0,1,.447-.723A2.8,2.8,0,0,0,43,27m-1-4h6v2H42ZM28,27h4a2.8,2.8,0,0,0,1.552,2.4.8.8,0,0,1,.447.723V33a1,1,0,0,1-1,1H27a1,1,0,0,1-1-1V30.118a.8.8,0,0,1,.447-.723A2.8,2.8,0,0,0,28,27m-1-4h6v2H27ZM13,27h4a2.8,2.8,0,0,0,1.553,2.4.8.8,0,0,1,.446.723V33a1,1,0,0,1-1,1H12a1,1,0,0,1-1-1V30.118a.8.8,0,0,1,.446-.723A2.8,2.8,0,0,0,13,27m-1-4h6v2H12ZM2,36H58v2H2Zm0,4H58V54H52V44a2,2,0,0,0-2-2H46a2,2,0,0,0-2,2V54H41V44a2,2,0,0,0-2-2H35a2,2,0,0,0-2,2V54H30V44a2,2,0,0,0-2-2H22a2,2,0,0,0-2,2V54H17V44a2,2,0,0,0-2-2H9a2,2,0,0,0-2,2V54H2ZM50,50H46V48h4Zm-4-6h4v2H46Zm4,10H46V52h4ZM39,50H35V48h4Zm-4-6h4v2H35Zm4,10H35V52h4ZM28,51.619V54H22V48.618Zm-6-5.237V44h6v5.381Zm-7,5.237V54H9V48.618ZM9,46.382V44h6v5.381ZM58,58H2V56H58Z" transform="translate(0 0)" fill="#a6cdec"/>
    </g>
  </g>
</svg>
