<svg xmlns="http://www.w3.org/2000/svg" xmlns:xlink="http://www.w3.org/1999/xlink" width="60" height="66.668" viewBox="0 0 60 66.668">
  <defs>
    <clipPath id="clip-path">
      <rect id="Rectángulo_460950" data-name="Rectángulo 460950" width="60" height="66.668" fill="#a6cdec"/>
    </clipPath>
  </defs>
  <g id="Grupo_1205162" data-name="Grupo 1205162" transform="translate(-1242 -9182.001)">
    <g id="Grupo_1204424" data-name="Grupo 1204424" transform="translate(1242 9182.001)" clip-path="url(#clip-path)">
      <path id="Trazado_1262255" data-name="Trazado 1262255" d="M47.225,0A11.268,11.268,0,0,0,36.114,11.4c0,7.939,8.379,14.743,10.062,16.027a1.735,1.735,0,0,0,2.1,0c1.68-1.285,10.06-8.089,10.06-16.027A11.27,11.27,0,0,0,47.225,0m0,25.422c-1.752-1.394-8.888-7.478-8.888-14.027a8.888,8.888,0,1,1,17.777,0c0,6.55-7.141,12.636-8.888,14.027" transform="translate(-0.558 0)" fill="#a6cdec"/>
      <path id="Trazado_1262256" data-name="Trazado 1262256" d="M47.294,4.514a6.667,6.667,0,1,0,6.666,6.667,6.667,6.667,0,0,0-6.666-6.667m0,11.112a4.444,4.444,0,1,1,3.143-1.3,4.444,4.444,0,0,1-3.143,1.3" transform="translate(-0.628 -0.069)" fill="#a6cdec"/>
      <path id="Trazado_1262257" data-name="Trazado 1262257" d="M49.548,31.512H10.66a1.667,1.667,0,0,1,0-3.334H39.882a1.111,1.111,0,0,0,0-2.222H10.66a3.889,3.889,0,1,0,0,7.778H49.548a8.333,8.333,0,0,1,0,16.666H17.092a4.425,4.425,0,0,0-3.5,1.7,1.111,1.111,0,1,0,1.747,1.373,2.214,2.214,0,0,1,1.749-.854H49.548a10.555,10.555,0,1,0,0-21.111" transform="translate(-0.105 -0.401)" fill="#a6cdec"/>
      <path id="Trazado_1262258" data-name="Trazado 1262258" d="M34.678,19.185H10.555a10.555,10.555,0,1,0,0,21.111H49.444a1.667,1.667,0,0,1,0,3.334H16.987A11.122,11.122,0,0,0,6.8,50.306a1.111,1.111,0,1,0,2.037.89,8.9,8.9,0,0,1,8.147-5.345H49.444a3.889,3.889,0,0,0,0-7.778H10.555a8.333,8.333,0,0,1,0-16.666H34.678a1.111,1.111,0,0,0,0-2.222Z" transform="translate(0 -0.296)" fill="#a6cdec"/>
      <path id="Trazado_1262259" data-name="Trazado 1262259" d="M10.685,65.186l5.943,2.16a2.506,2.506,0,0,0,2.935-.909,2.415,2.415,0,0,0-.111-2.961l-6.925-8.392a2.619,2.619,0,0,0-3.9,0L1.7,63.477a2.414,2.414,0,0,0-.111,2.961A2.494,2.494,0,0,0,3.629,67.5a2.607,2.607,0,0,0,.889-.159l5.945-2.161A.32.32,0,0,1,10.685,65.186Zm-6.928.071a.28.28,0,0,1-.358-.1.188.188,0,0,1,.013-.263L10.337,56.5a.317.317,0,0,1,.472,0l6.925,8.392a.188.188,0,0,1,.013.263.282.282,0,0,1-.358.1L11.444,63.1a2.548,2.548,0,0,0-1.743,0Z" transform="translate(-0.018 -0.838)" fill="#a6cdec"/>
    </g>
  </g>
</svg>
