<svg xmlns="http://www.w3.org/2000/svg" xmlns:xlink="http://www.w3.org/1999/xlink" width="295" height="221.965" viewBox="0 0 295 221.965">
  <defs>
    <clipPath id="clip-path">
      <rect id="Rectángulo_460970" data-name="Rectángulo 460970" width="135" height="139.097" fill="none"/>
    </clipPath>
  </defs>
  <g id="Grupo_1204434" data-name="Grupo 1204434" transform="translate(-1021.265 -1570.75)">
    <g id="Grupo_1102747" data-name="Grupo 1102747" transform="translate(790.85 -3049.25)">
      <g id="Grupo_1099952" data-name="Grupo 1099952" transform="translate(230.415 4620)">
        <path id="Trazado_145968" data-name="Trazado 145968" d="M49.2,0A49.2,49.2,0,1,0,98.4,49.2,49.2,49.2,0,0,0,49.2,0Z" transform="translate(7.561 119.354)" fill="#a6cdec"/>
        <path id="Trazado_145969" data-name="Trazado 145969" d="M33.618,0A33.618,33.618,0,1,0,67.237,33.618,33.618,33.618,0,0,0,33.618,0Z" transform="translate(200.275 12.836)" fill="#a6cdec"/>
        <rect id="Rectángulo_34812" data-name="Rectángulo 34812" width="295" height="221.25" transform="translate(0 0.357)" fill="none"/>
        <path id="Trazado_145967" data-name="Trazado 145967" d="M110.983,0A110.983,110.983,0,1,0,221.966,110.983,110.983,110.983,0,0,0,110.983,0Z" transform="translate(36.517 0)" fill="#88a160"/>
        <path id="Trazado_145971" data-name="Trazado 145971" d="M9.243,0a9.243,9.243,0,1,0,9.243,9.243A9.243,9.243,0,0,0,9.243,0Z" transform="translate(239.996 184.805)" fill="#0a4666"/>
        <path id="Elipse_4044" data-name="Elipse 4044" d="M12.535,3.388a9.147,9.147,0,1,1-9.147,9.147,9.158,9.158,0,0,1,9.147-9.147m0-3.388A12.535,12.535,0,1,0,25.071,12.535,12.535,12.535,0,0,0,12.535,0Z" transform="translate(214.926 79.167)" fill="#fff"/>
      </g>
    </g>
    <g id="Grupo_1204433" data-name="Grupo 1204433" transform="translate(1104 1616.608)">
      <g id="Grupo_1204432" data-name="Grupo 1204432" transform="translate(0 0)" clip-path="url(#clip-path)">
        <path id="Trazado_1262262" data-name="Trazado 1262262" d="M69.219,27.416V61.337a.708.708,0,0,1-.707.708H46.174a.707.707,0,0,1-.707-.708V27.416a.334.334,0,0,1,.078-.021,1.935,1.935,0,0,1,.591-.089h5.253V27.3H63.3v.008h5.255a1.94,1.94,0,0,1,.589.089A.334.334,0,0,1,69.219,27.416Z" transform="translate(40.66 24.414)" fill="#38495e"/>
        <path id="Trazado_1262263" data-name="Trazado 1262263" d="M45.531,27.365l0,0-.015.006.019,0" transform="translate(40.701 24.471)" fill="#576577"/>
        <path id="Trazado_1262264" data-name="Trazado 1262264" d="M68.721,34.758,58.554,27.638a2.126,2.126,0,0,0-.547-.277V38.782l5.3,3.707a.7.7,0,0,0,.983-.172l4.6-6.575A.707.707,0,0,0,68.721,34.758Z" transform="translate(51.875 24.469)" fill="#576577"/>
        <path id="Trazado_1262265" data-name="Trazado 1262265" d="M65.577,36.629,59.525,32.4v0l-1.519-1.065v3.908l5.3,3.709a.706.706,0,0,0,.983-.174l1.44-2.057A.757.757,0,0,1,65.577,36.629Z" transform="translate(51.874 28.016)" fill="#38495e"/>
        <path id="Trazado_1262266" data-name="Trazado 1262266" d="M39.955,34.758l10.167-7.121a2.146,2.146,0,0,1,.546-.277V38.782l-5.3,3.707a.7.7,0,0,1-.983-.172L39.78,35.741A.706.706,0,0,1,39.955,34.758Z" transform="translate(35.461 24.469)" fill="#576577"/>
        <path id="Trazado_1262267" data-name="Trazado 1262267" d="M41.543,36.629,47.6,32.4v0l1.519-1.065v3.908l-5.3,3.709a.7.7,0,0,1-.983-.174L41.39,36.712A.81.81,0,0,0,41.543,36.629Z" transform="translate(37.014 28.016)" fill="#38495e"/>
        <path id="Trazado_1262268" data-name="Trazado 1262268" d="M63.96,61.338V27.308H61.611V27.3H49.7v.008H47.353V61.338c0,.39.222.707.494.707h15.62c.271,0,.493-.316.493-.707" transform="translate(42.347 24.415)" fill="#576577"/>
        <path id="Trazado_1262269" data-name="Trazado 1262269" d="M60.5,27.3v.008a5.954,5.954,0,0,1-11.907,0V27.3Z" transform="translate(43.457 24.415)" fill="#12263f"/>
        <path id="Trazado_1262270" data-name="Trazado 1262270" d="M48.595,27.307a5.985,5.985,0,0,0,.078.964h11.75a5.776,5.776,0,0,0,.08-.964V27.3H48.593Z" transform="translate(43.456 24.414)" fill="#38495e"/>
        <path id="Trazado_1262271" data-name="Trazado 1262271" d="M59.677,29.828a5.921,5.921,0,0,0,.718-2.006H48.645a5.881,5.881,0,0,0,.718,2.006Z" transform="translate(43.502 24.882)" fill="#fff"/>
        <path id="Trazado_1262272" data-name="Trazado 1262272" d="M53.213,21.5V35.358a1,1,0,0,1-2.006,0V21.5a1,1,0,0,1,2.006,0" transform="translate(45.794 18.331)" fill="#fff"/>
        <path id="Trazado_1262273" data-name="Trazado 1262273" d="M130.52,28.72H4.482a4.481,4.481,0,1,1,0-8.962H130.52a4.481,4.481,0,1,1,0,8.962" transform="translate(0 17.67)" fill="#0a4666"/>
        <path id="Trazado_1262274" data-name="Trazado 1262274" d="M130.52,23.142H4.482A4.478,4.478,0,0,1,.616,20.926a4.481,4.481,0,0,0,3.866,6.747H130.52a4.481,4.481,0,0,0,3.866-6.747,4.476,4.476,0,0,1-3.866,2.216" transform="translate(0 18.715)" fill="#aaca79"/>
        <path id="Trazado_1262275" data-name="Trazado 1262275" d="M67.5,50.159H4.482a4.481,4.481,0,1,1,0-8.962H67.5a4.481,4.481,0,1,1,0,8.962" transform="translate(0 36.843)" fill="#0a4666"/>
        <path id="Trazado_1262276" data-name="Trazado 1262276" d="M67.5,44.62H4.482A4.481,4.481,0,0,1,.6,42.379,4.482,4.482,0,0,0,4.482,49.1H67.5a4.482,4.482,0,0,0,3.881-6.723A4.481,4.481,0,0,1,67.5,44.62" transform="translate(0 37.9)" fill="#aaca79"/>
        <path id="Trazado_1262277" data-name="Trazado 1262277" d="M130.52,71.6H4.482a4.481,4.481,0,1,1,0-8.962H130.52a4.481,4.481,0,1,1,0,8.962" transform="translate(0 56.015)" fill="#0a4666"/>
        <path id="Trazado_1262278" data-name="Trazado 1262278" d="M130.52,66.06H4.482A4.481,4.481,0,0,1,.6,63.819a4.482,4.482,0,0,0,3.881,6.723H130.52a4.482,4.482,0,0,0,3.881-6.723,4.481,4.481,0,0,1-3.881,2.241" transform="translate(0 57.073)" fill="#aaca79"/>
        <path id="Trazado_1262279" data-name="Trazado 1262279" d="M4.482,135.312A4.482,4.482,0,0,1,0,130.83V8.713a4.482,4.482,0,0,1,8.964,0V130.83a4.482,4.482,0,0,1-4.482,4.482" transform="translate(0 3.786)" fill="#0a4666"/>
        <path id="Trazado_1262280" data-name="Trazado 1262280" d="M71.018,135.312a4.482,4.482,0,0,1-4.482-4.482V8.713a4.482,4.482,0,0,1,8.964,0V130.83a4.482,4.482,0,0,1-4.482,4.482" transform="translate(59.502 3.786)" fill="#0a4666"/>
        <rect id="Rectángulo_460952" data-name="Rectángulo 460952" width="8.962" height="81.274" transform="translate(63.019 41.858)" fill="#0a4666"/>
        <path id="Trazado_1262281" data-name="Trazado 1262281" d="M22.249,21.235a6.439,6.439,0,0,1-.529-4.486,21.228,21.228,0,0,0,.311-8.144l-.422-2.959a1.489,1.489,0,0,0-1.474-1.281h-.97a1.09,1.09,0,0,1-1.091-1.091V2.4H12.618v.875a1.09,1.09,0,0,1-1.091,1.091h-.97A1.488,1.488,0,0,0,9.083,5.647L8.663,8.606a21.2,21.2,0,0,0,.311,8.145,6.453,6.453,0,0,1-.53,4.486,3.5,3.5,0,0,0-.377,1.584v9.138a3.273,3.273,0,0,0,3.273,3.271h8.015a3.271,3.271,0,0,0,3.271-3.271V22.82a3.5,3.5,0,0,0-.377-1.586" transform="translate(7.213 2.147)" fill="#38495e"/>
        <path id="Trazado_1262282" data-name="Trazado 1262282" d="M17.2,21.235a12.13,12.13,0,0,1-.271-4.486,41.132,41.132,0,0,0,.159-8.144l-.216-2.959c-.053-.735-.375-1.281-.754-1.281h-.5c-.309,0-.557-.487-.557-1.091V2.4H12.272v.875c0,.6-.25,1.091-.557,1.091h-.5c-.381,0-.7.546-.756,1.281l-.214,2.959a41.011,41.011,0,0,0,.159,8.145,12.135,12.135,0,0,1-.271,4.486,6.36,6.36,0,0,0-.2,1.584v9.138c0,1.807.752,3.271,1.676,3.271h4.1c.924,0,1.675-1.464,1.675-3.271V22.82a6.367,6.367,0,0,0-.193-1.586" transform="translate(8.889 2.147)" fill="#576577"/>
        <path id="Trazado_1262283" data-name="Trazado 1262283" d="M21.073,19.97a12.177,12.177,0,0,0-6.227-1.481A12.169,12.169,0,0,0,8.622,19.97a3.268,3.268,0,0,0,2.218.871h8.017a3.255,3.255,0,0,0,2.216-.871" transform="translate(7.711 16.535)" fill="#12263f"/>
        <path id="Trazado_1262284" data-name="Trazado 1262284" d="M17.179,18.907a15.51,15.51,0,0,0-7.159,0c.261,1.138.847,1.934,1.527,1.934h4.1c.68,0,1.265-.8,1.527-1.934" transform="translate(8.961 16.534)" fill="#38495e"/>
        <path id="Trazado_1262285" data-name="Trazado 1262285" d="M10.57,3.491h5.272a1.117,1.117,0,0,0,.112-.011,1.208,1.208,0,0,1-.019-.2V2.4H10.479v.875a1.041,1.041,0,0,1-.021.2,1.013,1.013,0,0,0,.112.011" transform="translate(9.352 2.147)" fill="#12263f"/>
        <path id="Trazado_1262286" data-name="Trazado 1262286" d="M16.3,5.092H11.033A1.091,1.091,0,0,1,9.942,4V1.091A1.091,1.091,0,0,1,11.033,0H16.3A1.091,1.091,0,0,1,17.4,1.091V4A1.093,1.093,0,0,1,16.3,5.092" transform="translate(8.891 0.001)" fill="#fff"/>
        <path id="Rectángulo_460953" data-name="Rectángulo 460953" d="M.471,0H4.527A.472.472,0,0,1,5,.472V4.618a.472.472,0,0,1-.472.472H.471A.471.471,0,0,1,0,4.619V.471A.471.471,0,0,1,.471,0Z" transform="translate(20.059 0.003)" fill="#fff"/>
        <path id="Trazado_1262287" data-name="Trazado 1262287" d="M12.576,5.091h-.583a.5.5,0,0,1-.5-.5V.5a.5.5,0,0,1,.5-.5h.583a.5.5,0,0,1,.5.5V4.587a.5.5,0,0,1-.5.5" transform="translate(10.274 0.002)" fill="#fff"/>
        <path id="Trazado_1262288" data-name="Trazado 1262288" d="M16.3,2.969H11.033A1.091,1.091,0,0,1,9.942,1.878v.443a1.091,1.091,0,0,0,1.091,1.091H16.3A1.091,1.091,0,0,0,17.4,2.321V1.878A1.093,1.093,0,0,1,16.3,2.969" transform="translate(8.891 1.68)" fill="#fff"/>
        <path id="Trazado_1262289" data-name="Trazado 1262289" d="M19.987,15.046a21.432,21.432,0,0,0,.256-7.433l-.381-2.6a.546.546,0,0,0-.54-.466H10.156a.542.542,0,0,0-.54.466l-.383,2.6a21.478,21.478,0,0,0,.256,7.433,6.451,6.451,0,0,1-.436,4.094,3.505,3.505,0,0,0-.311,1.445v8.339a2.852,2.852,0,0,0,2.694,2.987h6.6a2.853,2.853,0,0,0,2.7-2.987V20.585a3.477,3.477,0,0,0-.311-1.447A6.454,6.454,0,0,1,19.987,15.046Z" transform="translate(7.819 4.063)" fill="#576577"/>
        <path id="Trazado_1262290" data-name="Trazado 1262290" d="M17.4,20.9A6.351,6.351,0,0,0,17.2,19.32a12.13,12.13,0,0,1-.271-4.486,40.992,40.992,0,0,0,.159-8.144l-.155-2.15H10.4l-.155,2.148a41.011,41.011,0,0,0,.159,8.145,12.173,12.173,0,0,1-.271,4.486,6.272,6.272,0,0,0-.2,1.584v9.138a5.643,5.643,0,0,0,.3,1.862c.044,0,.085.006.129.006h6.6c.044,0,.087,0,.129-.006a5.6,5.6,0,0,0,.3-1.862V20.9Z" transform="translate(8.89 4.062)" fill="#6c7888"/>
        <path id="Trazado_1262291" data-name="Trazado 1262291" d="M13.6,18.489a15.016,15.016,0,0,0-3.576.417c0,.021.008.044.013.064s.013.055.019.081c.032.119.066.233.1.341l.011.036c.044,0,.085.008.127.008h6.6c.044,0,.085-.006.127-.008a.2.2,0,0,0,.011-.036c.04-.11.074-.224.1-.341.006-.027.013-.053.021-.081s.008-.044.013-.064a15,15,0,0,0-3.575-.417" transform="translate(8.962 16.535)" fill="#576577"/>
        <path id="Trazado_1262292" data-name="Trazado 1262292" d="M8.479,6.226a22.482,22.482,0,0,0,.273,7.823H21.593a22.436,22.436,0,0,0,.273-7.823l-.153-1.085H8.633Z" transform="translate(7.385 4.598)" fill="#fff"/>
        <path id="Trazado_1262293" data-name="Trazado 1262293" d="M10.162,6.154a41.462,41.462,0,0,0,.131,7.9h6.583a41.462,41.462,0,0,0,.131-7.9l-.074-1.012h-6.7Z" transform="translate(8.974 4.599)" fill="#fff"/>
        <path id="Trazado_1262294" data-name="Trazado 1262294" d="M33.583,21.235a6.439,6.439,0,0,1-.529-4.486,21.228,21.228,0,0,0,.311-8.144l-.421-2.959A1.489,1.489,0,0,0,31.47,4.366H30.5a1.09,1.09,0,0,1-1.091-1.091V2.4H23.954v.875a1.09,1.09,0,0,1-1.091,1.091h-.97a1.488,1.488,0,0,0-1.474,1.281L20,8.606a21.2,21.2,0,0,0,.311,8.145,6.452,6.452,0,0,1-.529,4.486A3.475,3.475,0,0,0,19.4,22.82v9.138a3.273,3.273,0,0,0,3.273,3.271H30.69a3.271,3.271,0,0,0,3.271-3.271V22.82A3.5,3.5,0,0,0,33.583,21.235Z" transform="translate(17.351 2.147)" fill="#38495e"/>
        <path id="Trazado_1262295" data-name="Trazado 1262295" d="M28.537,21.235a12.13,12.13,0,0,1-.271-4.486,41.132,41.132,0,0,0,.159-8.144l-.216-2.959c-.053-.735-.375-1.281-.754-1.281h-.5c-.309,0-.559-.487-.559-1.091V2.4H23.608v.875c0,.6-.25,1.091-.559,1.091h-.5c-.379,0-.7.546-.754,1.281l-.216,2.959a41.154,41.154,0,0,0,.159,8.145,12.1,12.1,0,0,1-.271,4.486,6.362,6.362,0,0,0-.193,1.584v9.138c0,1.807.75,3.271,1.675,3.271h4.1c.924,0,1.676-1.464,1.676-3.271V22.82a6.451,6.451,0,0,0-.2-1.586" transform="translate(19.029 2.147)" fill="#576577"/>
        <path id="Trazado_1262296" data-name="Trazado 1262296" d="M32.409,19.97a12.177,12.177,0,0,0-6.227-1.481,12.169,12.169,0,0,0-6.225,1.481,3.261,3.261,0,0,0,2.218.871h8.015A3.256,3.256,0,0,0,32.409,19.97Z" transform="translate(17.848 16.535)" fill="#12263f"/>
        <path id="Trazado_1262297" data-name="Trazado 1262297" d="M28.514,18.907a15.51,15.51,0,0,0-7.159,0c.261,1.138.847,1.934,1.527,1.934h4.1c.68,0,1.265-.8,1.527-1.934" transform="translate(19.097 16.534)" fill="#38495e"/>
        <path id="Trazado_1262298" data-name="Trazado 1262298" d="M21.9,3.491h5.272a1.117,1.117,0,0,0,.112-.011,1.208,1.208,0,0,1-.019-.2V2.4H21.816v.875a1.041,1.041,0,0,1-.021.2A1.027,1.027,0,0,0,21.9,3.491Z" transform="translate(19.491 2.147)" fill="#12263f"/>
        <path id="Trazado_1262299" data-name="Trazado 1262299" d="M27.64,5.092H22.368A1.091,1.091,0,0,1,21.277,4V1.091A1.091,1.091,0,0,1,22.368,0H27.64a1.091,1.091,0,0,1,1.091,1.091V4A1.091,1.091,0,0,1,27.64,5.092" transform="translate(19.028 0.001)" fill="#fff"/>
        <path id="Rectángulo_460954" data-name="Rectángulo 460954" d="M.471,0H4.527A.472.472,0,0,1,5,.472V4.618a.472.472,0,0,1-.472.472H.471A.471.471,0,0,1,0,4.619V.471A.471.471,0,0,1,.471,0Z" transform="translate(41.531 0.003)" fill="#fff"/>
        <path id="Trazado_1262300" data-name="Trazado 1262300" d="M23.911,5.091h-.583a.5.5,0,0,1-.5-.5V.5a.5.5,0,0,1,.5-.5h.583a.5.5,0,0,1,.5.5V4.587a.5.5,0,0,1-.5.5" transform="translate(20.411 0.002)" fill="#fff"/>
        <path id="Trazado_1262301" data-name="Trazado 1262301" d="M27.64,2.969H22.368a1.091,1.091,0,0,1-1.091-1.091v.443a1.091,1.091,0,0,0,1.091,1.091H27.64a1.091,1.091,0,0,0,1.091-1.091V1.878A1.091,1.091,0,0,1,27.64,2.969" transform="translate(19.028 1.68)" fill="#fff"/>
        <path id="Trazado_1262302" data-name="Trazado 1262302" d="M31.323,15.046a21.432,21.432,0,0,0,.256-7.433l-.381-2.6a.546.546,0,0,0-.54-.466H21.492a.542.542,0,0,0-.54.466l-.383,2.6a21.478,21.478,0,0,0,.256,7.433,6.451,6.451,0,0,1-.436,4.094,3.505,3.505,0,0,0-.311,1.445v8.339a2.853,2.853,0,0,0,2.7,2.987h6.6a2.851,2.851,0,0,0,2.694-2.987V20.585a3.477,3.477,0,0,0-.311-1.447A6.467,6.467,0,0,1,31.323,15.046Z" transform="translate(17.956 4.063)" fill="#576577"/>
        <path id="Trazado_1262303" data-name="Trazado 1262303" d="M28.731,20.9a6.351,6.351,0,0,0-.193-1.584,12.09,12.09,0,0,1-.271-4.486,41.135,41.135,0,0,0,.159-8.144l-.157-2.15H21.737l-.155,2.148a41.154,41.154,0,0,0,.159,8.145,12.092,12.092,0,0,1-.271,4.486,6.362,6.362,0,0,0-.193,1.584v9.138a5.645,5.645,0,0,0,.3,1.862c.042,0,.085.006.129.006h6.6c.044,0,.087,0,.129-.006a5.645,5.645,0,0,0,.3-1.862V20.9Z" transform="translate(19.028 4.062)" fill="#6c7888"/>
        <path id="Trazado_1262304" data-name="Trazado 1262304" d="M24.932,18.489a15.016,15.016,0,0,0-3.576.417c0,.021.008.044.013.064s.013.055.019.081c.032.119.066.233.1.341l.011.036c.044,0,.085.008.127.008h6.6c.044,0,.085-.006.127-.008l.011-.036c.04-.11.072-.224.1-.341.006-.027.013-.053.021-.081s.008-.044.013-.064a14.988,14.988,0,0,0-3.575-.417" transform="translate(19.098 16.535)" fill="#576577"/>
        <path id="Trazado_1262305" data-name="Trazado 1262305" d="M19.815,6.226a22.482,22.482,0,0,0,.273,7.823H32.929A22.482,22.482,0,0,0,33.2,6.226l-.155-1.085H19.967Z" transform="translate(17.523 4.598)" fill="#fff"/>
        <path id="Trazado_1262306" data-name="Trazado 1262306" d="M21.5,6.154a41.462,41.462,0,0,0,.131,7.9h6.583a41.462,41.462,0,0,0,.131-7.9l-.074-1.012h-6.7Z" transform="translate(19.112 4.599)" fill="#fff"/>
        <path id="Trazado_1262307" data-name="Trazado 1262307" d="M44.919,21.235a6.439,6.439,0,0,1-.529-4.486A21.228,21.228,0,0,0,44.7,8.606L44.28,5.647a1.489,1.489,0,0,0-1.474-1.281h-.972a1.09,1.09,0,0,1-1.091-1.091V2.4H35.29v.875A1.09,1.09,0,0,1,34.2,4.366h-.972a1.489,1.489,0,0,0-1.474,1.281l-.421,2.959a21.239,21.239,0,0,0,.311,8.145,6.442,6.442,0,0,1-.529,4.486,3.5,3.5,0,0,0-.377,1.584v9.138a3.271,3.271,0,0,0,3.271,3.271h8.015A3.273,3.273,0,0,0,45.3,31.958V22.82A3.526,3.526,0,0,0,44.919,21.235Z" transform="translate(27.489 2.147)" fill="#38495e"/>
        <path id="Trazado_1262308" data-name="Trazado 1262308" d="M39.875,21.235a12.13,12.13,0,0,1-.271-4.486,41.132,41.132,0,0,0,.159-8.144l-.216-2.959c-.053-.735-.375-1.281-.754-1.281h-.5c-.309,0-.559-.487-.559-1.091V2.4H34.944v.875c0,.6-.25,1.091-.559,1.091h-.5c-.379,0-.7.546-.754,1.281l-.216,2.959a41.155,41.155,0,0,0,.159,8.145,12.055,12.055,0,0,1-.271,4.486,6.362,6.362,0,0,0-.193,1.584v9.138c0,1.807.75,3.271,1.676,3.271h4.1c.924,0,1.676-1.464,1.676-3.271V22.82a6.367,6.367,0,0,0-.193-1.586" transform="translate(29.164 2.147)" fill="#576577"/>
        <path id="Trazado_1262309" data-name="Trazado 1262309" d="M43.744,19.97a12.177,12.177,0,0,0-6.227-1.481,12.169,12.169,0,0,0-6.225,1.481,3.268,3.268,0,0,0,2.218.871h8.017A3.255,3.255,0,0,0,43.744,19.97Z" transform="translate(27.985 16.535)" fill="#12263f"/>
        <path id="Trazado_1262310" data-name="Trazado 1262310" d="M39.85,18.907a15.51,15.51,0,0,0-7.159,0c.261,1.138.847,1.934,1.527,1.934h4.1c.68,0,1.265-.8,1.527-1.934" transform="translate(29.235 16.534)" fill="#38495e"/>
        <path id="Trazado_1262311" data-name="Trazado 1262311" d="M33.241,3.491h5.272a1.117,1.117,0,0,0,.112-.011,1.207,1.207,0,0,1-.019-.2V2.4H33.15v.875a1.041,1.041,0,0,1-.021.2,1.117,1.117,0,0,0,.112.011" transform="translate(29.627 2.147)" fill="#12263f"/>
        <path id="Trazado_1262312" data-name="Trazado 1262312" d="M38.976,5.092H33.7A1.091,1.091,0,0,1,32.613,4V1.091A1.091,1.091,0,0,1,33.7,0h5.272a1.091,1.091,0,0,1,1.091,1.091V4a1.093,1.093,0,0,1-1.091,1.091" transform="translate(29.165 0.001)" fill="#fff"/>
        <path id="Rectángulo_460955" data-name="Rectángulo 460955" d="M.471,0H4.527A.472.472,0,0,1,5,.472V4.618a.472.472,0,0,1-.472.472H.471A.471.471,0,0,1,0,4.619V.471A.471.471,0,0,1,.471,0Z" transform="translate(63.004 0.003)" fill="#fff"/>
        <path id="Trazado_1262313" data-name="Trazado 1262313" d="M35.247,5.091h-.583a.5.5,0,0,1-.5-.5V.5a.5.5,0,0,1,.5-.5h.583a.5.5,0,0,1,.5.5V4.587a.5.5,0,0,1-.5.5" transform="translate(30.549 0.002)" fill="#fff"/>
        <path id="Trazado_1262314" data-name="Trazado 1262314" d="M38.976,2.969H33.7a1.091,1.091,0,0,1-1.091-1.091v.443A1.091,1.091,0,0,0,33.7,3.412h5.272a1.091,1.091,0,0,0,1.091-1.091V1.878a1.093,1.093,0,0,1-1.091,1.091" transform="translate(29.165 1.68)" fill="#fff"/>
        <path id="Trazado_1262315" data-name="Trazado 1262315" d="M42.659,15.046a21.432,21.432,0,0,0,.256-7.433l-.381-2.6a.546.546,0,0,0-.54-.466H32.828a.542.542,0,0,0-.54.466l-.383,2.6a21.432,21.432,0,0,0,.256,7.433,6.451,6.451,0,0,1-.436,4.094,3.505,3.505,0,0,0-.311,1.445v8.339a2.853,2.853,0,0,0,2.7,2.987h6.6a2.853,2.853,0,0,0,2.7-2.987V20.585a3.449,3.449,0,0,0-.313-1.447,6.454,6.454,0,0,1-.434-4.092" transform="translate(28.094 4.063)" fill="#576577"/>
        <path id="Trazado_1262316" data-name="Trazado 1262316" d="M40.066,20.9a6.351,6.351,0,0,0-.193-1.584,12.09,12.09,0,0,1-.271-4.486,41.135,41.135,0,0,0,.159-8.144L39.6,4.541H33.072l-.155,2.148a41.155,41.155,0,0,0,.159,8.145,12.133,12.133,0,0,1-.271,4.486,6.362,6.362,0,0,0-.193,1.584v9.138a5.644,5.644,0,0,0,.3,1.862c.042,0,.083.006.129.006h6.6c.044,0,.085,0,.129-.006a5.643,5.643,0,0,0,.3-1.862V20.9Z" transform="translate(29.164 4.062)" fill="#6c7888"/>
        <path id="Trazado_1262317" data-name="Trazado 1262317" d="M36.268,18.489a15.016,15.016,0,0,0-3.576.417c0,.021.008.044.013.064s.013.055.019.081c.032.119.066.233.1.341l.011.036c.044,0,.085.008.127.008h6.6c.044,0,.085-.006.127-.008l.013-.036q.057-.165.1-.341c.006-.027.013-.053.021-.081s.008-.044.013-.064a14.976,14.976,0,0,0-3.575-.417" transform="translate(29.236 16.535)" fill="#576577"/>
        <path id="Trazado_1262318" data-name="Trazado 1262318" d="M31.15,6.226a22.482,22.482,0,0,0,.273,7.823H44.264a22.437,22.437,0,0,0,.273-7.823l-.153-1.085H31.3Z" transform="translate(27.66 4.598)" fill="#fff"/>
        <path id="Trazado_1262319" data-name="Trazado 1262319" d="M32.833,6.154a41.464,41.464,0,0,0,.131,7.9h6.583a41.463,41.463,0,0,0,.131-7.9L39.6,5.142H32.909Z" transform="translate(29.249 4.599)" fill="#fff"/>
        <path id="Trazado_1262320" data-name="Trazado 1262320" d="M10.629,59.878H7.149a.355.355,0,0,1-.354-.356V55.508a.355.355,0,0,1,.354-.354h4.014a.357.357,0,0,1,.356.354v3.48A.892.892,0,0,1,10.629,59.878Z" transform="translate(6.077 49.324)" fill="#0a4666"/>
        <path id="Trazado_1262321" data-name="Trazado 1262321" d="M13.126,59.878H10.18a.892.892,0,0,1-.892-.89v-3.48a.357.357,0,0,1,.356-.354h4.014a.355.355,0,0,1,.354.354v3.48A.885.885,0,0,1,13.126,59.878Z" transform="translate(8.306 49.324)" fill="#e2e2e2"/>
        <path id="Trazado_1262322" data-name="Trazado 1262322" d="M16.153,59.878h-3.48a.89.89,0,0,1-.89-.89v-3.48a.355.355,0,0,1,.356-.354h4.014a.354.354,0,0,1,.354.354v4.014A.355.355,0,0,1,16.153,59.878Z" transform="translate(10.537 49.324)" fill="#576577"/>
        <path id="Trazado_1262323" data-name="Trazado 1262323" d="M10.629,62.373H7.149a.355.355,0,0,1-.354-.356V58a.357.357,0,0,1,.354-.356h3.48a.89.89,0,0,1,.89.89v2.946A.89.89,0,0,1,10.629,62.373Z" transform="translate(6.077 51.554)" fill="#e2e2e2"/>
        <path id="Trazado_1262324" data-name="Trazado 1262324" d="M13.126,62.373H10.18a.892.892,0,0,1-.892-.89V58.537a.892.892,0,0,1,.892-.89h2.946a.89.89,0,0,1,.89.89v2.946a.889.889,0,0,1-.89.89" transform="translate(8.306 51.554)" fill="#576577"/>
        <path id="Trazado_1262325" data-name="Trazado 1262325" d="M16.153,62.373h-3.48a.89.89,0,0,1-.89-.89V58.537a.89.89,0,0,1,.89-.89h3.48a.354.354,0,0,1,.354.356v4.014A.354.354,0,0,1,16.153,62.373Z" transform="translate(10.537 51.554)" fill="#fff"/>
        <path id="Trazado_1262326" data-name="Trazado 1262326" d="M11.163,64.866H7.151a.356.356,0,0,1-.356-.356V60.5a.355.355,0,0,1,.356-.354h3.478a.889.889,0,0,1,.89.89v3.48A.355.355,0,0,1,11.163,64.866Z" transform="translate(6.077 53.785)" fill="#fff"/>
        <path id="Trazado_1262327" data-name="Trazado 1262327" d="M13.658,64.867H9.646a.356.356,0,0,1-.356-.356v-3.48a.89.89,0,0,1,.89-.89h2.946a.89.89,0,0,1,.89.89v3.48A.36.36,0,0,1,13.658,64.867Z" transform="translate(8.308 53.784)" fill="#0a4666"/>
        <path id="Trazado_1262328" data-name="Trazado 1262328" d="M16.153,64.867H12.139a.357.357,0,0,1-.356-.356v-3.48a.89.89,0,0,1,.89-.89h3.48a.354.354,0,0,1,.354.356v4.012a.355.355,0,0,1-.354.358" transform="translate(10.537 53.784)" fill="#e2e2e2"/>
        <rect id="Rectángulo_460956" data-name="Rectángulo 460956" width="1.506" height="12.353" transform="translate(19.424 65.688)" fill="#fff"/>
        <rect id="Rectángulo_460957" data-name="Rectángulo 460957" width="0.754" height="12.353" transform="translate(19.424 65.688)" fill="#fff"/>
        <path id="Trazado_1262329" data-name="Trazado 1262329" d="M8.743,41.155A.753.753,0,0,1,9.5,40.4h5.725a.754.754,0,1,1,0,1.508H9.5a.755.755,0,0,1-.754-.754" transform="translate(7.819 36.131)" fill="#fff"/>
        <path id="Trazado_1262330" data-name="Trazado 1262330" d="M15.222,40.977H9.5a.746.746,0,0,1-.648-.377.732.732,0,0,0-.1.377.753.753,0,0,0,.754.754h5.726a.75.75,0,0,0,.65-1.131A.755.755,0,0,1,15.222,40.977Z" transform="translate(7.82 36.309)" fill="#fff"/>
        <path id="Trazado_1262331" data-name="Trazado 1262331" d="M17.9,28.544H9.511a1.358,1.358,0,0,0-1.322,1.048L7.414,32.9a6.542,6.542,0,0,0,4.012,7.66,6.657,6.657,0,0,0,4.859-.119A6.537,6.537,0,0,0,20,32.908l-.779-3.319A1.354,1.354,0,0,0,17.9,28.544Z" transform="translate(6.471 25.527)" fill="#fff"/>
        <path id="Trazado_1262332" data-name="Trazado 1262332" d="M14.7,28.544h-4.69c-.352,0-.657.434-.739,1.048L8.842,32.9c-.419,3.2.519,6.531,2.243,7.66a2.319,2.319,0,0,0,1.275.4,2.376,2.376,0,0,0,1.442-.521c1.625-1.229,2.48-4.457,2.076-7.534l-.436-3.319C15.362,28.978,15.057,28.544,14.7,28.544Z" transform="translate(7.818 25.527)" fill="#fff"/>
        <rect id="Rectángulo_460958" data-name="Rectángulo 460958" width="1.506" height="12.353" transform="translate(35.997 65.688)" fill="#fff"/>
        <rect id="Rectángulo_460959" data-name="Rectángulo 460959" width="0.754" height="12.353" transform="translate(35.997 65.688)" fill="#fff"/>
        <path id="Trazado_1262333" data-name="Trazado 1262333" d="M17.492,41.155a.753.753,0,0,1,.754-.754h5.726a.754.754,0,1,1,0,1.508H18.246a.753.753,0,0,1-.754-.754" transform="translate(15.643 36.131)" fill="#fff"/>
        <path id="Trazado_1262334" data-name="Trazado 1262334" d="M23.971,40.977H18.245A.746.746,0,0,1,17.6,40.6a.732.732,0,0,0-.1.377.753.753,0,0,0,.754.754h5.726a.75.75,0,0,0,.65-1.131A.755.755,0,0,1,23.971,40.977Z" transform="translate(15.644 36.309)" fill="#fff"/>
        <path id="Trazado_1262335" data-name="Trazado 1262335" d="M26.65,28.544H18.26a1.358,1.358,0,0,0-1.322,1.048L16.163,32.9a6.542,6.542,0,0,0,4.012,7.66,6.657,6.657,0,0,0,4.859-.119,6.539,6.539,0,0,0,3.715-7.534L27.97,29.59A1.354,1.354,0,0,0,26.65,28.544Z" transform="translate(14.295 25.527)" fill="#fff"/>
        <path id="Trazado_1262336" data-name="Trazado 1262336" d="M23.454,28.544h-4.69c-.352,0-.659.434-.739,1.048L17.591,32.9c-.419,3.2.519,6.531,2.243,7.66a2.319,2.319,0,0,0,1.275.4,2.376,2.376,0,0,0,1.442-.521c1.625-1.229,2.48-4.457,2.076-7.534L24.19,29.59C24.111,28.978,23.806,28.544,23.454,28.544Z" transform="translate(15.643 25.527)" fill="#fff"/>
        <rect id="Rectángulo_460960" data-name="Rectángulo 460960" width="1.506" height="12.353" transform="translate(52.57 65.688)" fill="#fff"/>
        <rect id="Rectángulo_460961" data-name="Rectángulo 460961" width="0.754" height="12.353" transform="translate(52.57 65.688)" fill="#fff"/>
        <path id="Trazado_1262337" data-name="Trazado 1262337" d="M26.241,41.155a.753.753,0,0,1,.754-.754h5.726a.754.754,0,1,1,0,1.508H26.995a.753.753,0,0,1-.754-.754" transform="translate(23.467 36.131)" fill="#fff"/>
        <path id="Trazado_1262338" data-name="Trazado 1262338" d="M32.721,40.977H26.995a.749.749,0,0,1-.65-.377.75.75,0,0,0,.65,1.131h5.728a.75.75,0,0,0,.65-1.131A.755.755,0,0,1,32.721,40.977Z" transform="translate(23.467 36.309)" fill="#fff"/>
        <path id="Trazado_1262339" data-name="Trazado 1262339" d="M35.4,28.544H27.01a1.358,1.358,0,0,0-1.322,1.048L24.913,32.9a6.544,6.544,0,0,0,4.012,7.66,6.657,6.657,0,0,0,4.859-.119A6.539,6.539,0,0,0,37.5,32.908L36.72,29.59A1.356,1.356,0,0,0,35.4,28.544Z" transform="translate(22.121 25.527)" fill="#fff"/>
        <path id="Trazado_1262340" data-name="Trazado 1262340" d="M32.2,28.544h-4.69c-.352,0-.657.434-.739,1.048L26.34,32.9c-.419,3.2.519,6.531,2.243,7.66a2.319,2.319,0,0,0,1.275.4,2.372,2.372,0,0,0,1.442-.521c1.627-1.229,2.48-4.457,2.076-7.534l-.434-3.319C32.86,28.978,32.555,28.544,32.2,28.544Z" transform="translate(23.467 25.527)" fill="#fff"/>
        <path id="Trazado_1262341" data-name="Trazado 1262341" d="M50.987,57.886V55.371a1.224,1.224,0,0,1,1.224-1.226h6.257a1.224,1.224,0,0,1,1.224,1.226v13.26h-18.9V65.774a4.556,4.556,0,0,1,4.556-4.556h2.313a3.332,3.332,0,0,0,3.33-3.332" transform="translate(36.476 48.422)" fill="#e2e2e2"/>
        <path id="Trazado_1262342" data-name="Trazado 1262342" d="M49.285,54.146h1.586a1.224,1.224,0,0,1,1.224,1.224V68.632H50.509V55.37a1.224,1.224,0,0,0-1.224-1.224" transform="translate(44.075 48.423)" fill="#dcdcdc"/>
        <path id="Trazado_1262343" data-name="Trazado 1262343" d="M45.344,61.219h2.313a3.333,3.333,0,0,0,3.332-3.332V55.372a1.225,1.225,0,0,1,1.224-1.226h6.257a1.225,1.225,0,0,1,1.224,1.226v.748H55.376a1.223,1.223,0,0,0-1.224,1.224v2.517a3.333,3.333,0,0,1-3.332,3.332H48.507a4.555,4.555,0,0,0-4.556,4.556v.883H40.788V65.777A4.557,4.557,0,0,1,45.344,61.219Z" transform="translate(36.476 48.423)" fill="#e5e5e5"/>
        <path id="Trazado_1262344" data-name="Trazado 1262344" d="M40.788,62.419a4.554,4.554,0,0,1,3.986-4.52,6.931,6.931,0,0,1,2.739,7.376H40.786V62.419Z" transform="translate(36.474 51.779)" fill="#0a4666"/>
        <path id="Trazado_1262345" data-name="Trazado 1262345" d="M47.724,61.634a6.89,6.89,0,0,1-.21,1.7H40.787V60.478q0-.207.017-.409h6.742a6.879,6.879,0,0,1,.178,1.565" transform="translate(36.475 53.72)" fill="#aaca79"/>
        <path id="Trazado_1262346" data-name="Trazado 1262346" d="M48.107,65.212a5.547,5.547,0,0,1,5.277-7.242v7.244H48.107Z" transform="translate(42.784 51.842)" fill="#0a4666"/>
        <path id="Trazado_1262347" data-name="Trazado 1262347" d="M53.384,63.334H48.106a5.538,5.538,0,0,1-.265-1.7,5.608,5.608,0,0,1,.224-1.565h5.319Z" transform="translate(42.783 53.72)" fill="#aaca79"/>
        <path id="Trazado_1262348" data-name="Trazado 1262348" d="M48.977,64.193h4.029a1.225,1.225,0,0,0,1.226-1.224V60.895H46.895l.936,2.5a1.221,1.221,0,0,0,1.146.8" transform="translate(41.937 54.458)" fill="#d3d3d3"/>
        <path id="Trazado_1262349" data-name="Trazado 1262349" d="M49.152,64.193h-7.14a1.225,1.225,0,0,1-1.226-1.224V60.895l10.583,1.7-1.392,1.277A1.213,1.213,0,0,1,49.152,64.193Z" transform="translate(36.475 54.458)" fill="#d3d3d3"/>
        <rect id="Rectángulo_460962" data-name="Rectángulo 460962" width="18.905" height="1.699" transform="translate(77.262 115.352)" fill="#dcdcdc"/>
        <path id="Trazado_1262350" data-name="Trazado 1262350" d="M53.587,57.751H47.842v-3.6h5.745a1.225,1.225,0,0,1,1.224,1.226v1.156a1.224,1.224,0,0,1-1.224,1.224" transform="translate(42.784 48.423)" fill="#0a4666"/>
        <path id="Trazado_1262351" data-name="Trazado 1262351" d="M54.811,54.774l0,.034v1.156a1.226,1.226,0,0,1-1.226,1.226H47.842V55.964h5.745a1.225,1.225,0,0,0,1.224-1.19" transform="translate(42.784 48.984)" fill="#aaca79"/>
        <path id="Trazado_1262352" data-name="Trazado 1262352" d="M45.607,59.721a.418.418,0,0,0,.28-.525l-.432-1.44a.421.421,0,1,0-.807.242l.434,1.442a.423.423,0,0,0,.525.28" transform="translate(39.912 51.383)" fill="#0a4666"/>
        <path id="Trazado_1262353" data-name="Trazado 1262353" d="M45.019,58.83a.421.421,0,0,0,.8.008l.066.222a.42.42,0,0,1-.805.242L44.65,57.86a.417.417,0,0,1,0-.25Z" transform="translate(39.913 51.52)" fill="#36dbe6"/>
        <path id="Trazado_1262354" data-name="Trazado 1262354" d="M47.015,58.932a.422.422,0,0,0,.076-.591l-.919-1.192a.421.421,0,0,0-.667.515l.919,1.192a.422.422,0,0,0,.591.076" transform="translate(40.617 50.962)" fill="#0a4666"/>
        <path id="Trazado_1262355" data-name="Trazado 1262355" d="M45.581,57.032a.41.41,0,0,0,.087.231l.919,1.193a.42.42,0,0,0,.589.076l0,0a.417.417,0,0,1-.163.36.422.422,0,0,1-.591-.078L45.5,57.621a.423.423,0,0,1,.076-.589" transform="translate(40.617 51.004)" fill="#36dbe6"/>
        <path id="Trazado_1262356" data-name="Trazado 1262356" d="M48.071,57.423a.421.421,0,0,0-.212-.555l-1.375-.614a.421.421,0,0,0-.343.769l1.373.612A.42.42,0,0,0,48.071,57.423Z" transform="translate(41.04 50.275)" fill="#0a4666"/>
        <path id="Trazado_1262357" data-name="Trazado 1262357" d="M46.052,56.486l1.375.614a.421.421,0,0,0,.555-.214A.362.362,0,0,0,48,56.827a.421.421,0,0,1-.487.663l-1.373-.614a.42.42,0,0,1-.235-.5A.432.432,0,0,0,46.052,56.486Z" transform="translate(41.041 50.421)" fill="#36dbe6"/>
        <path id="Trazado_1262358" data-name="Trazado 1262358" d="M48.3,55.908a.419.419,0,0,0-.371-.464l-1.495-.17a.42.42,0,1,0-.095.835l1.5.17a.421.421,0,0,0,.464-.371" transform="translate(41.108 49.429)" fill="#0a4666"/>
        <path id="Trazado_1262359" data-name="Trazado 1262359" d="M45.971,55.584a.428.428,0,0,1,.116-.246.419.419,0,0,0,.358.3l1.495.169a.413.413,0,0,0,.349-.125.39.39,0,0,1,.013.163.421.421,0,0,1-.464.371l-1.5-.17A.418.418,0,0,1,45.971,55.584Z" transform="translate(41.109 49.489)" fill="#36dbe6"/>
        <path id="Trazado_1262360" data-name="Trazado 1262360" d="M61.411,57.886V55.371a1.224,1.224,0,0,0-1.224-1.226H53.931a1.224,1.224,0,0,0-1.224,1.226v13.26h18.9V65.774a4.556,4.556,0,0,0-4.556-4.556H64.741a3.33,3.33,0,0,1-3.33-3.332" transform="translate(47.135 48.422)" fill="#e2e2e2"/>
        <path id="Trazado_1262361" data-name="Trazado 1262361" d="M55.516,54.146H53.931a1.223,1.223,0,0,0-1.224,1.224V68.632h1.586V55.37a1.223,1.223,0,0,1,1.224-1.224" transform="translate(47.135 48.423)" fill="#dcdcdc"/>
        <path id="Trazado_1262362" data-name="Trazado 1262362" d="M67.056,61.219H64.743a3.333,3.333,0,0,1-3.332-3.332V55.372a1.225,1.225,0,0,0-1.224-1.226H53.931a1.224,1.224,0,0,0-1.224,1.226v.748h4.317a1.223,1.223,0,0,1,1.224,1.224v2.517a3.335,3.335,0,0,0,3.334,3.332h2.311a4.556,4.556,0,0,1,4.558,4.556v.883h3.162V65.777A4.557,4.557,0,0,0,67.056,61.219Z" transform="translate(47.135 48.423)" fill="#e5e5e5"/>
        <path id="Trazado_1262363" data-name="Trazado 1262363" d="M65.961,62.419a4.554,4.554,0,0,0-3.986-4.52,6.931,6.931,0,0,0-2.739,7.376h6.727V62.419Z" transform="translate(52.784 51.779)" fill="#0a4666"/>
        <path id="Trazado_1262364" data-name="Trazado 1262364" d="M59.025,61.634a6.89,6.89,0,0,0,.21,1.7h6.727V60.478q0-.207-.017-.409H59.2a6.987,6.987,0,0,0-.178,1.565" transform="translate(52.785 53.72)" fill="#aaca79"/>
        <path id="Trazado_1262365" data-name="Trazado 1262365" d="M57.983,65.212a5.547,5.547,0,0,0-5.277-7.242v7.244h5.277Z" transform="translate(47.134 51.842)" fill="#0a4666"/>
        <path id="Trazado_1262366" data-name="Trazado 1262366" d="M52.707,63.334h5.277a5.6,5.6,0,0,0,.04-3.264H52.707Z" transform="translate(47.135 53.72)" fill="#aaca79"/>
        <path id="Trazado_1262367" data-name="Trazado 1262367" d="M57.961,64.193H53.932a1.224,1.224,0,0,1-1.226-1.224V60.895h7.337l-.936,2.5a1.221,1.221,0,0,1-1.146.8" transform="translate(47.134 54.458)" fill="#d3d3d3"/>
        <path id="Trazado_1262368" data-name="Trazado 1262368" d="M59.319,64.193h7.14a1.223,1.223,0,0,0,1.224-1.224V60.895L57.1,62.594l1.392,1.277a1.217,1.217,0,0,0,.828.322" transform="translate(51.063 54.458)" fill="#d3d3d3"/>
        <rect id="Rectángulo_460963" data-name="Rectángulo 460963" width="18.905" height="1.699" transform="translate(99.84 115.352)" fill="#dcdcdc"/>
        <path id="Trazado_1262369" data-name="Trazado 1262369" d="M53.177,57.751h5.745v-3.6H53.177a1.225,1.225,0,0,0-1.224,1.226v1.156a1.224,1.224,0,0,0,1.224,1.224" transform="translate(46.461 48.423)" fill="#0a4666"/>
        <path id="Trazado_1262370" data-name="Trazado 1262370" d="M51.953,54.774v1.19a1.225,1.225,0,0,0,1.224,1.226h5.747V55.964H53.177a1.224,1.224,0,0,1-1.224-1.19" transform="translate(46.461 48.984)" fill="#aaca79"/>
        <path id="Trazado_1262371" data-name="Trazado 1262371" d="M58.469,59.721a.418.418,0,0,1-.28-.525l.432-1.44a.421.421,0,1,1,.807.242l-.434,1.442a.422.422,0,0,1-.525.28" transform="translate(52.021 51.383)" fill="#0a4666"/>
        <path id="Trazado_1262372" data-name="Trazado 1262372" d="M59.058,58.83a.42.42,0,0,1-.527.28.415.415,0,0,1-.277-.273l-.066.222a.419.419,0,1,0,.8.242l.434-1.442a.4.4,0,0,0,0-.25Z" transform="translate(52.021 51.52)" fill="#36dbe6"/>
        <path id="Trazado_1262373" data-name="Trazado 1262373" d="M57.29,58.932a.422.422,0,0,1-.076-.591l.919-1.192a.421.421,0,0,1,.667.515l-.919,1.192a.422.422,0,0,1-.591.076" transform="translate(51.088 50.962)" fill="#0a4666"/>
        <path id="Trazado_1262374" data-name="Trazado 1262374" d="M58.724,57.032a.41.41,0,0,1-.087.231l-.919,1.193a.42.42,0,0,1-.589.076l0,0a.417.417,0,0,0,.163.36.422.422,0,0,0,.591-.078l.919-1.192a.423.423,0,0,0-.076-.589" transform="translate(51.087 51.004)" fill="#36dbe6"/>
        <path id="Trazado_1262375" data-name="Trazado 1262375" d="M56.448,57.423a.421.421,0,0,1,.212-.555l1.373-.614a.421.421,0,1,1,.343.769L57,57.635a.419.419,0,0,1-.555-.212" transform="translate(50.448 50.275)" fill="#0a4666"/>
        <path id="Trazado_1262376" data-name="Trazado 1262376" d="M58.467,56.486l-1.373.614a.421.421,0,0,1-.555-.214.375.375,0,0,1-.023-.059A.421.421,0,0,0,57,57.49l1.373-.614a.42.42,0,0,0,.235-.5.46.46,0,0,1-.146.106" transform="translate(50.448 50.421)" fill="#36dbe6"/>
        <path id="Trazado_1262377" data-name="Trazado 1262377" d="M56.275,55.908a.419.419,0,0,1,.371-.464l1.495-.17a.42.42,0,1,1,.093.835l-1.495.17A.421.421,0,0,1,56.275,55.908Z" transform="translate(50.324 49.429)" fill="#0a4666"/>
        <path id="Trazado_1262378" data-name="Trazado 1262378" d="M58.607,55.584a.428.428,0,0,0-.116-.246.419.419,0,0,1-.358.3l-1.495.169a.411.411,0,0,1-.349-.125.389.389,0,0,0-.013.163.42.42,0,0,0,.464.371l1.5-.17A.418.418,0,0,0,58.607,55.584Z" transform="translate(50.324 49.489)" fill="#36dbe6"/>
        <path id="Trazado_1262379" data-name="Trazado 1262379" d="M42.125,16.835v5.308a2.023,2.023,0,0,0,2.023,2.023H76.5a2.023,2.023,0,0,0,2.023-2.023V16.835A2.023,2.023,0,0,0,76.5,14.812H44.148a2.023,2.023,0,0,0-2.023,2.023" transform="translate(37.672 13.247)" fill="#0a4666"/>
        <path id="Trazado_1262380" data-name="Trazado 1262380" d="M44.147,16.835H76.5a2.021,2.021,0,0,1,2.021,2.023V16.835A2.021,2.021,0,0,0,76.5,14.812H44.147a2.023,2.023,0,0,0-2.023,2.023v2.023a2.024,2.024,0,0,1,2.023-2.023" transform="translate(37.671 13.247)" fill="#aaca79"/>
        <rect id="Rectángulo_460964" data-name="Rectángulo 460964" width="21.106" height="1.644" transform="translate(89.992 31.729)" fill="#aaca79"/>
        <path id="Trazado_1262381" data-name="Trazado 1262381" d="M44.66,11.9v5.308a2.023,2.023,0,0,0,2.023,2.023H79.036a2.023,2.023,0,0,0,2.023-2.023V11.9a2.023,2.023,0,0,0-2.023-2.023H46.683A2.023,2.023,0,0,0,44.66,11.9" transform="translate(39.939 8.832)" fill="#576577"/>
        <path id="Trazado_1262382" data-name="Trazado 1262382" d="M46.683,11.9H79.037a2.021,2.021,0,0,1,2.021,2.023V11.9a2.021,2.021,0,0,0-2.021-2.023H46.683A2.023,2.023,0,0,0,44.66,11.9v2.023A2.023,2.023,0,0,1,46.683,11.9" transform="translate(39.939 8.832)" fill="#38495e"/>
        <rect id="Rectángulo_460965" data-name="Rectángulo 460965" width="21.106" height="1.644" transform="translate(96.296 22.561)" fill="#fff"/>
        <path id="Trazado_1262383" data-name="Trazado 1262383" d="M44.66,2.023V7.331a2.023,2.023,0,0,0,2.023,2.023H79.036a2.023,2.023,0,0,0,2.023-2.023V2.023A2.023,2.023,0,0,0,79.036,0H46.683A2.023,2.023,0,0,0,44.66,2.023" transform="translate(39.939 0.001)" fill="#576577"/>
        <path id="Trazado_1262384" data-name="Trazado 1262384" d="M46.683,2.023H79.037a2.021,2.021,0,0,1,2.021,2.023V2.023A2.021,2.021,0,0,0,79.037,0H46.683A2.023,2.023,0,0,0,44.66,2.023V4.046a2.023,2.023,0,0,1,2.023-2.023" transform="translate(39.939 0.001)" fill="#38495e"/>
        <rect id="Rectángulo_460966" data-name="Rectángulo 460966" width="21.106" height="1.644" transform="translate(96.296 3.857)" fill="#fff"/>
        <path id="Trazado_1262385" data-name="Trazado 1262385" d="M42.992,6.96v5.308a2.023,2.023,0,0,0,2.023,2.023H77.368a2.023,2.023,0,0,0,2.023-2.023V6.96a2.023,2.023,0,0,0-2.023-2.023H45.015A2.023,2.023,0,0,0,42.992,6.96" transform="translate(38.447 4.416)" fill="#e2e2e2"/>
        <path id="Trazado_1262386" data-name="Trazado 1262386" d="M45.015,6.96H77.371a2.022,2.022,0,0,1,2.021,2.023V6.96a2.022,2.022,0,0,0-2.021-2.023H45.015A2.023,2.023,0,0,0,42.992,6.96V8.983A2.023,2.023,0,0,1,45.015,6.96" transform="translate(38.447 4.416)" fill="#dcdcdc"/>
        <rect id="Rectángulo_460967" data-name="Rectángulo 460967" width="1.642" height="5.094" transform="translate(85.087 11.485)" fill="#fff"/>
        <rect id="Rectángulo_460968" data-name="Rectángulo 460968" width="1.644" height="5.094" transform="translate(112.687 11.485)" fill="#fff"/>
        <rect id="Rectángulo_460969" data-name="Rectángulo 460969" width="1.644" height="5.094" transform="translate(109.024 11.485)" fill="#0a4666"/>
        <path id="Trazado_1262387" data-name="Trazado 1262387" d="M23.789,56.968V49.374a.34.34,0,0,0-.341-.341H20.87a.341.341,0,0,0-.341.341v7.594a5.068,5.068,0,0,0-2.919,4.588V73.95a.85.85,0,0,0,.851.851h7.4a.85.85,0,0,0,.851-.851V61.556A5.066,5.066,0,0,0,23.789,56.968Z" transform="translate(15.748 43.85)" fill="#dcdcdc"/>
        <path id="Trazado_1262388" data-name="Trazado 1262388" d="M22.151,56.968V49.374c0-.189-.087-.341-.193-.341H20.5c-.108,0-.193.153-.193.341v7.594a6.136,6.136,0,0,0-1.654,4.588V73.95c0,.47.216.851.481.851h4.19c.265,0,.481-.381.481-.851V61.556A6.133,6.133,0,0,0,22.151,56.968Z" transform="translate(16.68 43.85)" fill="#e2e2e2"/>
        <path id="Trazado_1262389" data-name="Trazado 1262389" d="M22.07,49.033H19.492a.34.34,0,0,0-.341.341v2.254h3.258V49.374A.338.338,0,0,0,22.07,49.033Z" transform="translate(17.126 43.85)" fill="#0a4666"/>
        <path id="Trazado_1262390" data-name="Trazado 1262390" d="M19.525,49.374V51.63H21.37V49.374c0-.188-.085-.341-.193-.341H19.718C19.612,49.033,19.525,49.186,19.525,49.374Z" transform="translate(17.461 43.85)" fill="#a6cdec"/>
        <path id="Trazado_1262391" data-name="Trazado 1262391" d="M23.5,66.768H19.4a.986.986,0,0,1-.989-.985V56.821a.987.987,0,0,1,.989-.987h4.1a.986.986,0,0,1,.987.987v8.962a.986.986,0,0,1-.987.985" transform="translate(16.462 49.932)" fill="#0a4666"/>
        <path id="Trazado_1262392" data-name="Trazado 1262392" d="M23.8,55.989a.975.975,0,0,0-.525-.155h-4.1a.975.975,0,0,0-.525.155V66.614a.99.99,0,0,0,.525.153h4.1a.99.99,0,0,0,.525-.153Z" transform="translate(16.68 49.932)" fill="#a6cdec"/>
        <path id="Trazado_1262393" data-name="Trazado 1262393" d="M30.976,56.968V49.374a.34.34,0,0,0-.341-.341H28.057a.341.341,0,0,0-.341.341v7.594A5.068,5.068,0,0,0,24.8,61.556V73.95a.85.85,0,0,0,.851.851h7.4a.85.85,0,0,0,.851-.851V61.556A5.066,5.066,0,0,0,30.976,56.968Z" transform="translate(22.176 43.85)" fill="#dcdcdc"/>
        <path id="Trazado_1262394" data-name="Trazado 1262394" d="M29.34,56.968V49.374c0-.189-.087-.341-.193-.341h-1.46c-.106,0-.193.153-.193.341v7.594a6.136,6.136,0,0,0-1.654,4.588V73.95c0,.47.216.851.483.851H30.51c.265,0,.481-.381.481-.851V61.556A6.133,6.133,0,0,0,29.34,56.968Z" transform="translate(23.107 43.85)" fill="#e2e2e2"/>
        <path id="Trazado_1262395" data-name="Trazado 1262395" d="M29.258,49.033H26.68a.34.34,0,0,0-.341.341v2.254H29.6V49.374A.339.339,0,0,0,29.258,49.033Z" transform="translate(23.555 43.85)" fill="#0a4666"/>
        <path id="Trazado_1262396" data-name="Trazado 1262396" d="M26.712,49.374V51.63h1.845V49.374c0-.188-.085-.341-.193-.341H26.9C26.8,49.033,26.712,49.186,26.712,49.374Z" transform="translate(23.888 43.85)" fill="#a6cdec"/>
        <path id="Trazado_1262397" data-name="Trazado 1262397" d="M30.684,66.768h-4.1a.986.986,0,0,1-.987-.985V56.821a.986.986,0,0,1,.987-.987h4.1a.986.986,0,0,1,.985.987v8.962a.985.985,0,0,1-.985.985" transform="translate(22.89 49.932)" fill="#0a4666"/>
        <path id="Trazado_1262398" data-name="Trazado 1262398" d="M30.991,55.989a.975.975,0,0,0-.525-.155h-4.1a.975.975,0,0,0-.525.155V66.614a.99.99,0,0,0,.525.153h4.1a.99.99,0,0,0,.525-.153Z" transform="translate(23.107 49.932)" fill="#a6cdec"/>
      </g>
    </g>
  </g>
</svg>
