<svg xmlns="http://www.w3.org/2000/svg" xmlns:xlink="http://www.w3.org/1999/xlink" width="299.17" height="225.103" viewBox="0 0 299.17 225.103">
  <defs>
    <clipPath id="clip-path">
      <rect id="Rectángulo_460993" data-name="Rectángulo 460993" width="136.685" height="136.43" fill="none"/>
    </clipPath>
  </defs>
  <g id="Grupo_1205164" data-name="Grupo 1205164" transform="translate(-1020.265 -2108.75)">
    <g id="Grupo_1102744" data-name="Grupo 1102744" transform="translate(789.85 -2511.25)">
      <g id="Grupo_1099952" data-name="Grupo 1099952" transform="translate(12928.802 17229.016)">
        <path id="Trazado_145968" data-name="Trazado 145968" d="M49.9,0a49.895,49.895,0,1,0,49.9,49.895A49.895,49.895,0,0,0,49.9,0Z" transform="translate(-12690.719 -12487.975)" fill="#a6cdec"/>
        <path id="Trazado_145969" data-name="Trazado 145969" d="M34.094,0A34.094,34.094,0,1,0,68.187,34.094,34.094,34.094,0,0,0,34.094,0Z" transform="translate(-12495.28 -12595.998)" fill="#a6cdec"/>
        <rect id="Rectángulo_34812" data-name="Rectángulo 34812" width="299.17" height="224.377" transform="translate(-12698.387 -12608.653)" fill="none"/>
        <path id="Trazado_145967" data-name="Trazado 145967" d="M112.552,0A112.552,112.552,0,1,0,225.1,112.552,112.552,112.552,0,0,0,112.552,0Z" transform="translate(-12661.354 -12609.016)" fill="#88a160"/>
        <path id="Trazado_145971" data-name="Trazado 145971" d="M9.374,0a9.374,9.374,0,1,0,9.374,9.374A9.374,9.374,0,0,0,9.374,0Z" transform="translate(-12454.998 -12421.599)" fill="#0a4666"/>
        <path id="Elipse_4044" data-name="Elipse 4044" d="M12.712,3.436a9.277,9.277,0,1,1-9.277,9.277,9.287,9.287,0,0,1,9.277-9.277m0-3.436A12.712,12.712,0,1,0,25.425,12.712,12.712,12.712,0,0,0,12.712,0Z" transform="translate(-12480.423 -12528.729)" fill="#fff"/>
      </g>
    </g>
    <g id="Grupo_1204438" data-name="Grupo 1204438" transform="translate(1107 2153.087)">
      <g id="Grupo_1204437" data-name="Grupo 1204437" transform="translate(0 0)" clip-path="url(#clip-path)">
        <path id="Trazado_1262566" data-name="Trazado 1262566" d="M15.238,57.459V81.275a1.789,1.789,0,0,0,1.789,1.789H32.384a1.789,1.789,0,0,0,1.789-1.789V57.459a4.18,4.18,0,0,0-.821-2.488,17.6,17.6,0,0,0-2.271-4.21h.471A1.058,1.058,0,0,0,32.609,49.7V46.6a1.058,1.058,0,0,0-1.059-1.057H17.86A1.056,1.056,0,0,0,16.8,46.6V49.7A1.056,1.056,0,0,0,17.86,50.76h.473a17.56,17.56,0,0,0-2.271,4.21,4.182,4.182,0,0,0-.823,2.488" transform="translate(15.666 46.823)" fill="#12263f"/>
        <path id="Trazado_1262567" data-name="Trazado 1262567" d="M27,57.459V81.275a1.789,1.789,0,0,0,1.789,1.789H44.148a1.789,1.789,0,0,0,1.789-1.789V57.459a4.18,4.18,0,0,0-.821-2.488,17.6,17.6,0,0,0-2.271-4.21h.471A1.058,1.058,0,0,0,44.373,49.7V46.6a1.058,1.058,0,0,0-1.059-1.057H29.624A1.057,1.057,0,0,0,28.568,46.6V49.7a1.056,1.056,0,0,0,1.057,1.057H30.1a17.56,17.56,0,0,0-2.271,4.21A4.182,4.182,0,0,0,27,57.459Z" transform="translate(27.761 46.823)" fill="#12263f"/>
        <rect id="Rectángulo_460987" data-name="Rectángulo 460987" width="56.465" height="7.125" transform="translate(69.299 7.705)" fill="#dadada"/>
        <rect id="Rectángulo_460988" data-name="Rectángulo 460988" width="56.465" height="3.563" transform="translate(69.299 11.266)" fill="#d3d3d3"/>
        <path id="Trazado_1262568" data-name="Trazado 1262568" d="M2.209,136.136h25.4V.286H4.417A4.417,4.417,0,0,0,0,4.7V133.927a2.208,2.208,0,0,0,2.209,2.209" transform="translate(0 0.294)" fill="#0a4666"/>
        <path id="Trazado_1262569" data-name="Trazado 1262569" d="M27.611,70.879H2.209A2.207,2.207,0,0,1,0,68.67V63.754H27.611Z" transform="translate(0 65.547)" fill="#aaca79"/>
        <path id="Trazado_1262570" data-name="Trazado 1262570" d="M13.614,60.243H60.792a7.125,7.125,0,1,1,0,14.25H13.614Z" transform="translate(13.997 61.937)" fill="#0a4666"/>
        <path id="Trazado_1262571" data-name="Trazado 1262571" d="M66.964,62a7.127,7.127,0,0,1-6.172,10.688H13.614V65.56H60.792A7.123,7.123,0,0,0,66.964,62Z" transform="translate(13.997 63.741)" fill="#aaca79"/>
        <path id="Trazado_1262572" data-name="Trazado 1262572" d="M13.614,30.264H60.792a7.125,7.125,0,1,1,0,14.25H13.614Z" transform="translate(13.997 31.115)" fill="#0a4666"/>
        <path id="Trazado_1262573" data-name="Trazado 1262573" d="M66.964,32.021a7.126,7.126,0,0,1-6.172,10.686H13.614V35.584H60.792A7.123,7.123,0,0,0,66.964,32.021Z" transform="translate(13.997 32.922)" fill="#aaca79"/>
        <path id="Trazado_1262574" data-name="Trazado 1262574" d="M13.614.286H60.792a7.125,7.125,0,1,1,0,14.25H13.614Z" transform="translate(13.997 0.294)" fill="#0a4666"/>
        <path id="Trazado_1262575" data-name="Trazado 1262575" d="M66.964,2.042a7.126,7.126,0,0,1-6.172,10.686H13.614V5.6H60.792A7.117,7.117,0,0,0,66.964,2.042Z" transform="translate(13.997 2.1)" fill="#aaca79"/>
        <rect id="Rectángulo_460989" data-name="Rectángulo 460989" width="4.693" height="128.721" transform="translate(17.119 0.578)" fill="#aaca79"/>
        <path id="Trazado_1262576" data-name="Trazado 1262576" d="M79.823,87.845H44.807a4.417,4.417,0,0,1-4.417-4.417V7.312H84.24V83.427a4.417,4.417,0,0,1-4.417,4.417" transform="translate(41.526 7.518)" fill="#fff"/>
        <path id="Trazado_1262577" data-name="Trazado 1262577" d="M65.852,20.249H45.494a1.995,1.995,0,1,1,0-3.989H65.852a1.995,1.995,0,1,1,0,3.989" transform="translate(44.721 16.717)" fill="#fff"/>
        <path id="Trazado_1262578" data-name="Trazado 1262578" d="M55.208,24.538H45.494a1.995,1.995,0,1,1,0-3.989h9.715a1.995,1.995,0,1,1,0,3.989" transform="translate(44.721 21.127)" fill="#fff"/>
        <path id="Trazado_1262579" data-name="Trazado 1262579" d="M68.872,14.69H45.494a1.995,1.995,0,1,1,0-3.989H68.872a1.995,1.995,0,1,1,0,3.989Z" transform="translate(44.721 11.002)" fill="#b3d5ef"/>
        <path id="Trazado_1262580" data-name="Trazado 1262580" d="M58.687,24.538H53.593a1.995,1.995,0,1,1,0-3.989h5.095a1.995,1.995,0,1,1,0,3.989" transform="translate(53.048 21.127)" fill="#fff"/>
        <path id="Trazado_1262581" data-name="Trazado 1262581" d="M49.357,28.826H45.494a1.995,1.995,0,1,1,0-3.989h3.864a1.995,1.995,0,1,1,0,3.989" transform="translate(44.721 25.536)" fill="#fff"/>
        <path id="Trazado_1262582" data-name="Trazado 1262582" d="M65.561,28.826H50.855a1.995,1.995,0,0,1,0-3.989H65.561a1.995,1.995,0,1,1,0,3.989" transform="translate(50.235 25.536)" fill="#fff"/>
        <path id="Trazado_1262583" data-name="Trazado 1262583" d="M56.512,11.035A11.036,11.036,0,1,1,67.547,22.07a10.852,10.852,0,0,1-1.29-.075l-4.04,4.04a.981.981,0,0,1-1.675-.694V19.563A11.019,11.019,0,0,1,56.512,11.035Z" transform="translate(58.101 0)" fill="#dadada"/>
        <path id="Trazado_1262584" data-name="Trazado 1262584" d="M56.512,5.965c0-.349.018-.694.051-1.034a11.034,11.034,0,0,0,21.971,0c.032.341.051.686.051,1.034A11.039,11.039,0,0,1,67.843,17l-5.624,5.624a.981.981,0,0,1-1.675-.694V20.274a.981.981,0,0,0,1.675.694l4.04-4.04A11.039,11.039,0,0,1,56.512,5.965Z" transform="translate(58.101 5.07)" fill="#d3d3d3"/>
        <path id="Trazado_1262585" data-name="Trazado 1262585" d="M62.933,11.277a1.93,1.93,0,0,0,1.931-1.931V3.7A1.931,1.931,0,1,0,61,3.7V9.346a1.931,1.931,0,0,0,1.931,1.931" transform="translate(62.717 1.821)" fill="#d3d3d3"/>
        <path id="Trazado_1262586" data-name="Trazado 1262586" d="M62.933,10.923A1.932,1.932,0,1,0,61,8.992a1.93,1.93,0,0,0,1.931,1.931" transform="translate(62.717 7.258)" fill="#d3d3d3"/>
        <path id="Trazado_1262587" data-name="Trazado 1262587" d="M62.933,10.84a1.93,1.93,0,0,0,1.931-1.931V3.265a1.931,1.931,0,1,0-3.862,0V8.909a1.93,1.93,0,0,0,1.931,1.931" transform="translate(62.717 1.372)" fill="#0a4666"/>
        <path id="Trazado_1262588" data-name="Trazado 1262588" d="M62.933,6.4a1.93,1.93,0,0,0,1.931-1.931V5.687a1.931,1.931,0,1,1-3.862,0V4.468A1.93,1.93,0,0,0,62.933,6.4" transform="translate(62.717 4.594)" fill="#36dbe6"/>
        <path id="Trazado_1262589" data-name="Trazado 1262589" d="M62.933,10.487A1.932,1.932,0,1,0,61,8.556a1.93,1.93,0,0,0,1.931,1.931" transform="translate(62.717 6.809)" fill="#0a4666"/>
        <path id="Trazado_1262590" data-name="Trazado 1262590" d="M62.933,8.6a1.924,1.924,0,0,0,1.823-1.322,1.9,1.9,0,0,1,.107.61,1.931,1.931,0,1,1-3.862,0,1.9,1.9,0,0,1,.107-.61A1.924,1.924,0,0,0,62.933,8.6Z" transform="translate(62.717 7.479)" fill="#36dbe6"/>
        <path id="Trazado_1262591" data-name="Trazado 1262591" d="M70.688,48.837H48.322A4.417,4.417,0,0,1,43.9,44.42V33.965a4.417,4.417,0,0,1,4.417-4.417H70.688a4.417,4.417,0,0,1,4.417,4.417V44.42a4.417,4.417,0,0,1-4.417,4.417" transform="translate(45.14 30.379)" fill="#0a4666"/>
        <path id="Trazado_1262592" data-name="Trazado 1262592" d="M54.013,33.9h-6.22a1.336,1.336,0,0,1,0-2.671h6.22a1.336,1.336,0,0,1,0,2.671" transform="translate(47.764 32.102)" fill="#dadada"/>
        <path id="Trazado_1262593" data-name="Trazado 1262593" d="M54.013,38.945h-6.22a1.336,1.336,0,0,1,0-2.671h6.22a1.336,1.336,0,0,1,0,2.671" transform="translate(47.764 37.294)" fill="#dadada"/>
        <path id="Trazado_1262594" data-name="Trazado 1262594" d="M58.353,36.607H47.793a1.336,1.336,0,0,1,0-2.671h10.56a1.336,1.336,0,0,1,0,2.671" transform="translate(47.764 34.89)" fill="#dadada"/>
        <path id="Trazado_1262595" data-name="Trazado 1262595" d="M58.9,36.607h-3.5a1.336,1.336,0,1,1,0-2.671h3.5a1.336,1.336,0,0,1,0,2.671" transform="translate(55.59 34.89)" fill="#dadada"/>
        <path id="Trazado_1262596" data-name="Trazado 1262596" d="M32.384,48.554H17.027a1.789,1.789,0,0,1-1.789-1.789V22.949a4.168,4.168,0,0,1,.823-2.489s2.754-7.987,8.644-7.987,8.642,7.987,8.642,7.987a4.168,4.168,0,0,1,.823,2.489V46.765A1.786,1.786,0,0,1,32.384,48.554Z" transform="translate(15.666 12.825)" fill="#b3d5ef"/>
        <path id="Trazado_1262597" data-name="Trazado 1262597" d="M26.912,48.554H18.287c-.552,0-1-.8-1-1.789V22.949a6.577,6.577,0,0,1,.46-2.489s1.547-7.987,4.855-7.987,4.855,7.987,4.855,7.987a6.577,6.577,0,0,1,.462,2.489V46.765C27.918,47.753,27.468,48.554,26.912,48.554Z" transform="translate(17.771 12.825)" fill="#bddaf1"/>
        <path id="Trazado_1262598" data-name="Trazado 1262598" d="M25.744,12.646h-4.15c-2.519.868-4.285,3.186-5.348,5.044a1.049,1.049,0,0,0,.578.174h13.69a1.049,1.049,0,0,0,.578-.174C30.029,15.834,28.263,13.514,25.744,12.646Z" transform="translate(16.703 13.002)" fill="#a6cdec"/>
        <rect id="Rectángulo_460990" data-name="Rectángulo 460990" width="15.803" height="5.218" rx="0.521" transform="translate(32.471 23.858)" fill="#36dbe6"/>
        <path id="Trazado_1262599" data-name="Trazado 1262599" d="M26.371,16.982H18.347a.827.827,0,0,1-.827-.827V12.591a.827.827,0,0,1,.827-.827h8.023a.827.827,0,0,1,.827.827v3.563a.827.827,0,0,1-.827.827" transform="translate(18.013 12.095)" fill="#0a4666"/>
        <path id="Trazado_1262600" data-name="Trazado 1262600" d="M30.935,13.438H16.89a.98.98,0,0,1-.88-.765v2.316a1.056,1.056,0,0,0,1.057,1.057h13.69a1.056,1.056,0,0,0,1.057-1.057V12.673A.978.978,0,0,1,30.935,13.438Z" transform="translate(16.46 13.03)" fill="#aaca79"/>
        <path id="Trazado_1262601" data-name="Trazado 1262601" d="M15.9,19.666V38.927a.962.962,0,0,0,.961.963H31.174a.962.962,0,0,0,.961-.963V19.666a.48.48,0,0,0-.481-.481H16.385A.48.48,0,0,0,15.9,19.666Z" transform="translate(16.351 19.725)" fill="#fff"/>
        <path id="Trazado_1262602" data-name="Trazado 1262602" d="M17.284,19.186V39.867l0,.024H27.917l0-.024V19.186Z" transform="translate(17.77 19.726)" fill="#fff"/>
        <path id="Trazado_1262603" data-name="Trazado 1262603" d="M44.148,48.554H28.791A1.789,1.789,0,0,1,27,46.765V22.949a4.168,4.168,0,0,1,.823-2.489s2.754-7.987,8.644-7.987,8.644,7.987,8.644,7.987a4.168,4.168,0,0,1,.823,2.489V46.765A1.789,1.789,0,0,1,44.148,48.554Z" transform="translate(27.761 12.825)" fill="#b3d5ef"/>
        <path id="Trazado_1262604" data-name="Trazado 1262604" d="M38.679,48.554H30.053c-.556,0-1.006-.8-1.006-1.789V22.949a6.577,6.577,0,0,1,.462-2.489s1.547-7.987,4.855-7.987,4.855,7.987,4.855,7.987a6.538,6.538,0,0,1,.464,2.489V46.765C39.684,47.753,39.232,48.554,38.679,48.554Z" transform="translate(29.864 12.825)" fill="#bddaf1"/>
        <path id="Trazado_1262605" data-name="Trazado 1262605" d="M37.508,12.646h-4.15c-2.519.868-4.285,3.186-5.348,5.044a1.042,1.042,0,0,0,.576.174h13.69a1.039,1.039,0,0,0,.578-.174C41.793,15.834,40.027,13.514,37.508,12.646Z" transform="translate(28.798 13.002)" fill="#a6cdec"/>
        <path id="Trazado_1262606" data-name="Trazado 1262606" d="M42.52,16.982H28.831a1.056,1.056,0,0,1-1.057-1.057V12.821a1.056,1.056,0,0,1,1.057-1.057H42.52a1.056,1.056,0,0,1,1.057,1.057v3.105a1.056,1.056,0,0,1-1.057,1.057" transform="translate(28.555 12.095)" fill="#36dbe6"/>
        <path id="Trazado_1262607" data-name="Trazado 1262607" d="M38.135,16.982H30.111a.827.827,0,0,1-.827-.827V12.591a.827.827,0,0,1,.827-.827h8.023a.827.827,0,0,1,.827.827v3.563a.827.827,0,0,1-.827.827" transform="translate(30.107 12.095)" fill="#0a4666"/>
        <path id="Trazado_1262608" data-name="Trazado 1262608" d="M42.7,13.438H28.654a.98.98,0,0,1-.88-.765v2.316a1.056,1.056,0,0,0,1.057,1.057H42.52a1.056,1.056,0,0,0,1.057-1.057V12.673a.978.978,0,0,1-.878.765" transform="translate(28.555 13.03)" fill="#aaca79"/>
        <path id="Trazado_1262609" data-name="Trazado 1262609" d="M27.668,19.666V38.927a.962.962,0,0,0,.961.963H42.938a.962.962,0,0,0,.961-.963V19.666a.48.48,0,0,0-.481-.481H28.147a.48.48,0,0,0-.479.481" transform="translate(28.446 19.725)" fill="#fff"/>
        <path id="Trazado_1262610" data-name="Trazado 1262610" d="M29.048,19.186V39.867l0,.024H39.681l0-.024V19.186Z" transform="translate(29.865 19.726)" fill="#fff"/>
        <path id="Trazado_1262611" data-name="Trazado 1262611" d="M32.384,78.521H17.027a1.789,1.789,0,0,1-1.789-1.789V52.916a4.168,4.168,0,0,1,.823-2.489s2.754-7.987,8.644-7.987,8.642,7.987,8.642,7.987a4.168,4.168,0,0,1,.823,2.489V76.732A1.786,1.786,0,0,1,32.384,78.521Z" transform="translate(15.666 43.635)" fill="#b3d5ef"/>
        <path id="Trazado_1262612" data-name="Trazado 1262612" d="M26.912,78.521H18.287c-.552,0-1-.8-1-1.789V52.916a6.577,6.577,0,0,1,.46-2.489s1.547-7.987,4.855-7.987,4.855,7.987,4.855,7.987a6.577,6.577,0,0,1,.462,2.489V76.732C27.918,77.72,27.468,78.521,26.912,78.521Z" transform="translate(17.771 43.635)" fill="#bddaf1"/>
        <path id="Trazado_1262613" data-name="Trazado 1262613" d="M25.744,42.613h-4.15c-2.519.866-4.285,3.186-5.348,5.046a1.047,1.047,0,0,0,.578.172h13.69a1.047,1.047,0,0,0,.578-.172C30.029,45.8,28.263,43.479,25.744,42.613Z" transform="translate(16.703 43.811)" fill="#a6cdec"/>
        <rect id="Rectángulo_460991" data-name="Rectángulo 460991" width="15.803" height="5.218" rx="0.521" transform="translate(32.471 84.635)" fill="#36dbe6"/>
        <path id="Trazado_1262614" data-name="Trazado 1262614" d="M26.371,46.949H18.347a.827.827,0,0,1-.827-.827V42.558a.827.827,0,0,1,.827-.827h8.023a.827.827,0,0,1,.827.827v3.563a.828.828,0,0,1-.827.827" transform="translate(18.013 42.905)" fill="#0a4666"/>
        <path id="Trazado_1262615" data-name="Trazado 1262615" d="M30.935,43.4H16.89a.98.98,0,0,1-.88-.765v2.316a1.056,1.056,0,0,0,1.057,1.057h13.69a1.056,1.056,0,0,0,1.057-1.057V42.64A.978.978,0,0,1,30.935,43.4Z" transform="translate(16.46 43.839)" fill="#aaca79"/>
        <path id="Trazado_1262616" data-name="Trazado 1262616" d="M15.9,49.633V68.894a.962.962,0,0,0,.961.963H31.174a.962.962,0,0,0,.961-.963V49.633a.48.48,0,0,0-.481-.481H16.385A.48.48,0,0,0,15.9,49.633Z" transform="translate(16.351 50.534)" fill="#fff"/>
        <path id="Trazado_1262617" data-name="Trazado 1262617" d="M17.284,49.152V69.833l0,.024H27.917l0-.024V49.152Z" transform="translate(17.77 50.534)" fill="#fff"/>
        <path id="Trazado_1262618" data-name="Trazado 1262618" d="M44.148,78.521H28.791A1.789,1.789,0,0,1,27,76.732V52.916a4.168,4.168,0,0,1,.823-2.489s2.754-7.987,8.644-7.987,8.644,7.987,8.644,7.987a4.168,4.168,0,0,1,.823,2.489V76.732a1.789,1.789,0,0,1-1.789,1.789" transform="translate(27.761 43.635)" fill="#b3d5ef"/>
        <path id="Trazado_1262619" data-name="Trazado 1262619" d="M38.679,78.521H30.053c-.556,0-1.006-.8-1.006-1.789V52.916a6.577,6.577,0,0,1,.462-2.489s1.547-7.987,4.855-7.987,4.855,7.987,4.855,7.987a6.538,6.538,0,0,1,.464,2.489V76.732c0,.988-.452,1.789-1.006,1.789" transform="translate(29.864 43.635)" fill="#bddaf1"/>
        <path id="Trazado_1262620" data-name="Trazado 1262620" d="M37.508,42.613h-4.15c-2.519.866-4.285,3.186-5.348,5.046a1.04,1.04,0,0,0,.576.172h13.69a1.037,1.037,0,0,0,.578-.172C41.793,45.8,40.027,43.479,37.508,42.613Z" transform="translate(28.798 43.811)" fill="#a6cdec"/>
        <path id="Trazado_1262621" data-name="Trazado 1262621" d="M42.52,46.949H28.831a1.056,1.056,0,0,1-1.057-1.057V42.788a1.056,1.056,0,0,1,1.057-1.057H42.52a1.056,1.056,0,0,1,1.057,1.057v3.105a1.057,1.057,0,0,1-1.057,1.057" transform="translate(28.555 42.905)" fill="#36dbe6"/>
        <path id="Trazado_1262622" data-name="Trazado 1262622" d="M38.135,46.949H30.111a.827.827,0,0,1-.827-.827V42.558a.827.827,0,0,1,.827-.827h8.023a.827.827,0,0,1,.827.827v3.563a.828.828,0,0,1-.827.827" transform="translate(30.107 42.905)" fill="#0a4666"/>
        <path id="Trazado_1262623" data-name="Trazado 1262623" d="M42.7,43.4H28.654a.98.98,0,0,1-.88-.765v2.316a1.056,1.056,0,0,0,1.057,1.057H42.52a1.056,1.056,0,0,0,1.057-1.057V42.64a.978.978,0,0,1-.878.765" transform="translate(28.555 43.839)" fill="#aaca79"/>
        <path id="Trazado_1262624" data-name="Trazado 1262624" d="M27.668,49.633V68.894a.962.962,0,0,0,.961.963H42.938a.963.963,0,0,0,.961-.963V49.633a.48.48,0,0,0-.481-.481H28.147a.48.48,0,0,0-.479.481" transform="translate(28.446 50.534)" fill="#fff"/>
        <rect id="Rectángulo_460992" data-name="Rectángulo 460992" width="10.635" height="20.705" transform="translate(58.912 99.686)" fill="#fff"/>
      </g>
    </g>
  </g>
</svg>
