<svg xmlns="http://www.w3.org/2000/svg" xmlns:xlink="http://www.w3.org/1999/xlink" width="51.886" height="38.246" viewBox="0 0 51.886 38.246">
  <defs>
    <clipPath id="clip-path">
      <rect id="Rectángulo_455272" data-name="Rectángulo 455272" width="51.886" height="38.246" fill="none"/>
    </clipPath>
  </defs>
  <g id="Grupo_1204271" data-name="Grupo 1204271" transform="translate(-184.5 -4653.305)">
    <g id="Grupo_1204272" data-name="Grupo 1204272" transform="translate(184.5 4653.305)">
      <g id="Grupo_1204271-2" data-name="Grupo 1204271" clip-path="url(#clip-path)">
        <path id="Trazado_1261780" data-name="Trazado 1261780" d="M219.164,436c-.384,0-1.843,2.155-2.087,2.636-.538,1.062.065,1.463,1.068,1.775a17.559,17.559,0,0,1,1.723-2.541c.378-.8.449-1.866-.7-1.87" transform="translate(-205.205 -412.534)" fill="#fff"/>
        <path id="Trazado_1261781" data-name="Trazado 1261781" d="M278.46,495.069c-1.135.109-2.865,2.5-2.638,3.132a1.516,1.516,0,0,0,1.843.777c.332-.479,2.921-4.113.795-3.909" transform="translate(-260.96 -468.42)" fill="#fff"/>
        <path id="Trazado_1261782" data-name="Trazado 1261782" d="M350.347,549.856c-1.25.089-2.023,1.469-2.69,2.432a1.5,1.5,0,0,0,1.375,1.422c.345-.4,3.558-4.014,1.315-3.854" transform="translate(-328.948 -520.261)" fill="#fff"/>
        <path id="Trazado_1261783" data-name="Trazado 1261783" d="M413.577,612.27a16.4,16.4,0,0,1-1.424,1.848c.413.708.712.967.946.93a3.318,3.318,0,0,0,1.469-2.349c-.061-.253-.958-.521-.992-.428" transform="translate(-389.973 -579.304)" fill="#fff"/>
        <path id="Trazado_1261784" data-name="Trazado 1261784" d="M659.861,48.159A.427.427,0,0,0,659.3,48l-4.067,2.351a.427.427,0,0,0-.156.566l9.258,16.031a.427.427,0,0,0,.566.156l4.067-2.351a.427.427,0,0,0,.156-.566Z" transform="translate(-619.772 -45.372)" fill="#88a160"/>
        <path id="Trazado_1261785" data-name="Trazado 1261785" d="M60.173,48.627l-4.067-2.351a.427.427,0,0,0-.566.156l-9.258,16.03a.427.427,0,0,0,.156.566l4.068,2.349v0a.418.418,0,0,0,.314.035.413.413,0,0,0,.252-.191l9.258-16.03a.427.427,0,0,0-.156-.566" transform="translate(-43.743 -43.738)" fill="#88a160"/>
        <path id="Trazado_1261786" data-name="Trazado 1261786" d="M212.482,168.012l-3.553.5c-1.641,4.013-4.743,5.38-8.834,3.932a1.246,1.246,0,0,1-.839-1.654l2.741-7.1a1.236,1.236,0,0,1,.461-.58l1.164-.788-2.26-1.648-7.162,12.4,1.03,1.138c1.572-2.406,5.816-1.057,5.92,1.976A2.887,2.887,0,0,1,204.5,179.2c2.4-.434,4.351,1.061,3.792,3.524.1.016.19.036.284.059a1.244,1.244,0,0,1,2.279-.469,6.847,6.847,0,0,0,3.244,2.923c.554-.006.9-.638,1.09-1.084a20.054,20.054,0,0,1-4.4-3.53,1.244,1.244,0,0,1,1.821-1.695,18.755,18.755,0,0,0,4.373,3.4,3.377,3.377,0,0,0,1.232-.261,16.054,16.054,0,0,1-5.275-4.9,1.243,1.243,0,0,1,2-1.48,12.287,12.287,0,0,0,5.3,4.555c.967.245,1.949-1.109,1.684-2.166-4.426-2.5-6.848-6.061-9.437-10.066" transform="translate(-183.749 -152.024)" fill="#fff"/>
        <path id="Trazado_1261787" data-name="Trazado 1261787" d="M348.385,161.475l-5.968,4.04-2.111,5.473c2.676.523,3.964-1.039,4.783-3.434a1.244,1.244,0,0,1,1.047-.838l5.034-.7a1.253,1.253,0,0,1,1.279.656c2.447,3.793,4.639,7.19,8.417,9.515l2.285-2.922-6.919-11.984Z" transform="translate(-321.993 -152.596)" fill="#fff"/>
        <path id="Trazado_1261788" data-name="Trazado 1261788" d="M42.241,1.54A2.9,2.9,0,0,0,38.282.481L34.209,2.829a2.9,2.9,0,0,0-1.309,3.4L25.969,6.4a1.236,1.236,0,0,0-.707.241L22.056,8.816,18.849,6.477a2.9,2.9,0,0,0-1.174-3.74L13.6.388a2.9,2.9,0,0,0-3.959,1.06L.388,17.484a2.9,2.9,0,0,0,1.06,3.959L5.52,23.791a2.9,2.9,0,0,0,3.564-.527l.981,1.034C8.1,27.047,9.5,29.482,12.427,30.312a3.788,3.788,0,0,0,3.963,2.774,3.975,3.975,0,0,0,3.572,2.847c1.372,2.345,3.217,3.063,5.3,1.423,2.163,1.354,4.422.346,5.626-1.7a4.081,4.081,0,0,0,2.971-2.917,3.653,3.653,0,0,0,3.21-2.049,4.256,4.256,0,0,0,3.508-5.258l1.92-2.456a2.9,2.9,0,0,0,3.865.907l4.073-2.349a2.9,2.9,0,0,0,1.06-3.959ZM7.327,21.485a.413.413,0,0,1-.252.191.418.418,0,0,1-.314-.035v0L2.694,19.291a.427.427,0,0,1-.156-.566L11.8,2.694a.427.427,0,0,1,.566-.156l4.067,2.351a.427.427,0,0,1,.156.566Zm5.613,6.388c-1-.312-1.606-.713-1.068-1.775.244-.481,1.7-2.637,2.087-2.636,1.153,0,1.083,1.068.7,1.87a17.544,17.544,0,0,0-1.723,2.541M16.7,30.558a1.516,1.516,0,0,1-1.843-.777c-.228-.634,1.5-3.023,2.638-3.132,2.126-.2-.462,3.429-.795,3.909m3.378,2.891a1.5,1.5,0,0,1-1.375-1.422c.666-.963,1.44-2.343,2.69-2.432,2.243-.16-.97,3.456-1.315,3.854m3.042,2.3c-.234.037-.534-.221-.946-.93A16.388,16.388,0,0,0,23.6,32.966c.033-.093.93.176.992.429a3.318,3.318,0,0,1-1.469,2.349m3.971-.281a1.2,1.2,0,0,0-.057-1.452,9.335,9.335,0,0,0,1.291.947,1.337,1.337,0,0,1-1.234.505m9.389-7.242a12.287,12.287,0,0,1-5.3-4.555,1.243,1.243,0,0,0-2,1.48,16.054,16.054,0,0,0,5.275,4.9,3.377,3.377,0,0,1-1.232.261,18.755,18.755,0,0,1-4.373-3.4,1.244,1.244,0,0,0-1.821,1.695,20.058,20.058,0,0,0,4.4,3.53c-.186.446-.536,1.077-1.09,1.084A6.847,6.847,0,0,1,27.1,30.285a1.244,1.244,0,0,0-2.279.469q-.141-.035-.284-.059c.559-2.462-1.4-3.958-3.792-3.524A2.887,2.887,0,0,0,17.4,24.165c-.1-3.033-4.348-4.382-5.92-1.976L10.45,21.05l7.162-12.4,2.26,1.648-1.164.788a1.236,1.236,0,0,0-.461.58l-2.741,7.1a1.246,1.246,0,0,0,.839,1.654c4.091,1.447,7.193.081,8.834-3.932l3.553-.5c2.59,4.005,5.012,7.562,9.437,10.066.266,1.057-.716,2.411-1.684,2.166m2.387-4.636c-3.778-2.325-5.97-5.722-8.417-9.515a1.253,1.253,0,0,0-1.279-.656l-5.034.7a1.244,1.244,0,0,0-1.047.838c-.819,2.4-2.106,3.957-4.783,3.434l2.111-5.473,5.968-4.04,7.846-.2,6.919,11.984Zm10.318-4.2-4.067,2.351a.427.427,0,0,1-.566-.156L35.3,5.548a.427.427,0,0,1,.156-.566l4.067-2.351a.427.427,0,0,1,.566.156l9.258,16.031a.427.427,0,0,1-.156.566" transform="translate(0.001 0.001)" fill="#053c48"/>
      </g>
    </g>
  </g>
</svg>
