<svg xmlns="http://www.w3.org/2000/svg" xmlns:xlink="http://www.w3.org/1999/xlink" width="104.461" height="101.839" viewBox="0 0 104.461 101.839">
  <defs>
    <clipPath id="clip-path">
      <rect id="Rectángulo_461270" data-name="Rectángulo 461270" width="97.295" height="85.079" fill="none"/>
    </clipPath>
  </defs>
  <g id="Grupo_1205171" data-name="Grupo 1205171" transform="translate(-335 -1618.906)">
    <path id="Rectángulo_401007" data-name="Rectángulo 401007" d="M59,0H89a0,0,0,0,1,0,0V91a0,0,0,0,1,0,0H0a0,0,0,0,1,0,0V59A59,59,0,0,1,59,0Z" transform="translate(335 1618.906)" fill="#fff"/>
    <g id="Grupo_1205088" data-name="Grupo 1205088" transform="translate(342.166 1635.666)">
      <g id="Grupo_1205087" data-name="Grupo 1205087" clip-path="url(#clip-path)">
        <rect id="Rectángulo_461269" data-name="Rectángulo 461269" width="77.361" height="66.895" rx="5.885" transform="translate(1.526 1.527)" fill="#2a5e7a"/>
        <path id="Trazado_1269403" data-name="Trazado 1269403" d="M21.795,63.071H36.349a2.018,2.018,0,0,1,2.012,2.012V71.57a2.017,2.017,0,0,1-2.012,2.012H21.795a2.017,2.017,0,0,1-2.012-2.012V65.083a2.018,2.018,0,0,1,2.012-2.012" transform="translate(-5.591 -17.826)" fill="#36dbe6" fill-rule="evenodd"/>
        <path id="Trazado_1269404" data-name="Trazado 1269404" d="M38.612,2.129H63.627V18.7a1.864,1.864,0,0,1-3.048,1.443L52.3,13.353a1.85,1.85,0,0,0-2.366,0l-8.276,6.786A1.864,1.864,0,0,1,38.612,18.7Z" transform="translate(-10.913 -0.602)" fill="#36dbe6" fill-rule="evenodd"/>
        <path id="Trazado_1269405" data-name="Trazado 1269405" d="M88.929,94.808H79.753V90.2A23.224,23.224,0,0,1,71.4,86.742L68.144,90l-6.489-6.489,3.258-3.257A23.213,23.213,0,0,1,61.451,71.9h-4.6V62.726h4.6a23.219,23.219,0,0,1,3.461-8.352l-3.257-3.257,6.489-6.489L71.4,47.885a23.206,23.206,0,0,1,8.352-3.461v-4.6h9.177v4.6a23.206,23.206,0,0,1,8.352,3.461l3.257-3.257,6.489,6.489-3.257,3.257a23.21,23.21,0,0,1,3.461,8.352h4.6V71.9h-4.6a23.206,23.206,0,0,1-3.461,8.352l3.257,3.257L100.538,90l-3.257-3.257A23.219,23.219,0,0,1,88.929,90.2Z" transform="translate(-16.067 -11.254)" fill="#12263f" fill-rule="evenodd"/>
        <path id="Trazado_1269406" data-name="Trazado 1269406" d="M89.54,58.216a14.3,14.3,0,1,1-14.3,14.3,14.3,14.3,0,0,1,14.3-14.3" transform="translate(-21.266 -16.454)" fill="#36dbe6" fill-rule="evenodd"/>
        <path id="Trazado_1269407" data-name="Trazado 1269407" d="M68.274,68.83a12.771,12.771,0,1,1,12.77-12.771A12.786,12.786,0,0,1,68.274,68.83Zm0-28.6A15.824,15.824,0,1,0,84.1,56.059,15.84,15.84,0,0,0,68.274,40.234ZM94.242,59.119V53H91.163a1.526,1.526,0,0,1-1.5-1.229,21.6,21.6,0,0,0-3.235-7.8,1.527,1.527,0,0,1,.191-1.927L88.8,39.86l-4.33-4.329-2.179,2.177a1.523,1.523,0,0,1-1.925.191,21.565,21.565,0,0,0-7.8-3.234,1.527,1.527,0,0,1-1.227-1.5V30.091H65.211v3.078a1.528,1.528,0,0,1-1.228,1.5,21.586,21.586,0,0,0-7.8,3.234,1.527,1.527,0,0,1-1.927-.191l-2.177-2.177L47.746,39.86l2.177,2.179a1.527,1.527,0,0,1,.191,1.927,21.632,21.632,0,0,0-3.234,7.8A1.528,1.528,0,0,1,45.383,53H42.306v6.121h3.077a1.528,1.528,0,0,1,1.5,1.229,21.6,21.6,0,0,0,3.234,7.8,1.527,1.527,0,0,1-.191,1.927l-2.177,2.179,4.331,4.331,2.177-2.179a1.526,1.526,0,0,1,1.927-.191,21.594,21.594,0,0,0,7.8,3.234,1.527,1.527,0,0,1,1.228,1.5v3.079h6.124V78.948a1.526,1.526,0,0,1,1.227-1.5,21.54,21.54,0,0,0,7.8-3.234,1.529,1.529,0,0,1,1.928.191l2.179,2.179,4.33-4.331-2.178-2.179a1.527,1.527,0,0,1-.191-1.927,21.606,21.606,0,0,0,3.235-7.8,1.526,1.526,0,0,1,1.5-1.229ZM3.052,64.2a2.7,2.7,0,0,0,2.694,2.7H45.888a24.542,24.542,0,0,1-1.724-4.723H40.779a1.526,1.526,0,0,1-1.526-1.527V51.471a1.526,1.526,0,0,1,1.526-1.526h3.385a24.558,24.558,0,0,1,2.739-6.61L44.509,40.94a1.523,1.523,0,0,1,0-2.157L51,32.295a1.523,1.523,0,0,1,2.157,0l2.395,2.395a24.59,24.59,0,0,1,6.611-2.74V28.565a1.525,1.525,0,0,1,1.526-1.526h9.177a1.525,1.525,0,0,1,1.526,1.526v3.384a24.938,24.938,0,0,1,2.971.958V5.748a2.7,2.7,0,0,0-2.7-2.7H54.239v15.04A3.39,3.39,0,0,1,48.7,20.716l-8.275-6.786a.325.325,0,0,0-.431,0l-8.276,6.786a3.373,3.373,0,0,1-2.146.775,3.408,3.408,0,0,1-1.456-.33,3.362,3.362,0,0,1-1.94-3.068V3.052H5.745a2.7,2.7,0,0,0-2.694,2.7ZM29.224,3.052H51.187v15.04a.337.337,0,0,1-.554.261l-8.277-6.785a3.36,3.36,0,0,0-4.3,0L29.78,18.355a.321.321,0,0,1-.363.046.316.316,0,0,1-.192-.307ZM95.769,49.945H92.384a24.634,24.634,0,0,0-2.74-6.611l2.394-2.394a1.525,1.525,0,0,0,0-2.158L85.55,32.295a1.524,1.524,0,0,0-2.159,0L81,34.688c-.192-.116-.389-.225-.583-.336V5.748A5.755,5.755,0,0,0,74.665,0H5.745A5.752,5.752,0,0,0,0,5.748V64.2a5.754,5.754,0,0,0,5.745,5.748H45.737l-1.229,1.228a1.522,1.522,0,0,0,0,2.158L51,79.824a1.528,1.528,0,0,0,2.158,0l2.4-2.4a24.556,24.556,0,0,0,6.609,2.74v3.386a1.527,1.527,0,0,0,1.526,1.527h9.177a1.527,1.527,0,0,0,1.526-1.527V80.167A24.541,24.541,0,0,0,81,77.427l2.394,2.4a1.53,1.53,0,0,0,2.159,0l6.489-6.491a1.528,1.528,0,0,0,0-2.158l-2.395-2.394a24.593,24.593,0,0,0,2.74-6.61h3.385a1.528,1.528,0,0,0,1.526-1.527V51.471A1.526,1.526,0,0,0,95.769,49.945ZM31.241,54.23H15.718V46.77H31.241Zm1.526-10.512a1.526,1.526,0,0,1,1.527,1.526V55.755a1.528,1.528,0,0,1-1.527,1.527H14.191a1.527,1.527,0,0,1-1.526-1.527V45.244a1.526,1.526,0,0,1,1.526-1.526Z" fill-rule="evenodd"/>
      </g>
    </g>
  </g>
</svg>
