<svg xmlns="http://www.w3.org/2000/svg" xmlns:xlink="http://www.w3.org/1999/xlink" width="299.17" height="225.103" viewBox="0 0 299.17 225.103">
  <defs>
    <clipPath id="clip-path">
      <rect id="Rectángulo_461263" data-name="Rectángulo 461263" width="125.523" height="134.019" fill="none"/>
    </clipPath>
    <clipPath id="clip-path-3">
      <rect id="Rectángulo_461261" data-name="Rectángulo 461261" width="4.233" height="0.42" transform="translate(24.686 75.367)" fill="none"/>
    </clipPath>
  </defs>
  <g id="Grupo_1205169" data-name="Grupo 1205169" transform="translate(-384.712 -907.727)">
    <g id="Grupo_1099953" data-name="Grupo 1099953" transform="translate(154.297 -3712.273)">
      <g id="Grupo_1099952" data-name="Grupo 1099952" transform="translate(12928.802 17229.016)">
        <path id="Trazado_145968" data-name="Trazado 145968" d="M49.9,0a49.895,49.895,0,1,0,49.9,49.895A49.895,49.895,0,0,0,49.9,0Z" transform="translate(-12690.719 -12487.975)" fill="#445130"/>
        <path id="Trazado_145969" data-name="Trazado 145969" d="M34.094,0A34.094,34.094,0,1,0,68.187,34.094,34.094,34.094,0,0,0,34.094,0Z" transform="translate(-12495.28 -12595.998)" fill="#445130"/>
        <rect id="Rectángulo_34812" data-name="Rectángulo 34812" width="299.17" height="224.377" transform="translate(-12698.387 -12608.653)" fill="none"/>
        <path id="Trazado_145967" data-name="Trazado 145967" d="M112.552,0A112.552,112.552,0,1,0,225.1,112.552,112.552,112.552,0,0,0,112.552,0Z" transform="translate(-12661.354 -12609.016)" fill="#aaca79"/>
        <path id="Trazado_145971" data-name="Trazado 145971" d="M9.374,0a9.374,9.374,0,1,0,9.374,9.374A9.374,9.374,0,0,0,9.374,0Z" transform="translate(-12454.998 -12421.599)" fill="#0a4666"/>
        <path id="Elipse_4044" data-name="Elipse 4044" d="M12.712,3.436a9.277,9.277,0,1,1-9.277,9.277,9.287,9.287,0,0,1,9.277-9.277m0-3.436A12.712,12.712,0,1,0,25.425,12.712,12.712,12.712,0,0,0,12.712,0Z" transform="translate(-12480.423 -12528.729)" fill="#fff"/>
      </g>
    </g>
    <g id="Grupo_1205079" data-name="Grupo 1205079" transform="translate(474 953.27)">
      <g id="Grupo_1205078" data-name="Grupo 1205078" clip-path="url(#clip-path)">
        <path id="Trazado_1269270" data-name="Trazado 1269270" d="M3.356,84.436l5.606,3.358L8.875,60.188,3.269,56.829Z" fill="#12263f"/>
        <g id="Grupo_1205077" data-name="Grupo 1205077">
          <g id="Grupo_1205076" data-name="Grupo 1205076" clip-path="url(#clip-path)">
            <path id="Trazado_1269271" data-name="Trazado 1269271" d="M4.632,36.06a3.147,3.147,0,0,0-1.421,2.464l.058,18.305,5.6,3.358L8.817,41.874a3.149,3.149,0,0,1,1.42-2.464l9.573-5.528-5.6-3.353Z" fill="#12263f"/>
            <path id="Trazado_1269272" data-name="Trazado 1269272" d="M3.5,129.658a.982.982,0,0,0,.417.912l5.606,3.351a.985.985,0,0,1-.418-.913L9.048,115.4l-5.605-3.358Z" fill="#12263f"/>
            <path id="Trazado_1269273" data-name="Trazado 1269273" d="M3.443,112.044,9.049,115.4,8.962,87.8,3.356,84.436Z" fill="#12263f"/>
            <path id="Trazado_1269274" data-name="Trazado 1269274" d="M14.213,30.528l5.6,3.354L40.552,21.9l-5.6-3.352Z" fill="#12263f"/>
            <path id="Trazado_1269275" data-name="Trazado 1269275" d="M73.358,3.443,67.766.093a1.013,1.013,0,0,0-1.017.1L57.206,5.706,62.8,9.057l9.542-5.51a1.019,1.019,0,0,1,1.017-.1" fill="#12263f"/>
            <path id="Trazado_1269276" data-name="Trazado 1269276" d="M34.956,18.553l5.6,3.352L62.8,9.058,57.206,5.707Z" fill="#12263f"/>
            <path id="Trazado_1269277" data-name="Trazado 1269277" d="M72.345,3.549c.789-.456,1.43-.092,1.433.815L74.064,95.5a3.134,3.134,0,0,1-1.424,2.466L10.533,133.824c-.788.454-1.429.089-1.432-.818L8.815,41.87a3.13,3.13,0,0,1,1.422-2.463Z" fill="#12263f"/>
            <path id="Trazado_1269278" data-name="Trazado 1269278" d="M14.035,43.236l54.553-31.5.258,82.4-54.553,31.5Z" fill="#fff"/>
            <path id="Trazado_1269279" data-name="Trazado 1269279" d="M57.715,12.185a2.73,2.73,0,0,0-2.759.269l-6.123,3.535-2.236-1.3,6.125-3.536a2.728,2.728,0,0,1,2.76-.268Z" fill="#a1eef3"/>
            <path id="Trazado_1269280" data-name="Trazado 1269280" d="M57.715,12.184a2.751,2.751,0,0,0-2.764.274l-2.229-1.3a2.751,2.751,0,0,1,2.764-.274Z" fill="#56e1ea"/>
            <path id="Trazado_1269281" data-name="Trazado 1269281" d="M44.692,14.183a3.4,3.4,0,0,1-1.543,2.672,1.09,1.09,0,0,1-1.1.107l-1.01-.588a1.091,1.091,0,0,0,1.1-.107A3.4,3.4,0,0,0,43.682,13.6a1.082,1.082,0,0,0-.451-.991l1.009.588a1.082,1.082,0,0,1,.452.991" fill="#56e1ea"/>
            <path id="Trazado_1269282" data-name="Trazado 1269282" d="M47.152,10.73c-1.032-.59-2.451-.5-4.02.407a12.467,12.467,0,0,0-5.659,9.8l.005,1.59-2.236-1.3-.005-1.591a12.478,12.478,0,0,1,5.661-9.8,4.016,4.016,0,0,1,4.021-.406Z" fill="#a1eef3"/>
            <path id="Trazado_1269283" data-name="Trazado 1269283" d="M37.47,20.932l.013,1.59-2.242-1.29V19.641a12.475,12.475,0,0,1,5.657-9.8l2.23,1.3a12.485,12.485,0,0,0-5.658,9.79" fill="#56e1ea"/>
            <path id="Trazado_1269284" data-name="Trazado 1269284" d="M54.956,12.437c2.143-1.238,3.887-.242,3.894,2.22l.011,6.662L27.5,39.426l-.011-6.661a8.534,8.534,0,0,1,3.871-6.7l6.12-3.534,0-1.59a12.473,12.473,0,0,1,5.658-9.8,4.019,4.019,0,0,1,4.021-.406,3.964,3.964,0,0,1,1.675,3.652l0,1.591ZM43.15,16.854a3.4,3.4,0,0,0,1.542-2.672c0-.98-.7-1.376-1.552-.883a3.4,3.4,0,0,0-1.543,2.67c0,.982.7,1.378,1.553.885" fill="#7ce8ef"/>
            <path id="Trazado_1269285" data-name="Trazado 1269285" d="M37.478,22.528l-6.122,3.533a8.54,8.54,0,0,0-3.868,6.7l.009,6.661-2.233-1.3-.012-6.661a8.533,8.533,0,0,1,3.871-6.7l6.119-3.535Z" fill="#a1eef3"/>
            <path id="Trazado_1269286" data-name="Trazado 1269286" d="M27.485,32.768l.013,6.661-2.229-1.3-.013-6.662a8.494,8.494,0,0,1,3.872-6.7l2.229,1.29a8.588,8.588,0,0,0-3.872,6.714" fill="#56e1ea"/>
            <path id="Trazado_1269287" data-name="Trazado 1269287" d="M33.4,28.949a1.742,1.742,0,0,1,.274.97,4.676,4.676,0,0,1-2.107,3.669,2.04,2.04,0,0,1-.43.149c.367.557,1.057.7,1.869.231A4.674,4.674,0,0,0,35.109,30.3c0-1.184-.752-1.682-1.714-1.35" fill="#56e1ea"/>
            <path id="Trazado_1269288" data-name="Trazado 1269288" d="M33.669,29.919a1.742,1.742,0,0,0-.274-.97,1.961,1.961,0,0,0-.408.141,4.681,4.681,0,0,0-2.139,3.669,1.713,1.713,0,0,0,.284.977,1.955,1.955,0,0,0,.429-.148,4.674,4.674,0,0,0,2.108-3.669" fill="#12263f"/>
            <path id="Trazado_1269289" data-name="Trazado 1269289" d="M55.532,16.165a1.742,1.742,0,0,1,.274.97A4.676,4.676,0,0,1,53.7,20.8a2.04,2.04,0,0,1-.43.149c.367.557,1.057.7,1.869.231a4.673,4.673,0,0,0,2.108-3.669c0-1.184-.752-1.682-1.714-1.35" fill="#56e1ea"/>
            <path id="Trazado_1269290" data-name="Trazado 1269290" d="M55.806,17.136a1.742,1.742,0,0,0-.274-.97,1.961,1.961,0,0,0-.408.141,4.681,4.681,0,0,0-2.139,3.669,1.713,1.713,0,0,0,.284.977,1.954,1.954,0,0,0,.429-.148,4.674,4.674,0,0,0,2.108-3.669" fill="#12263f"/>
            <path id="Trazado_1269291" data-name="Trazado 1269291" d="M55.013,52.7v3.537l10.379-5.992V46.709Z" fill="#21201f"/>
            <path id="Trazado_1269292" data-name="Trazado 1269292" d="M55.013,33.827v3.527l10.379-5.992V27.836Z" fill="#21201f"/>
            <path id="Trazado_1269293" data-name="Trazado 1269293" d="M28.063,84.337l.028,9.939-8.65,4.994-.028-9.939Z" fill="#21201f"/>
            <path id="Trazado_1269294" data-name="Trazado 1269294" d="M50.048,90.954l-32.56,18.8.01,5.159,32.55-18.792Z" fill="#21201f"/>
            <path id="Trazado_1269295" data-name="Trazado 1269295" d="M65.392,65.592,32.779,84.421l.01,3.521,32.6-18.823Z" fill="#21201f"/>
            <path id="Trazado_1269296" data-name="Trazado 1269296" d="M53.269,82.718,81.622,99.2,110.16,82.718,81.807,66.242Z" fill="#21201f"/>
            <path id="Trazado_1269297" data-name="Trazado 1269297" d="M53.269,82.718l.089,31.486L81.711,130.68,81.622,99.2Z" fill="#353332"/>
            <path id="Trazado_1269298" data-name="Trazado 1269298" d="M81.622,99.2l.089,31.486L110.25,114.2l-.09-31.486Z" fill="#353332"/>
            <path id="Trazado_1269299" data-name="Trazado 1269299" d="M102.086,105.267l-.036-3.232-12.265,7.081.037,3.232Z" fill="#fff"/>
            <path id="Trazado_1269300" data-name="Trazado 1269300" d="M65.116,75.886,93.478,92.349V101.8l2.446-3.613,2.39,1.005V89.551L69.952,73.088Z" fill="#b8d28e"/>
            <path id="Trazado_1269301" data-name="Trazado 1269301" d="M23.852,77.2,16.03,88.535c.035-.053-.04-.189-.251-.4a13.272,13.272,0,0,0-2.613-1.878c-.561-.3-.9-.414-.952-.33L20.036,74.6c.059-.083.4.026.952.33a13.146,13.146,0,0,1,2.618,1.878c.2.21.286.347.246.4" fill="#12263f"/>
            <path id="Trazado_1269302" data-name="Trazado 1269302" d="M16.275,86.5a13.277,13.277,0,0,1-2.616-1.88c-.527-.539-.21-.571.707-.072a13.3,13.3,0,0,1,2.617,1.88c.529.54.212.572-.708.072" fill="#aaca79"/>
            <path id="Trazado_1269303" data-name="Trazado 1269303" d="M5.447,104.358A25.191,25.191,0,0,1,.483,100.79c-1-1.021-.4-1.082,1.342-.135a25.194,25.194,0,0,1,4.961,3.564c1,1.025.405,1.088-1.339.139" fill="#12263f"/>
            <path id="Trazado_1269304" data-name="Trazado 1269304" d="M45.389,42.211c-2.715-1.575-6.472-1.353-10.618,1.042-8.24,4.758-14.9,16.294-14.868,25.757.01,4.709,1.673,8.016,4.349,9.576l-2.767-1.613c-2.676-1.555-4.339-4.868-4.354-9.572C17.1,57.933,23.76,46.4,32,41.639c4.145-2.394,7.9-2.616,10.613-1.037Z" fill="#12263f"/>
            <path id="Trazado_1269305" data-name="Trazado 1269305" d="M17.131,67.4c.015,4.7,1.678,8.017,4.354,9.571l2.767,1.614c-2.676-1.56-4.339-4.867-4.349-9.576a21.912,21.912,0,0,1,.162-2.546l-2.771-1.608a21.885,21.885,0,0,0-.163,2.545" fill="#12263f"/>
            <path id="Trazado_1269306" data-name="Trazado 1269306" d="M17.293,64.857l2.771,1.608A31.9,31.9,0,0,1,24.12,54.582l-2.772-1.609a31.914,31.914,0,0,0-4.055,11.884" fill="#12263f"/>
            <path id="Trazado_1269307" data-name="Trazado 1269307" d="M45.389,42.211,42.617,40.6c-2.71-1.579-6.468-1.357-10.613,1.037-.531.306-1.053.641-1.567,1l2.772,1.61c.513-.358,1.034-.692,1.562-1,4.146-2.394,7.9-2.617,10.618-1.042" fill="#12263f"/>
            <path id="Trazado_1269308" data-name="Trazado 1269308" d="M21.348,52.973l2.772,1.609a31.9,31.9,0,0,1,9.09-10.333L30.436,42.64a31.867,31.867,0,0,0-9.088,10.333" fill="#12263f"/>
            <path id="Trazado_1269309" data-name="Trazado 1269309" d="M45.383,42.212a4.041,4.041,0,0,0-.435-.24,4.094,4.094,0,0,1-.376-.165,6.518,6.518,0,0,0-1.08-.36,2.392,2.392,0,0,0-.45-.09,2.979,2.979,0,0,0-.526-.09h-.03c-.09-.015-.195-.03-.3-.045a.723.723,0,0,0-.18,0c-.18-.015-.345-.03-.525-.03-.1,0-.21.023-.311.027a10.878,10.878,0,0,0-1.25.108h-.03a9.894,9.894,0,0,0-1.636.39,6.956,6.956,0,0,0-.841.285c-.285.1-.585.21-.87.345a13.092,13.092,0,0,0-1.771.9C26.532,48.006,19.868,59.547,19.9,69c0,.4.015.8.045,1.186a.673.673,0,0,0,.015.165c.015.36.06.705.1,1.035a.33.33,0,0,0,.015.12q.068.406.135.766c.015.075.03.135.045.21a7.638,7.638,0,0,0,.255,1.006c.03.075.045.135.075.21.06.21.135.405.21.6v.015c.015.045.03.075.045.12.075.18.151.375.226.556.1.18.195.375.3.57a4.7,4.7,0,0,0,.33.54,5.815,5.815,0,0,0,.345.5.05.05,0,0,0,.015.031c.09.12.195.24.285.345.135.15.27.3.421.45a4.1,4.1,0,0,0,.525.5c.1.09.24.18.345.255a4.107,4.107,0,0,0,.45.316c2.732,1.681,6.544,1.5,10.777-.946,8.255-4.758,14.919-16.285,14.888-25.755-.015-4.713-1.681-8.03-4.367-9.576M26.937,75.772a6.39,6.39,0,0,1-2.251-.405c-.045-.015-.09-.045-.135-.06-1.456-1.441-2.252-3.8-2.267-6.874-.015-8.375,5.884-18.626,13.178-22.829a11.46,11.46,0,0,1,5.553-1.726,5.92,5.92,0,0,1,2.4.48,8.154,8.154,0,0,1,2.1,4.7,14.317,14.317,0,0,1,.15,2.177,21.5,21.5,0,0,1-.525,4.607,31.1,31.1,0,0,1-8.12,14.679c-.315.3-.63.6-.946.885a21,21,0,0,1-3.587,2.657c-.24.135-.48.27-.735.39a12.32,12.32,0,0,1-1.441.646,12.45,12.45,0,0,1-1.4.435,8.5,8.5,0,0,1-1.981.24" fill="#21201f"/>
            <path id="Trazado_1269310" data-name="Trazado 1269310" d="M47.349,52.373c.03,8.375-5.884,18.611-13.178,22.813a11.326,11.326,0,0,1-5.553,1.742,6.463,6.463,0,0,1-1.231-.121,5.336,5.336,0,0,1-2.836-1.5c.045.015.09.045.135.06a6.386,6.386,0,0,0,2.251.405,8.5,8.5,0,0,0,1.981-.24,12.879,12.879,0,0,0,2.837-1.081c.255-.12.5-.255.735-.39A21.058,21.058,0,0,0,36.077,71.4c.315-.285.631-.585.946-.885a31.108,31.108,0,0,0,8.12-14.679,20.628,20.628,0,0,0,.54-4.608,14.108,14.108,0,0,0-.165-2.176,8.154,8.154,0,0,0-2.1-4.7,5.466,5.466,0,0,1,2.491,2.147,10.9,10.9,0,0,1,1.441,5.868" fill="#12263f"/>
            <g id="Grupo_1205075" data-name="Grupo 1205075" opacity="0.3" style="isolation: isolate">
              <g id="Grupo_1205074" data-name="Grupo 1205074">
                <g id="Grupo_1205073" data-name="Grupo 1205073" clip-path="url(#clip-path-3)">
                  <path id="Trazado_1269311" data-name="Trazado 1269311" d="M26.937,75.772a8.5,8.5,0,0,0,1.981-.24,8.546,8.546,0,0,1-1.981.255,6.015,6.015,0,0,1-2.251-.42,6.39,6.39,0,0,0,2.251.405" fill="#2c3e54"/>
                </g>
              </g>
            </g>
            <path id="Trazado_1269312" data-name="Trazado 1269312" d="M18.019,78.2,2.457,101.007a29.556,29.556,0,0,1,2.615,1.764L20.64,79.951A28.5,28.5,0,0,0,18.019,78.2" fill="#12263f"/>
            <path id="Trazado_1269313" data-name="Trazado 1269313" d="M7.134,94.152l-4.677,6.856a29.556,29.556,0,0,1,2.615,1.764l4.683-6.865a28.5,28.5,0,0,0-2.621-1.755" fill="#0a4666"/>
            <path id="Trazado_1269314" data-name="Trazado 1269314" d="M17.394,77.844c-1.061-.594-1.691-.791-1.8-.63L.027,100.035c.09-.162.737.054,1.8.611.2.112.416.234.631.362L18.019,78.2c-.212-.125-.422-.244-.625-.353" fill="#d3d3d3"/>
            <path id="Trazado_1269315" data-name="Trazado 1269315" d="M6.611,93.875c-1.061-.594-1.792-.868-1.9-.706L.027,100.034c.09-.162.738.054,1.8.612.2.112.416.234.631.361l4.677-6.856c-.212-.124-.32-.167-.523-.276" fill="#36dbe6"/>
            <path id="Trazado_1269316" data-name="Trazado 1269316" d="M20.64,79.952,5.072,102.771a16.473,16.473,0,0,1,1.718,1.454c.377.4.539.648.467.756L22.826,82.16c.072-.108-.072-.359-.468-.755a16.153,16.153,0,0,0-1.718-1.453" fill="#d3d3d3"/>
            <path id="Trazado_1269317" data-name="Trazado 1269317" d="M9.755,95.907l-4.683,6.864a16.369,16.369,0,0,1,1.718,1.454c.377.4.539.647.467.755l4.684-6.865c.072-.108.03-.283-.366-.679a18.325,18.325,0,0,0-1.82-1.529" fill="#a6cdec"/>
            <path id="Trazado_1269318" data-name="Trazado 1269318" d="M33.95,51.883c3.63-2.1,6.577-.417,6.588,3.74a14.416,14.416,0,0,1-6.546,11.338c-3.623,2.092-6.564.409-6.576-3.762A14.4,14.4,0,0,1,33.95,51.883m.038,13.523a11.442,11.442,0,0,0,5.191-9c-.01-3.3-2.345-4.633-5.225-2.97a11.422,11.422,0,0,0-5.184,8.979c.009,3.309,2.345,4.648,5.218,2.989" fill="#fff"/>
            <path id="Trazado_1269319" data-name="Trazado 1269319" d="M42.215,53.613c.522.283.524,1.219.019,2.086a2.053,2.053,0,0,0-.29,1.792,2.324,2.324,0,0,1-.681,2.319,2.793,2.793,0,0,0-.8,1.834,2.724,2.724,0,0,1-1.237,2.191,2.828,2.828,0,0,0-1.238,1.637,2.769,2.769,0,0,1-1.159,1.59,1.194,1.194,0,0,1-.506.169,1.238,1.238,0,0,0-.51.171,2.574,2.574,0,0,0-.9.96,2.565,2.565,0,0,1-.907.976.9.9,0,0,1-.908.087.861.861,0,0,0-.907.069,2.176,2.176,0,0,0-.505.414,2.174,2.174,0,0,1-.509.42c-.5.288-.975.217-1.174-.238s-.666-.546-1.18-.249c-.753.435-1.319.106-1.309-.7,0-.63-.311-.994-.8-.926-.668.083-.991-.6-.7-1.52.21-.682.1-1.272-.274-1.466-.522-.282-.524-1.218-.026-2.082A2.031,2.031,0,0,0,26,61.357a2.327,2.327,0,0,1,.681-2.327,2.764,2.764,0,0,0,.8-1.827A2.741,2.741,0,0,1,28.72,55a2.827,2.827,0,0,0,1.238-1.636,2.792,2.792,0,0,1,1.168-1.6,1.182,1.182,0,0,1,.5-.167,1.242,1.242,0,0,0,.519-.173,2.544,2.544,0,0,0,.9-.955,2.593,2.593,0,0,1,.912-.979.891.891,0,0,1,.9-.084.868.868,0,0,0,.91-.073,2.182,2.182,0,0,0,.5-.41,2.151,2.151,0,0,1,.5-.416c.5-.291.978-.214,1.173.246s.666.538,1.179.241c.759-.438,1.32-.1,1.309.706,0,.623.312.987.806.923.668-.083.985.605.7,1.516-.21.69-.1,1.275.28,1.469M33.992,66.961a14.416,14.416,0,0,0,6.546-11.338c-.012-4.157-2.959-5.836-6.589-3.74A14.4,14.4,0,0,0,27.416,63.2c.012,4.171,2.952,5.854,6.576,3.762" fill="#b8d28e"/>
            <path id="Trazado_1269320" data-name="Trazado 1269320" d="M33.954,53.438c2.88-1.663,5.215-.332,5.225,2.97a11.44,11.44,0,0,1-5.191,9c-2.873,1.659-5.209.321-5.218-2.988a11.422,11.422,0,0,1,5.184-8.98" fill="#b8d28e"/>
            <path id="Trazado_1269321" data-name="Trazado 1269321" d="M68.592,46.749,65.73,45.086l-.038-12.165,2.863,1.663Z" fill="#0a4666"/>
            <path id="Trazado_1269322" data-name="Trazado 1269322" d="M68.555,34.584l-2.862-1.663L122.624.051l2.862,1.664Z" fill="#0a4666"/>
            <path id="Trazado_1269323" data-name="Trazado 1269323" d="M68.555,34.584l-2.862-1.663,39.654-22.895,2.862,1.664Z" fill="#0a4666"/>
            <path id="Trazado_1269324" data-name="Trazado 1269324" d="M68.555,34.584l-2.862-1.663,9.094-5.251,2.862,1.664Z" fill="#0a4666"/>
            <path id="Trazado_1269325" data-name="Trazado 1269325" d="M125.486,1.715l.037,12.165L68.592,46.749l-.037-12.165Z" fill="#0a4666"/>
            <path id="Trazado_1269326" data-name="Trazado 1269326" d="M71.536,42.8l-.735-.427-.019-6.806.735.427Z" fill="#fff"/>
            <path id="Trazado_1269327" data-name="Trazado 1269327" d="M71.516,35.99l-.735-.427,1.369-.79.735.427Z" fill="#fff"/>
            <path id="Trazado_1269328" data-name="Trazado 1269328" d="M72.886,35.2l.019,6.806-1.369.791-.019-6.807Z" fill="#fff"/>
            <path id="Trazado_1269329" data-name="Trazado 1269329" d="M88.637,31.653l-.735-.427,3.223-1.861.735.427Z" fill="#fff"/>
            <path id="Trazado_1269330" data-name="Trazado 1269330" d="M88.629,28.856l-.735-.427,2.748-1.586.735.427Z" fill="#fff"/>
            <path id="Trazado_1269331" data-name="Trazado 1269331" d="M87.281,33.706l-.735-.427-.019-6.806.735.427Z" fill="#fff"/>
            <path id="Trazado_1269332" data-name="Trazado 1269332" d="M87.261,26.9l-.735-.427L91,23.892l.735.427Z" fill="#fff"/>
            <path id="Trazado_1269333" data-name="Trazado 1269333" d="M91.73,24.319l0,1.267-3.109,1.795,0,1.475,2.748-1.586,0,1.223L88.632,30.08l0,1.573,3.223-1.861,0,1.268-4.582,2.645-.02-6.806Z" fill="#fff"/>
            <path id="Trazado_1269334" data-name="Trazado 1269334" d="M83.6,33.885l-.735-.427,1.812-5.916.735.427Z" fill="#fff"/>
            <path id="Trazado_1269335" data-name="Trazado 1269335" d="M85.408,27.97l-.735-.427,1.36-.785.735.427Z" fill="#fff"/>
            <path id="Trazado_1269336" data-name="Trazado 1269336" d="M80.3,30.917l-.735-.427,1.484-.856.734.427Z" fill="#fff"/>
            <path id="Trazado_1269337" data-name="Trazado 1269337" d="M82.879,36.247l-.735-.427-2.577-5.33.735.427Z" fill="#fff"/>
            <path id="Trazado_1269338" data-name="Trazado 1269338" d="M86.767,27.185l-2.538,8.283-1.35.78L80.3,30.918l1.483-.857L83.6,33.886l1.811-5.916Z" fill="#fff"/>
            <path id="Trazado_1269339" data-name="Trazado 1269339" d="M78.374,36.167l-.735-.427-.011-4.13.734.427Z" fill="#fff"/>
            <path id="Trazado_1269340" data-name="Trazado 1269340" d="M78.362,32.037l-.735-.427,1.35-.779.735.427Z" fill="#fff"/>
            <path id="Trazado_1269341" data-name="Trazado 1269341" d="M78.61,38.712l-.735-.427-2.959-2.428.735.427Z" fill="#fff"/>
            <path id="Trazado_1269342" data-name="Trazado 1269342" d="M74.293,34.387l-.735-.427,1.132-.653.734.427Z" fill="#fff"/>
            <path id="Trazado_1269343" data-name="Trazado 1269343" d="M74.312,41.193l-.735-.427-.019-6.806.735.427Z" fill="#fff"/>
            <path id="Trazado_1269344" data-name="Trazado 1269344" d="M79.712,31.258l.019,6.806-1.122.648L75.65,36.284l.012,4.13-1.35.779-.019-6.806,1.131-.653,2.95,2.433-.012-4.13Z" fill="#fff"/>
            <path id="Trazado_1269345" data-name="Trazado 1269345" d="M106.453,20.8l-.735-.427a.912.912,0,0,0,.372.115,1.665,1.665,0,0,0,.951-.265,3.47,3.47,0,0,0,.951-.833,4.287,4.287,0,0,0,.654-1.144l.735.427a4.314,4.314,0,0,1-.654,1.144,3.47,3.47,0,0,1-.951.833,1.665,1.665,0,0,1-.951.265.912.912,0,0,1-.372-.115" fill="#fff"/>
            <path id="Trazado_1269346" data-name="Trazado 1269346" d="M108.352,15.711l.735.427a.909.909,0,0,1,.287.271,1.772,1.772,0,0,1,.25.994,3.592,3.592,0,0,1-.244,1.268l-.734-.427a3.615,3.615,0,0,0,.244-1.268,1.771,1.771,0,0,0-.251-.994.9.9,0,0,0-.287-.271" fill="#fff"/>
            <path id="Trazado_1269347" data-name="Trazado 1269347" d="M109.4,14.224l.735.427a1.464,1.464,0,0,0-.722-.192l-.735-.427a1.464,1.464,0,0,1,.722.192" fill="#fff"/>
            <path id="Trazado_1269348" data-name="Trazado 1269348" d="M105.4,22.291l-.735-.427a1.451,1.451,0,0,1-.442-.4l.735.427a1.451,1.451,0,0,0,.442.4" fill="#fff"/>
            <path id="Trazado_1269349" data-name="Trazado 1269349" d="M104.961,21.889l-.735-.427a2.469,2.469,0,0,1-.423-1.55,5.26,5.26,0,0,1,.413-2.044l.735.427a5.26,5.26,0,0,0-.413,2.044,2.457,2.457,0,0,0,.423,1.55" fill="#fff"/>
            <path id="Trazado_1269350" data-name="Trazado 1269350" d="M104.951,18.3l-.735-.427a6.984,6.984,0,0,1,1.147-1.921,6.209,6.209,0,0,1,1.663-1.419,3.058,3.058,0,0,1,1.655-.5l.735.427a3.059,3.059,0,0,0-1.656.5,6.19,6.19,0,0,0-1.662,1.419,6.945,6.945,0,0,0-1.147,1.921" fill="#fff"/>
            <path id="Trazado_1269351" data-name="Trazado 1269351" d="M110.579,15.045A2.476,2.476,0,0,1,111,16.606a5.252,5.252,0,0,1-.414,2.033,7.2,7.2,0,0,1-1.156,1.937,6.223,6.223,0,0,1-1.653,1.4,3.247,3.247,0,0,1-1.665.513,1.465,1.465,0,0,1-1.154-.6,2.463,2.463,0,0,1-.424-1.55,5.262,5.262,0,0,1,.414-2.044,6.942,6.942,0,0,1,1.146-1.921,6.213,6.213,0,0,1,1.663-1.42,3.067,3.067,0,0,1,1.656-.5,1.438,1.438,0,0,1,1.163.587m-1.2,3.625a3.592,3.592,0,0,0,.244-1.268,1.772,1.772,0,0,0-.25-.994.867.867,0,0,0-.659-.386,1.665,1.665,0,0,0-.951.265,3.466,3.466,0,0,0-.95.833,4.26,4.26,0,0,0-.654,1.144,3.6,3.6,0,0,0-.244,1.279,1.752,1.752,0,0,0,.25.982.862.862,0,0,0,.659.386,1.664,1.664,0,0,0,.951-.264,3.483,3.483,0,0,0,.95-.833,4.26,4.26,0,0,0,.654-1.144" fill="#fff"/>
            <path id="Trazado_1269352" data-name="Trazado 1269352" d="M101,25.785l-.735-.427-.015-5.517.734.427Z" fill="#fff"/>
            <path id="Trazado_1269353" data-name="Trazado 1269353" d="M99.093,21.36l-.735-.427,0-1.289.734.427Z" fill="#fff"/>
            <path id="Trazado_1269354" data-name="Trazado 1269354" d="M99.089,20.07l-.735-.427,5.154-2.975.734.427Z" fill="#fff"/>
            <path id="Trazado_1269355" data-name="Trazado 1269355" d="M104.243,17.1l0,1.289-1.892,1.093.015,5.517-1.369.79-.016-5.517-1.892,1.092,0-1.289Z" fill="#fff"/>
            <path id="Trazado_1269356" data-name="Trazado 1269356" d="M97.019,25.4l-.735-.427-.011-4.13.734.427Z" fill="#fff"/>
            <path id="Trazado_1269357" data-name="Trazado 1269357" d="M97.007,21.273l-.735-.427,1.35-.779.735.427Z" fill="#fff"/>
            <path id="Trazado_1269358" data-name="Trazado 1269358" d="M97.255,27.947l-.735-.427L93.551,25.1l.734.427Z" fill="#fff"/>
            <path id="Trazado_1269359" data-name="Trazado 1269359" d="M92.928,23.628l-.735-.427,1.132-.653.734.427Z" fill="#fff"/>
            <path id="Trazado_1269360" data-name="Trazado 1269360" d="M92.947,30.434l-.735-.427L92.193,23.2l.735.427Z" fill="#fff"/>
            <path id="Trazado_1269361" data-name="Trazado 1269361" d="M98.357,20.493l.019,6.806-1.122.648-2.968-2.422.011,4.129-1.35.78-.019-6.807,1.131-.653,2.96,2.428-.012-4.13Z" fill="#fff"/>
            <path id="Trazado_1269362" data-name="Trazado 1269362" d="M119.646,15.02l-.735-.427-.007-2.436.735.427Z" fill="#fff"/>
            <path id="Trazado_1269363" data-name="Trazado 1269363" d="M120.376,10.812l-.735-.427,1.57-3.938.735.427Z" fill="#fff"/>
            <path id="Trazado_1269364" data-name="Trazado 1269364" d="M121.946,6.874l-.735-.427,1.35-.779.735.427Z" fill="#fff"/>
            <path id="Trazado_1269365" data-name="Trazado 1269365" d="M117.335,9.536l-.735-.427,1.455-.84.735.427Z" fill="#fff"/>
            <path id="Trazado_1269366" data-name="Trazado 1269366" d="M119.639,12.583l-.735-.427-2.3-3.047.734.427Z" fill="#fff"/>
            <path id="Trazado_1269367" data-name="Trazado 1269367" d="M123.3,6.094l-2.288,5.72.006,2.415-1.369.79-.007-2.436-2.3-3.047,1.454-.84,1.587,2.115,1.57-3.938Z" fill="#fff"/>
            <path id="Trazado_1269368" data-name="Trazado 1269368" d="M115.814,17.232l-.735-.427-1.146-1.242.735.427Z" fill="#fff"/>
            <path id="Trazado_1269369" data-name="Trazado 1269369" d="M114.521,14.827l-.735-.427a2.725,2.725,0,0,0,.941-.86l.734.427a2.721,2.721,0,0,1-.94.86" fill="#fff"/>
            <path id="Trazado_1269370" data-name="Trazado 1269370" d="M114.788,11.822l.735.427c.168.1.259.316.26.657a1.936,1.936,0,0,1-.321,1.06l-.735-.427a1.928,1.928,0,0,0,.321-1.06c0-.341-.092-.559-.26-.657" fill="#fff"/>
            <path id="Trazado_1269371" data-name="Trazado 1269371" d="M113.409,15.469l-.735-.427,1.113-.642.734.427Z" fill="#fff"/>
            <path id="Trazado_1269372" data-name="Trazado 1269372" d="M115.861,10.342l.735.428a1.112,1.112,0,0,0-.639-.132,3.288,3.288,0,0,0-1.37.484l-.735-.427a3.313,3.313,0,0,1,1.37-.483,1.116,1.116,0,0,1,.639.13" fill="#fff"/>
            <path id="Trazado_1269373" data-name="Trazado 1269373" d="M112.029,12.6l-.735-.427,2.558-1.477.735.427Z" fill="#fff"/>
            <path id="Trazado_1269374" data-name="Trazado 1269374" d="M112.049,19.406l-.735-.427-.019-6.806.735.427Z" fill="#fff"/>
            <path id="Trazado_1269375" data-name="Trazado 1269375" d="M115.951,14.964l1.337,1.417-1.474.851-1.146-1.243-.067.039-1.188.686,0,1.9-1.369.79L112.03,12.6l2.557-1.477a3.288,3.288,0,0,1,1.37-.484,1.009,1.009,0,0,1,.887.341,1.735,1.735,0,0,1,.317,1.13,3.753,3.753,0,0,1-.31,1.493,4.858,4.858,0,0,1-.9,1.362m-.489-1a1.929,1.929,0,0,0,.321-1.061c0-.382-.116-.611-.326-.687a1.206,1.206,0,0,0-.942.238L113.4,13.1l.007,2.371,1.113-.643a2.73,2.73,0,0,0,.94-.86" fill="#fff"/>
          </g>
        </g>
      </g>
    </g>
  </g>
</svg>
