<svg xmlns="http://www.w3.org/2000/svg" xmlns:xlink="http://www.w3.org/1999/xlink" width="96.613" height="106.475" viewBox="0 0 96.613 106.475">
  <defs>
    <clipPath id="clip-path">
      <rect id="Rectángulo_461272" data-name="Rectángulo 461272" width="96.613" height="106.475" fill="none"/>
    </clipPath>
  </defs>
  <g id="Grupo_1205173" data-name="Grupo 1205173" transform="translate(-1175 -1618.906)">
    <path id="Rectángulo_400999" data-name="Rectángulo 400999" d="M59,0H89a0,0,0,0,1,0,0V91a0,0,0,0,1,0,0H0a0,0,0,0,1,0,0V59A59,59,0,0,1,59,0Z" transform="translate(1175 1618.906)" fill="#fff"/>
    <g id="Grupo_1205090" data-name="Grupo 1205090" transform="translate(1175 1618.906)">
      <g id="Grupo_1205089" data-name="Grupo 1205089" clip-path="url(#clip-path)">
        <path id="Trazado_1269408" data-name="Trazado 1269408" d="M10.655,92.794l7.283,26.375a44.036,44.036,0,0,1,4.641-3.5,14.554,14.554,0,0,1,5.169-2.3,13.4,13.4,0,0,1,6.008.109h.007l14.4,3.186a12.291,12.291,0,0,0,9.249-1.289L93.2,94.352A6.734,6.734,0,0,0,86.374,82.74L61.452,97.382c.018-.063.036-.126.053-.19a7.478,7.478,0,0,0-5.3-9.1L31.058,81.449a11.79,11.79,0,0,0-9,2.478Z" transform="translate(-2.29 -17.485)" fill="#c4daa1" fill-rule="evenodd"/>
        <path id="Trazado_1269409" data-name="Trazado 1269409" d="M60.314,103.01A7.482,7.482,0,0,0,68.8,99.285a7.349,7.349,0,0,1-.243,1.729,7.469,7.469,0,0,1-9.1,5.3c-4.895-1.3-9.8-2.545-14.7-3.818a1.714,1.714,0,0,1,.862-3.318C50.511,100.45,55.4,101.714,60.314,103.01Z" transform="translate(-9.345 -21.307)" fill="#aaca79" fill-rule="evenodd"/>
        <path id="Trazado_1269410" data-name="Trazado 1269410" d="M18.542,116.177l1.091,3.953a44.227,44.227,0,0,1,4.641-3.5,14.574,14.574,0,0,1,5.169-2.3,13.4,13.4,0,0,1,6.009.109l.006,0,14.4,3.186a12.3,12.3,0,0,0,9.249-1.29L94.893,95.313A6.753,6.753,0,0,0,97.287,86.1c-.057-.1-.115-.189-.175-.281A6.743,6.743,0,0,1,93.8,91.361L58.014,112.387a12.3,12.3,0,0,1-9.249,1.29l-14.4-3.187H34.36a13.4,13.4,0,0,0-6.009-.109,14.58,14.58,0,0,0-5.169,2.3,44.289,44.289,0,0,0-4.64,3.5Z" transform="translate(-3.986 -18.446)" fill="#aaca79" fill-rule="evenodd"/>
        <path id="Trazado_1269411" data-name="Trazado 1269411" d="M10.476,88.482l8.9,32.24a1.487,1.487,0,0,1-1.035,1.824l-5.959,1.645a1.487,1.487,0,0,1-1.824-1.035l-8.9-32.24a1.488,1.488,0,0,1,1.035-1.824l5.959-1.645a1.488,1.488,0,0,1,1.824,1.035" transform="translate(-0.345 -18.785)" fill="#3d4d62" fill-rule="evenodd"/>
        <path id="Trazado_1269412" data-name="Trazado 1269412" d="M10.476,88.482l.1.375L5,90.4a1.488,1.488,0,0,0-1.035,1.824l8.8,31.864-.378.1a1.487,1.487,0,0,1-1.824-1.035l-8.9-32.24a1.488,1.488,0,0,1,1.035-1.824l5.959-1.645A1.488,1.488,0,0,1,10.476,88.482Z" transform="translate(-0.345 -18.785)" fill="#12263f" fill-rule="evenodd"/>
        <path id="Trazado_1269413" data-name="Trazado 1269413" d="M53.152,22.821h35.4a2.169,2.169,0,0,1,2.169,2.169V55.017a2.169,2.169,0,0,1-2.169,2.169h-35.4a2.169,2.169,0,0,1-2.169-2.169V24.99a2.169,2.169,0,0,1,2.169-2.169" transform="translate(-10.959 -4.905)" fill="#2a5e7a"/>
        <path id="Trazado_1269414" data-name="Trazado 1269414" d="M90.725,53.01v2.008a2.175,2.175,0,0,1-2.169,2.169h-35.4a2.176,2.176,0,0,1-2.169-2.169V24.991a2.176,2.176,0,0,1,2.088-2.168v28.02a2.175,2.175,0,0,0,2.168,2.168h35.4Z" transform="translate(-10.959 -4.906)" fill="#0a4666" fill-rule="evenodd"/>
        <path id="Trazado_1269415" data-name="Trazado 1269415" d="M68.11,22.821H80.961v8.511a.958.958,0,0,1-1.566.741l-4.252-3.486a.95.95,0,0,0-1.215,0l-4.252,3.486a.958.958,0,0,1-1.566-.741Z" transform="translate(-14.64 -4.905)" fill="#a6cdec" fill-rule="evenodd"/>
        <path id="Trazado_1269416" data-name="Trazado 1269416" d="M68.11,22.821h1.93v6.287a.957.957,0,0,0,1.565.741l4.252-3.486a.951.951,0,0,1,1.216,0l3.888,3.188v1.78a.958.958,0,0,1-1.566.741l-4.252-3.486a.95.95,0,0,0-1.215,0l-4.252,3.486a.958.958,0,0,1-1.566-.741Z" transform="translate(-14.64 -4.905)" fill="#a6cdec" fill-rule="evenodd"/>
        <rect id="Rectángulo_461271" data-name="Rectángulo 461271" width="9.544" height="5.4" transform="translate(46.531 40.374)" fill="#12263f"/>
        <path id="Trazado_1269417" data-name="Trazado 1269417" d="M59.271,51.429h9.543v1.232H60.632v4.168h-1.36Z" transform="translate(-12.74 -11.055)" fill="#d3d3d3" fill-rule="evenodd"/>
        <path id="Trazado_1269418" data-name="Trazado 1269418" d="M96.037,37.642a1.672,1.672,0,0,1-2.357-.165l-1-1.15a37.75,37.75,0,0,1-10.023,20.9,32.081,32.081,0,0,1-23.219,9.864A33.553,33.553,0,0,1,26.613,40.47a1.67,1.67,0,1,1,3.269-.686A30.32,30.32,0,0,0,59.439,63.749c15.21,0,27.383-11.372,29.87-27.434l-.912.793A1.67,1.67,0,0,1,86.2,34.587l4.089-3.554a1.664,1.664,0,0,1,1.21-.406,1.681,1.681,0,0,1,1.146.571L96.2,35.285a1.67,1.67,0,0,1-.166,2.356ZM22.686,30.663l3.645,4.005a1.667,1.667,0,0,0,1.157.544l.079,0a1.663,1.663,0,0,0,1.123-.435L32.7,31.134a1.67,1.67,0,0,0-2.248-2.471l-.944.859a30.211,30.211,0,0,1,58.96-4.375,1.669,1.669,0,1,0,3.194-.971A34.666,34.666,0,0,0,79.705,6.88,33.429,33.429,0,0,0,35.78,9.767,33.305,33.305,0,0,0,26.138,29.5l-.981-1.08a1.671,1.671,0,0,0-2.472,2.248M54.707,41.941H48.5V44h6.2Zm1.671-3.34H46.834a1.67,1.67,0,0,0-1.671,1.67v5.4a1.67,1.67,0,0,0,1.671,1.67h9.543a1.67,1.67,0,0,0,1.67-1.67v-5.4a1.67,1.67,0,0,0-1.67-1.67M78.4,50.009V19.981a.5.5,0,0,0-.5-.5H68.295v6.841A2.628,2.628,0,0,1,64,28.356l-3.8-3.115-3.8,3.115A2.627,2.627,0,0,1,52.1,26.324V19.483H42.5a.505.505,0,0,0-.5.5V50.009a.506.506,0,0,0,.5.5H77.9A.5.5,0,0,0,78.4,50.009ZM55.444,19.483h9.509V24.82l-3.088-2.533a2.636,2.636,0,0,0-3.334,0L55.443,24.82V19.483ZM77.9,16.142H42.5a3.844,3.844,0,0,0-3.84,3.838V50.009a3.844,3.844,0,0,0,3.84,3.839H77.9a3.842,3.842,0,0,0,3.837-3.839V19.981A3.842,3.842,0,0,0,77.9,16.142ZM89.934,75.528a5.019,5.019,0,0,0-1.215-9.2,4.983,4.983,0,0,0-3.81.495L60.555,80.881A9.072,9.072,0,0,1,49.7,86.371L36.374,82.743a1.67,1.67,0,1,1,.877-3.223l13.33,3.629a5.737,5.737,0,0,0,3.013-11.072L28.643,65.284c-2.332-.634-4.86.075-7.519,2.109L13.34,73.354,19.472,96.24A14.988,14.988,0,0,1,31.9,93.916l14.293,3.278a10.587,10.587,0,0,0,8-1.032L89.933,75.527ZM11.893,103.09,3.385,71.343l5.559-1.49L17.45,101.6ZM89.582,63.1a8.3,8.3,0,0,0-6.344.828L61.117,76.7a9.09,9.09,0,0,0-6.645-7.847L29.519,62.062c-3.342-.91-6.948.016-10.424,2.68l-6.688,5.122L12.12,68.8a3.149,3.149,0,0,0-3.852-2.225L2.331,68.168A3.149,3.149,0,0,0,.108,72.019l8.607,32.124a3.155,3.155,0,0,0,3.036,2.332,3.19,3.19,0,0,0,.816-.107l5.937-1.591a3.152,3.152,0,0,0,2.225-3.852l-.334-1.245c3.549-2.664,6.808-3.413,10.759-2.506l14.293,3.277a16.167,16.167,0,0,0,3.614.424,13.418,13.418,0,0,0,6.8-1.817L91.6,78.42A8.357,8.357,0,0,0,89.582,63.1Z" transform="translate(0 0)" fill-rule="evenodd"/>
      </g>
    </g>
  </g>
</svg>
