<svg xmlns="http://www.w3.org/2000/svg" xmlns:xlink="http://www.w3.org/1999/xlink" width="135.627" height="98.237" viewBox="0 0 135.627 98.237">
  <defs>
    <clipPath id="clip-path">
      <rect id="Rectángulo_461268" data-name="Rectángulo 461268" width="135.627" height="87.144" transform="translate(0 0)" fill="none"/>
    </clipPath>
  </defs>
  <g id="Grupo_1205172" data-name="Grupo 1205172" transform="translate(-731.187 -1618.906)">
    <path id="Rectángulo_401003" data-name="Rectángulo 401003" d="M59,0H89a0,0,0,0,1,0,0V91a0,0,0,0,1,0,0H0a0,0,0,0,1,0,0V59A59,59,0,0,1,59,0Z" transform="translate(755 1618.906)" fill="#fff"/>
    <g id="Grupo_1205086" data-name="Grupo 1205086" transform="translate(731.187 1630)">
      <g id="Grupo_1205085" data-name="Grupo 1205085" clip-path="url(#clip-path)">
        <path id="Trazado_1269391" data-name="Trazado 1269391" d="M4.134,20.457H37.852a2.007,2.007,0,0,1,2.006,2.007V62.75a2.007,2.007,0,0,1-2.006,2.007H4.134a2.007,2.007,0,0,1-2.006-2.006V22.464a2.007,2.007,0,0,1,2.006-2.006Z" fill="#36dbe6"/>
        <rect id="Rectángulo_461265" data-name="Rectángulo 461265" width="5.987" height="5.987" transform="translate(8.694 34.992)" fill="#3d4d62"/>
        <path id="Trazado_1269392" data-name="Trazado 1269392" d="M8.694,34.992h5.987v1.625H9.8v4.362h-1.1Z" fill="#12263f" fill-rule="evenodd"/>
        <rect id="Rectángulo_461266" data-name="Rectángulo 461266" width="5.987" height="5.987" transform="translate(8.694 49.708)" fill="#3d4d62"/>
        <path id="Trazado_1269393" data-name="Trazado 1269393" d="M8.694,49.707h5.987v1.625H9.8v4.362h-1.1Z" fill="#12263f" fill-rule="evenodd"/>
        <path id="Trazado_1269394" data-name="Trazado 1269394" d="M30.556,20.416H23.629l2.756-3.9a1.318,1.318,0,0,0-1.077-2.082H16.679A1.318,1.318,0,0,0,15.6,16.52l2.756,3.9H11.431a.541.541,0,0,0-.53.657l.937,4.334a1.614,1.614,0,0,0,1.59,1.284H28.56a1.612,1.612,0,0,0,1.59-1.284l.937-4.334a.541.541,0,0,0-.53-.657Z" fill="#353433" fill-rule="evenodd"/>
        <path id="Trazado_1269395" data-name="Trazado 1269395" d="M18.669,14.439H16.678A1.318,1.318,0,0,0,15.6,16.52l.875,1.237h4.54Zm-4.677,5.977H11.43a.54.54,0,0,0-.53.657l.937,4.334a1.613,1.613,0,0,0,1.59,1.284H28.559a1.613,1.613,0,0,0,1.59-1.284l.3-1.376H16.086a1.613,1.613,0,0,1-1.59-1.283Z" fill="#21201f" fill-rule="evenodd"/>
        <path id="Trazado_1269396" data-name="Trazado 1269396" d="M64.659,16.914h5.75a.7.7,0,0,1,.7.7V20.5a18.087,18.087,0,0,1,6.509,2.7l2.043-2.043a.7.7,0,0,1,.991,0l4.066,4.066a.7.7,0,0,1,0,.991l-2.043,2.043a18.086,18.086,0,0,1,2.7,6.509h2.888a.7.7,0,0,1,.7.7v5.75a.7.7,0,0,1-.7.7H85.374a18.089,18.089,0,0,1-2.7,6.509l2.043,2.044a.7.7,0,0,1,0,.991l-4.066,4.065a.7.7,0,0,1-.991,0l-2.043-2.042a18.087,18.087,0,0,1-6.509,2.7V59.07a.7.7,0,0,1-.7.7h-5.75a.7.7,0,0,1-.7-.7V56.182a18.087,18.087,0,0,1-6.509-2.7l-2.043,2.042a.7.7,0,0,1-.991,0l-4.066-4.066a.7.7,0,0,1,0-.991l2.043-2.043a18.071,18.071,0,0,1-2.7-6.509H46.806a.7.7,0,0,1-.7-.7v-5.75a.7.7,0,0,1,.7-.7h2.888a18.086,18.086,0,0,1,2.7-6.509l-2.043-2.043a.7.7,0,0,1,0-.991l4.066-4.066a.7.7,0,0,1,.991,0L57.449,23.2a18.107,18.107,0,0,1,6.509-2.7V17.614A.7.7,0,0,1,64.659,16.914Z" fill="#12263f" fill-rule="evenodd"/>
        <path id="Trazado_1269397" data-name="Trazado 1269397" d="M57.282,37.141a10.823,10.823,0,1,1,8.043,13.022,10.823,10.823,0,0,1-8.043-13.022" fill="#36dbe6"/>
        <path id="Trazado_1269398" data-name="Trazado 1269398" d="M67.813,28.773a10.881,10.881,0,0,1,2.659.329,10.828,10.828,0,0,0,0,20.991,10.826,10.826,0,1,1-2.659-21.32Z" fill="#d3d3d3" fill-rule="evenodd"/>
        <rect id="Rectángulo_461267" data-name="Rectángulo 461267" width="31.666" height="31.666" transform="translate(101.833 23.765)" fill="#2a5e7a"/>
        <path id="Trazado_1269399" data-name="Trazado 1269399" d="M101.833,23.765h2.659V52.771H133.5v2.66H101.833Z" fill="#0a4666" fill-rule="evenodd"/>
        <path id="Trazado_1269400" data-name="Trazado 1269400" d="M112.679,23.765h9.974v10.6l-4.987-4.151-4.987,4.151Z" fill="#36dbe6" fill-rule="evenodd"/>
        <path id="Trazado_1269401" data-name="Trazado 1269401" d="M122.653,23.765h-2.659v7.944l-4.987-4.15L112.679,29.5v4.873l4.987-4.151,4.987,4.151Z" fill="#a6cdec" fill-rule="evenodd"/>
        <path id="Trazado_1269402" data-name="Trazado 1269402" d="M109.087,66.587A47.011,47.011,0,0,1,91.73,81.512a53.074,53.074,0,0,1-23.916,5.632,51.913,51.913,0,0,1-29.92-9.228l.214,1.391a2.128,2.128,0,1,1-4.206.649l-1.037-6.731c0-.026-.008-.055-.011-.085a2.126,2.126,0,0,1,.471-1.609,2.134,2.134,0,0,1,.947-.657h0a2.237,2.237,0,0,1,.38-.092l6.734-1.037a2.127,2.127,0,0,1,.649,4.2l-1.958.3a47.605,47.605,0,0,0,27.735,8.64c15.506,0,29.631-7,37.779-18.73a2.127,2.127,0,0,1,3.494,2.428ZM37.54,12.066a2.127,2.127,0,0,1,.534-2.96A51.808,51.808,0,0,1,67.814,0,52.232,52.232,0,0,1,97.175,8.846l-.052-1.488a2.127,2.127,0,1,1,4.252-.152l.24,6.823a2.124,2.124,0,0,1-2.052,2.2l-6.821.24c-.026,0-.05,0-.076,0a2.128,2.128,0,0,1-.076-4.255l1.877-.066A48.9,48.9,0,0,0,40.5,12.6a2.128,2.128,0,0,1-2.96-.535ZM33.833,55.785A2.129,2.129,0,0,1,31.7,57.913H21.272a2.127,2.127,0,0,1,0-4.255H31.7a2.126,2.126,0,0,1,2.128,2.127m0-6.169A2.127,2.127,0,0,1,31.7,51.743H21.272a2.128,2.128,0,0,1,0-4.256H31.7a2.127,2.127,0,0,1,2.128,2.129M12.555,53.565H10.822V51.833h1.733Zm2.128-5.986H8.694a2.128,2.128,0,0,0-2.127,2.127v5.986A2.128,2.128,0,0,0,8.694,57.82h5.989a2.128,2.128,0,0,0,2.127-2.128V49.706a2.128,2.128,0,0,0-2.127-2.127M33.833,34.9A2.128,2.128,0,0,1,31.7,37.028H21.272a2.128,2.128,0,0,1,0-4.255H31.7A2.128,2.128,0,0,1,33.833,34.9m0,6.167A2.127,2.127,0,0,1,31.7,43.2H21.272a2.127,2.127,0,0,1,0-4.255H31.7a2.127,2.127,0,0,1,2.128,2.127M12.555,38.851H10.822V37.119h1.733Zm2.128-5.987H8.694a2.127,2.127,0,0,0-2.127,2.128v5.985a2.128,2.128,0,0,0,2.127,2.129h5.989a2.128,2.128,0,0,0,2.127-2.129V34.992a2.127,2.127,0,0,0-2.127-2.128M37.73,62.628V22.583H32.936l-.707,3.274a3.729,3.729,0,0,1-3.67,2.96H13.428a3.731,3.731,0,0,1-3.671-2.96L9.05,22.583h-4.8V62.628ZM18.357,22.544a2.129,2.129,0,0,0,1.737-3.356l-1.853-2.623h5.5l-1.852,2.623a2.129,2.129,0,0,0,1.735,3.356H28.59l-.436,2.018H13.831L13.4,22.544ZM41.986,62.75V22.463a4.139,4.139,0,0,0-4.135-4.136H31a2.756,2.756,0,0,0-.445-.038H27.741l.382-.543a3.446,3.446,0,0,0-2.814-5.436H16.68a3.446,3.446,0,0,0-2.816,5.438l.383.541H11.43a2.753,2.753,0,0,0-.444.038H4.136A4.14,4.14,0,0,0,0,22.463V62.75a4.138,4.138,0,0,0,4.136,4.133H37.851a4.138,4.138,0,0,0,4.135-4.133M131.372,53.3H103.963V25.891h6.59v8.476A2.127,2.127,0,0,0,114.041,36l3.625-3.019L121.294,36a2.125,2.125,0,0,0,3.485-1.636V25.891h6.593ZM114.807,25.891V29.83l1.5-1.248a2.128,2.128,0,0,1,2.72,0l1.5,1.248V25.891ZM133.5,21.636H101.834a2.127,2.127,0,0,0-2.127,2.128V55.428a2.127,2.127,0,0,0,2.127,2.129H133.5a2.127,2.127,0,0,0,2.127-2.129V23.764A2.127,2.127,0,0,0,133.5,21.636ZM67.814,48.294a8.7,8.7,0,1,1,8.7-8.7,8.706,8.706,0,0,1-8.7,8.7m0-21.651A12.953,12.953,0,1,0,80.765,39.6,12.967,12.967,0,0,0,67.814,26.643Zm19.3,14.4v-2.9H85.653a2.126,2.126,0,0,1-2.086-1.712,15.868,15.868,0,0,0-2.383-5.745,2.129,2.129,0,0,1,.266-2.683l1.035-1.034-2.047-2.048L79.4,25.957a2.127,2.127,0,0,1-2.686.267,15.845,15.845,0,0,0-5.745-2.38,2.127,2.127,0,0,1-1.709-2.088V20.3h-2.9v1.46a2.127,2.127,0,0,1-1.709,2.088,15.889,15.889,0,0,0-5.744,2.38,2.126,2.126,0,0,1-2.686-.267L55.19,24.926l-2.048,2.048,1.034,1.034a2.121,2.121,0,0,1,.263,2.683,15.933,15.933,0,0,0-2.38,5.745,2.125,2.125,0,0,1-2.084,1.712H48.511v2.9h1.464a2.128,2.128,0,0,1,2.084,1.713,15.989,15.989,0,0,0,2.38,5.744,2.127,2.127,0,0,1-.263,2.686l-1.034,1.032L55.19,54.27l1.034-1.035a2.128,2.128,0,0,1,2.686-.266,15.868,15.868,0,0,0,5.744,2.38,2.127,2.127,0,0,1,1.709,2.087V58.9h2.9V57.436a2.127,2.127,0,0,1,1.709-2.087,15.844,15.844,0,0,0,5.745-2.38,2.131,2.131,0,0,1,2.686.266l1.035,1.035,2.047-2.051L81.45,51.187a2.133,2.133,0,0,1-.266-2.686,15.871,15.871,0,0,0,2.383-5.744,2.129,2.129,0,0,1,2.086-1.713ZM88.541,45.3a2.831,2.831,0,0,0,2.829-2.827V36.72a2.832,2.832,0,0,0-2.829-2.827h-1.22a20,20,0,0,0-1.682-4.055l.864-.864a2.835,2.835,0,0,0,0-4l-4.065-4.067a2.834,2.834,0,0,0-4,0l-.864.866a20.073,20.073,0,0,0-4.056-1.684v-1.22a2.831,2.831,0,0,0-2.83-2.827H64.939a2.83,2.83,0,0,0-2.829,2.827v1.22a20.05,20.05,0,0,0-4.056,1.684l-.864-.865a2.833,2.833,0,0,0-4,0l-4.065,4.066a2.835,2.835,0,0,0,0,4l.864.861a20.125,20.125,0,0,0-1.683,4.058H47.086a2.832,2.832,0,0,0-2.829,2.827v5.752A2.831,2.831,0,0,0,47.086,45.3h1.219a19.959,19.959,0,0,0,1.683,4.058l-.864.862a2.835,2.835,0,0,0,0,4l4.065,4.069a2.835,2.835,0,0,0,4,0l.864-.862A20.054,20.054,0,0,0,62.109,59.1v1.22a2.831,2.831,0,0,0,2.83,2.828h5.748a2.832,2.832,0,0,0,2.831-2.828V59.1a20.144,20.144,0,0,0,4.056-1.681l.864.862a2.823,2.823,0,0,0,4,0L86.5,54.219a2.835,2.835,0,0,0,0-4l-.864-.862A20.069,20.069,0,0,0,87.321,45.3Z" fill-rule="evenodd"/>
      </g>
    </g>
  </g>
</svg>
