<svg id="Grupo_1204370" data-name="Grupo 1204370" xmlns="http://www.w3.org/2000/svg" xmlns:xlink="http://www.w3.org/1999/xlink" width="63" height="63" viewBox="0 0 63 63">
  <defs>
    <clipPath id="clip-path">
      <rect id="Rectángulo_455433" data-name="Rectángulo 455433" width="63" height="63" fill="none"/>
    </clipPath>
  </defs>
  <g id="Grupo_1204369" data-name="Grupo 1204369" clip-path="url(#clip-path)">
    <path id="Trazado_1261809" data-name="Trazado 1261809" d="M31.5,0A31.5,31.5,0,1,1,0,31.5,31.5,31.5,0,0,1,31.5,0" fill="#f6f6f6"/>
    <path id="Trazado_1261810" data-name="Trazado 1261810" d="M39.883,44.059a33.465,33.465,0,0,0,5.705-7.932,23.4,23.4,0,0,0,2.621-10.592,17.067,17.067,0,0,0-34.133,0A22.953,22.953,0,0,0,16.7,35.966a34.432,34.432,0,0,0,5.7,7.945c.612.651,1.223,1.259,1.82,1.823-3.514.988-5.562,2.677-5.562,4.659,0,1.637,1.41,3.1,3.97,4.122a23.758,23.758,0,0,0,8.517,1.416,23.76,23.76,0,0,0,8.518-1.416c2.559-1.021,3.969-2.485,3.969-4.122,0-1.96-2.011-3.638-5.463-4.629.564-.53,1.14-1.1,1.717-1.705m.563,4.669c.5.316,1.329.953,1.329,1.665,0,1.539-4.045,3.685-10.633,3.685s-10.633-2.146-10.633-3.685c0-.719.85-1.363,1.356-1.681a12.7,12.7,0,0,1,4.014-1.479c.86.739,1.658,1.371,2.346,1.889a.926.926,0,0,0,.226,1.824H33.96a.927.927,0,0,0,.184-1.836c.692-.509,1.491-1.131,2.35-1.858a12.552,12.552,0,0,1,3.952,1.476m-9.3.194a44.272,44.272,0,0,1-7.436-6.314,32.6,32.6,0,0,1-5.376-7.5,21.114,21.114,0,0,1-2.41-9.569,15.213,15.213,0,0,1,30.426,0,21.548,21.548,0,0,1-2.41,9.732,31.586,31.586,0,0,1-5.37,7.48,41.966,41.966,0,0,1-7.424,6.175" fill="#0a4666"/>
    <path id="Trazado_1261811" data-name="Trazado 1261811" d="M31.142,13.922A11.613,11.613,0,1,0,42.765,25.535,11.631,11.631,0,0,0,31.142,13.922m0,21.372a9.759,9.759,0,1,1,9.769-9.759,9.775,9.775,0,0,1-9.769,9.759" fill="#0a4666"/>
    <path id="Trazado_1261812" data-name="Trazado 1261812" d="M33.535,19.882a.927.927,0,0,0-1.213.5L28.38,29.772a.927.927,0,0,0,1.709.717l3.942-9.394a.927.927,0,0,0-.5-1.213" fill="#0a4666"/>
    <path id="Trazado_1261813" data-name="Trazado 1261813" d="M31.149,22.323a2.824,2.824,0,0,0-2.669-2.951,2.824,2.824,0,0,0-2.668,2.951,2.824,2.824,0,0,0,2.668,2.951,2.824,2.824,0,0,0,2.669-2.951m-3.484,0c0-.595.373-1.1.815-1.1s.815.5.815,1.1-.373,1.1-.815,1.1-.815-.5-.815-1.1" fill="#0a4666"/>
    <path id="Trazado_1261814" data-name="Trazado 1261814" d="M33.8,25.8a2.965,2.965,0,1,0,2.669,2.951A2.824,2.824,0,0,0,33.8,25.8m0,4.048c-.442,0-.815-.5-.815-1.1s.373-1.1.815-1.1.815.5.815,1.1-.373,1.1-.815,1.1" fill="#0a4666"/>
  </g>
</svg>
