<svg id="Grupo_1204368" data-name="Grupo 1204368" xmlns="http://www.w3.org/2000/svg" xmlns:xlink="http://www.w3.org/1999/xlink" width="63" height="63" viewBox="0 0 63 63">
  <defs>
    <clipPath id="clip-path">
      <rect id="Rectángulo_455432" data-name="Rectángulo 455432" width="63" height="63" fill="none"/>
    </clipPath>
  </defs>
  <g id="Grupo_1204367" data-name="Grupo 1204367" clip-path="url(#clip-path)">
    <path id="Trazado_1261802" data-name="Trazado 1261802" d="M31.5,0A31.5,31.5,0,1,1,0,31.5,31.5,31.5,0,0,1,31.5,0" fill="#f6f6f6"/>
    <path id="Trazado_1261803" data-name="Trazado 1261803" d="M22.33,37.787a.849.849,0,1,0-.311,1.159.85.85,0,0,0,.311-1.159" fill="#0a4666"/>
    <path id="Trazado_1261804" data-name="Trazado 1261804" d="M43.061,28.168l1.8-2.73a.848.848,0,0,0,.027-.892l-1.7-2.94a.849.849,0,0,0-.786-.423l-3.265.2-3.131-5.424a2.526,2.526,0,0,0-2.174-1.273h-.032a2.524,2.524,0,0,0-2.144,1.174L20.574,29.98l-7.208,4.162A5.941,5.941,0,0,0,18.542,44.8l4.274,7.4a3.395,3.395,0,1,0,5.88-3.4L26.15,44.4l2.2-1.273a.849.849,0,0,0,.31-1.16l-1.1-1.911,16.256-3.189a2.546,2.546,0,0,0,2.064-3.815Zm-1.075-5.259,1.173,2.031-1.046,1.585-2.022-3.5ZM18.458,42.962a4.243,4.243,0,1,1-4.243-7.35l6.615-3.82,4.244,7.35Zm8.768,6.7a1.7,1.7,0,0,1-2.94,1.7l-4.244-7.352,2.94-1.7,4.244,7.351M25.3,42.931l-.849-1.47,1.47-.848.849,1.47ZM26.665,38.5l-4.5-7.8,9.5-12.1L41.472,35.6ZM43.7,35.175a3.209,3.209,0,0,0-.465.079L32.79,17.167c.219-.282.247-.309.291-.38a.848.848,0,0,1,1.459.017l9.872,17.1a.848.848,0,0,1-.714,1.272" fill="#0a4666"/>
    <path id="Trazado_1261805" data-name="Trazado 1261805" d="M18.231,39.173l-1.47.849a.85.85,0,0,1-1.159-.311.849.849,0,1,0-1.47.849,2.549,2.549,0,0,0,3.478.932l1.47-.849a.849.849,0,0,0-.849-1.47" fill="#0a4666"/>
    <path id="Trazado_1261806" data-name="Trazado 1261806" d="M53.743,16.827a.848.848,0,0,0-1.154-.329L47.86,19.13a.849.849,0,1,0,.825,1.483l4.729-2.632a.848.848,0,0,0,.329-1.154" fill="#0a4666"/>
    <path id="Trazado_1261807" data-name="Trazado 1261807" d="M52.093,25.288l-3.279-.879a.849.849,0,0,0-.44,1.64l3.28.878a.848.848,0,1,0,.439-1.639" fill="#0a4666"/>
    <path id="Trazado_1261808" data-name="Trazado 1261808" d="M43.572,17.734a.85.85,0,0,0,1.04-.6l.879-3.28a.849.849,0,0,0-1.64-.439l-.879,3.279a.85.85,0,0,0,.6,1.04" fill="#0a4666"/>
  </g>
</svg>
